  0
SECTION
  2
HEADER
  9
$ACADVER
  1
AC1009
  9
$EXTMIN
 10
0.0
 20
0.0
 30
0.0
  9
$EXTMAX
 10
1000.0
 20
1000.0
 30
0.0
  9
$FILLMODE
 70
 0
  9
$SPLFRAME
 70
 1
  0
ENDSEC
  0
SECTION
  2
TABLES
  0
TABLE
  2
LAYER
 70
1
  0
LAYER
  2
0
 70
     0
 62
     7
  6
CONTINUOUS
  0
ENDTAB
  0
ENDSEC
  0
SECTION
  2
ENTITIES
  0
POLYLINE
  8
0
 62
     250
 66
     1
 10
0
 20
0
 30
0.0
 70
     1
 40
0
 41
0
  0
VERTEX
  8
0
 10
2.8469
 20
1.5734
 30
0.0
 40
0
 41
0
  0
VERTEX
  8
0
 10
2.83849
 20
1.58822
 30
0.0
 40
0
 41
0
  0
VERTEX
  8
0
 10
2.80865
 20
1.62993
 30
0.0
 40
0
 41
0
  0
VERTEX
  8
0
 10
2.76085
 20
1.6799
 30
0.0
 40
0
 41
0
  0
VERTEX
  8
0
 10
2.70356
 20
1.72136
 30
0.0
 40
0
 41
0
  0
VERTEX
  8
0
 10
2.65397
 20
1.74625
 30
0.0
 40
0
 41
0
  0
VERTEX
  8
0
 10
2.63672
 20
1.75228
 30
0.0
 40
0
 41
0
  0
VERTEX
  8
0
 10
2.62663
 20
1.75586
 30
0.0
 40
0
 41
0
  0
VERTEX
  8
0
 10
2.52251
 20
1.77399
 30
0.0
 40
0
 41
0
  0
VERTEX
  8
0
 10
2.51204
 20
1.77403
 30
0.0
 40
0
 41
0
  0
VERTEX
  8
0
 10
2.51133
 20
1.77403
 30
0.0
 40
0
 41
0
  0
VERTEX
  8
0
 10
2.50971
 20
1.77403
 30
0.0
 40
0
 41
0
  0
VERTEX
  8
0
 10
2.50922
 20
1.77403
 30
0.0
 40
0
 41
0
  0
VERTEX
  8
0
 10
2.46864
 20
1.77403
 30
0.0
 40
0
 41
0
  0
VERTEX
  8
0
 10
2.34706
 20
1.74208
 30
0.0
 40
0
 41
0
  0
VERTEX
  8
0
 10
2.22765
 20
1.67469
 30
0.0
 40
0
 41
0
  0
VERTEX
  8
0
 10
2.20654
 20
1.65701
 30
0.0
 40
0
 41
0
  0
VERTEX
  8
0
 10
2.18511
 20
1.63911
 30
0.0
 40
0
 41
0
  0
VERTEX
  8
0
 10
2.09244
 20
1.53039
 30
0.0
 40
0
 41
0
  0
VERTEX
  8
0
 10
2.02192
 20
1.39914
 30
0.0
 40
0
 41
0
  0
VERTEX
  8
0
 10
2.01161
 20
1.36995
 30
0.0
 40
0
 41
0
  0
VERTEX
  8
0
 10
2.00119
 20
1.34049
 30
0.0
 40
0
 41
0
  0
VERTEX
  8
0
 10
2.00196
 20
1.34049
 30
0.0
 40
0
 41
0
  0
VERTEX
  8
0
 10
1.99707
 20
1.32454
 30
0.0
 40
0
 41
0
  0
VERTEX
  8
0
 10
1.97993
 20
1.2449
 30
0.0
 40
0
 41
0
  0
VERTEX
  8
0
 10
1.97228
 20
1.16634
 30
0.0
 40
0
 41
0
  0
VERTEX
  8
0
 10
1.97217
 20
1.15088
 30
0.0
 40
0
 41
0
  0
VERTEX
  8
0
 10
1.97211
 20
1.15039
 30
0.0
 40
0
 41
0
  0
VERTEX
  8
0
 10
1.97211
 20
1.14638
 30
0.0
 40
0
 41
0
  0
VERTEX
  8
0
 10
1.97211
 20
1.14502
 30
0.0
 40
0
 41
0
  0
VERTEX
  8
0
 10
1.97211
 20
1.12104
 30
0.0
 40
0
 41
0
  0
VERTEX
  8
0
 10
1.9885
 20
1.0057
 30
0.0
 40
0
 41
0
  0
VERTEX
  8
0
 10
2.02681
 20
0.899685
 30
0.0
 40
0
 41
0
  0
VERTEX
  8
0
 10
2.03776
 20
0.880317
 30
0.0
 40
0
 41
0
  0
VERTEX
  8
0
 10
2.04611
 20
0.86556
 30
0.0
 40
0
 41
0
  0
VERTEX
  8
0
 10
2.07596
 20
0.823785
 30
0.0
 40
0
 41
0
  0
VERTEX
  8
0
 10
2.12375
 20
0.773762
 30
0.0
 40
0
 41
0
  0
VERTEX
  8
0
 10
2.18104
 20
0.732314
 30
0.0
 40
0
 41
0
  0
VERTEX
  8
0
 10
2.23062
 20
0.707357
 30
0.0
 40
0
 41
0
  0
VERTEX
  8
0
 10
2.24794
 20
0.701281
 30
0.0
 40
0
 41
0
  0
VERTEX
  8
0
 10
2.25543
 20
0.722114
 30
0.0
 40
0
 41
0
  0
VERTEX
  8
0
 10
2.24794
 20
0.701226
 30
0.0
 40
0
 41
0
  0
VERTEX
  8
0
 10
2.25797
 20
0.697754
 30
0.0
 40
0
 41
0
  0
VERTEX
  8
0
 10
2.36171
 20
0.67985
 30
0.0
 40
0
 41
0
  0
VERTEX
  8
0
 10
2.37224
 20
0.679742
 30
0.0
 40
0
 41
0
  0
VERTEX
  8
0
 10
2.37315
 20
0.679742
 30
0.0
 40
0
 41
0
  0
VERTEX
  8
0
 10
2.37375
 20
0.679742
 30
0.0
 40
0
 41
0
  0
VERTEX
  8
0
 10
2.37506
 20
0.679742
 30
0.0
 40
0
 41
0
  0
VERTEX
  8
0
 10
2.37554
 20
0.679742
 30
0.0
 40
0
 41
0
  0
VERTEX
  8
0
 10
2.41607
 20
0.679742
 30
0.0
 40
0
 41
0
  0
VERTEX
  8
0
 10
2.53765
 20
0.711751
 30
0.0
 40
0
 41
0
  0
VERTEX
  8
0
 10
2.65696
 20
0.778971
 30
0.0
 40
0
 41
0
  0
VERTEX
  8
0
 10
2.67806
 20
0.796604
 30
0.0
 40
0
 41
0
  0
VERTEX
  8
0
 10
2.69937
 20
0.814561
 30
0.0
 40
0
 41
0
  0
VERTEX
  8
0
 10
2.79189
 20
0.923068
 30
0.0
 40
0
 41
0
  0
VERTEX
  8
0
 10
2.86242
 20
1.05393
 30
0.0
 40
0
 41
0
  0
VERTEX
  8
0
 10
2.87278
 20
1.08301
 30
0.0
 40
0
 41
0
  0
VERTEX
  8
0
 10
2.87294
 20
1.08328
 30
0.0
 40
0
 41
0
  0
VERTEX
  8
0
 10
2.87321
 20
1.08409
 30
0.0
 40
0
 41
0
  0
VERTEX
  8
0
 10
2.87967
 20
1.10248
 30
0.0
 40
0
 41
0
  0
VERTEX
  8
0
 10
2.90218
 20
1.19439
 30
0.0
 40
0
 41
0
  0
VERTEX
  8
0
 10
2.91222
 20
1.28505
 30
0.0
 40
0
 41
0
  0
VERTEX
  8
0
 10
2.91243
 20
1.30284
 30
0.0
 40
0
 41
0
  0
VERTEX
  8
0
 10
2.91243
 20
1.30848
 30
0.0
 40
0
 41
0
  0
VERTEX
  8
0
 10
2.91237
 20
1.33257
 30
0.0
 40
0
 41
0
  0
VERTEX
  8
0
 10
2.89606
 20
1.44814
 30
0.0
 40
0
 41
0
  0
VERTEX
  8
0
 10
2.85781
 20
1.55419
 30
0.0
 40
0
 41
0
  0
VERTEX
  8
0
 10
2.84685
 20
1.57357
 30
0.0
 40
0
 41
0
  0
VERTEX
  8
0
 10
2.8469
 20
1.5734
 30
0.0
 40
0
 41
0
  0
SEQEND
 8
0
  0
POLYLINE
  8
0
 62
     250
 66
     1
 10
0
 20
0
 30
0.0
 70
     1
 40
0
 41
0
  0
VERTEX
  8
0
 10
2.16157
 20
1.14914
 30
0.0
 40
0
 41
0
  0
VERTEX
  8
0
 10
2.16168
 20
1.16298
 30
0.0
 40
0
 41
0
  0
VERTEX
  8
0
 10
2.16949
 20
1.23416
 30
0.0
 40
0
 41
0
  0
VERTEX
  8
0
 10
2.18739
 20
1.30686
 30
0.0
 40
0
 41
0
  0
VERTEX
  8
0
 10
2.19254
 20
1.32145
 30
0.0
 40
0
 41
0
  0
VERTEX
  8
0
 10
2.1926
 20
1.32162
 30
0.0
 40
0
 41
0
  0
VERTEX
  8
0
 10
2.19271
 20
1.32205
 30
0.0
 40
0
 41
0
  0
VERTEX
  8
0
 10
2.19282
 20
1.32216
 30
0.0
 40
0
 41
0
  0
VERTEX
  8
0
 10
2.19874
 20
1.33919
 30
0.0
 40
0
 41
0
  0
VERTEX
  8
0
 10
2.22108
 20
1.38862
 30
0.0
 40
0
 41
0
  0
VERTEX
  8
0
 10
2.25586
 20
1.44764
 30
0.0
 40
0
 41
0
  0
VERTEX
  8
0
 10
2.29568
 20
1.49854
 30
0.0
 40
0
 41
0
  0
VERTEX
  8
0
 10
2.32742
 20
1.53076
 30
0.0
 40
0
 41
0
  0
VERTEX
  8
0
 10
2.33897
 20
1.54036
 30
0.0
 40
0
 41
0
  0
VERTEX
  8
0
 10
2.34939
 20
1.5491
 30
0.0
 40
0
 41
0
  0
VERTEX
  8
0
 10
2.38319
 20
1.57226
 30
0.0
 40
0
 41
0
  0
VERTEX
  8
0
 10
2.42703
 20
1.5944
 30
0.0
 40
0
 41
0
  0
VERTEX
  8
0
 10
2.46907
 20
1.60732
 30
0.0
 40
0
 41
0
  0
VERTEX
  8
0
 10
2.49826
 20
1.61149
 30
0.0
 40
0
 41
0
  0
VERTEX
  8
0
 10
2.50803
 20
1.61149
 30
0.0
 40
0
 41
0
  0
VERTEX
  8
0
 10
2.51025
 20
1.61149
 30
0.0
 40
0
 41
0
  0
VERTEX
  8
0
 10
2.51497
 20
1.61143
 30
0.0
 40
0
 41
0
  0
VERTEX
  8
0
 10
2.5606
 20
1.60362
 30
0.0
 40
0
 41
0
  0
VERTEX
  8
0
 10
2.56521
 20
1.602
 30
0.0
 40
0
 41
0
  0
VERTEX
  8
0
 10
2.57579
 20
1.59831
 30
0.0
 40
0
 41
0
  0
VERTEX
  8
0
 10
2.62565
 20
1.56625
 30
0.0
 40
0
 41
0
  0
VERTEX
  8
0
 10
2.66922
 20
1.51546
 30
0.0
 40
0
 41
0
  0
VERTEX
  8
0
 10
2.67665
 20
1.50239
 30
0.0
 40
0
 41
0
  0
VERTEX
  8
0
 10
2.68381
 20
1.48981
 30
0.0
 40
0
 41
0
  0
VERTEX
  8
0
 10
2.71056
 20
1.41525
 30
0.0
 40
0
 41
0
  0
VERTEX
  8
0
 10
2.72293
 20
1.32883
 30
0.0
 40
0
 41
0
  0
VERTEX
  8
0
 10
2.72293
 20
1.31022
 30
0.0
 40
0
 41
0
  0
VERTEX
  8
0
 10
2.72293
 20
1.30463
 30
0.0
 40
0
 41
0
  0
VERTEX
  8
0
 10
2.72282
 20
1.29091
 30
0.0
 40
0
 41
0
  0
VERTEX
  8
0
 10
2.715
 20
1.22
 30
0.0
 40
0
 41
0
  0
VERTEX
  8
0
 10
2.69721
 20
1.14741
 30
0.0
 40
0
 41
0
  0
VERTEX
  8
0
 10
2.69211
 20
1.13281
 30
0.0
 40
0
 41
0
  0
VERTEX
  8
0
 10
2.69211
 20
1.13265
 30
0.0
 40
0
 41
0
  0
VERTEX
  8
0
 10
2.69185
 20
1.132
 30
0.0
 40
0
 41
0
  0
VERTEX
  8
0
 10
2.69168
 20
1.13162
 30
0.0
 40
0
 41
0
  0
VERTEX
  8
0
 10
2.68571
 20
1.11469
 30
0.0
 40
0
 41
0
  0
VERTEX
  8
0
 10
2.66342
 20
1.06527
 30
0.0
 40
0
 41
0
  0
VERTEX
  8
0
 10
2.62858
 20
1.00624
 30
0.0
 40
0
 41
0
  0
VERTEX
  8
0
 10
2.58876
 20
0.955404
 30
0.0
 40
0
 41
0
  0
VERTEX
  8
0
 10
2.55701
 20
0.923178
 30
0.0
 40
0
 41
0
  0
VERTEX
  8
0
 10
2.54551
 20
0.913574
 30
0.0
 40
0
 41
0
  0
VERTEX
  8
0
 10
2.5351
 20
0.904893
 30
0.0
 40
0
 41
0
  0
VERTEX
  8
0
 10
2.50125
 20
0.881728
 30
0.0
 40
0
 41
0
  0
VERTEX
  8
0
 10
2.45742
 20
0.859538
 30
0.0
 40
0
 41
0
  0
VERTEX
  8
0
 10
2.41536
 20
0.846625
 30
0.0
 40
0
 41
0
  0
VERTEX
  8
0
 10
2.38618
 20
0.842393
 30
0.0
 40
0
 41
0
  0
VERTEX
  8
0
 10
2.37651
 20
0.842393
 30
0.0
 40
0
 41
0
  0
VERTEX
  8
0
 10
2.37408
 20
0.842393
 30
0.0
 40
0
 41
0
  0
VERTEX
  8
0
 10
2.36936
 20
0.842503
 30
0.0
 40
0
 41
0
  0
VERTEX
  8
0
 10
2.32368
 20
0.850424
 30
0.0
 40
0
 41
0
  0
VERTEX
  8
0
 10
2.31907
 20
0.851997
 30
0.0
 40
0
 41
0
  0
VERTEX
  8
0
 10
2.30854
 20
0.855686
 30
0.0
 40
0
 41
0
  0
VERTEX
  8
0
 10
2.25885
 20
0.88775
 30
0.0
 40
0
 41
0
  0
VERTEX
  8
0
 10
2.21533
 20
0.938476
 30
0.0
 40
0
 41
0
  0
VERTEX
  8
0
 10
2.2079
 20
0.951497
 30
0.0
 40
0
 41
0
  0
VERTEX
  8
0
 10
2.20068
 20
0.964139
 30
0.0
 40
0
 41
0
  0
VERTEX
  8
0
 10
2.17383
 20
1.03885
 30
0.0
 40
0
 41
0
  0
VERTEX
  8
0
 10
2.1614
 20
1.12538
 30
0.0
 40
0
 41
0
  0
VERTEX
  8
0
 10
2.16146
 20
1.14393
 30
0.0
 40
0
 41
0
  0
VERTEX
  8
0
 10
2.16146
 20
1.14903
 30
0.0
 40
0
 41
0
  0
VERTEX
  8
0
 10
2.13911
 20
1.14941
 30
0.0
 40
0
 41
0
  0
VERTEX
  8
0
 10
2.16162
 20
1.14898
 30
0.0
 40
0
 41
0
  0
VERTEX
  8
0
 10
2.16157
 20
1.14914
 30
0.0
 40
0
 41
0
  0
SEQEND
 8
0
  0
POLYLINE
  8
0
 62
     250
 66
     1
 10
0
 20
0
 30
0.0
 70
     1
 40
0
 41
0
  0
VERTEX
  8
0
 10
2.40967
 20
0.986382
 30
0.0
 40
0
 41
0
  0
VERTEX
  8
0
 10
2.42779
 20
1.03364
 30
0.0
 40
0
 41
0
  0
VERTEX
  8
0
 10
2.46907
 20
1.18045
 30
0.0
 40
0
 41
0
  0
VERTEX
  8
0
 10
2.50521
 20
1.38552
 30
0.0
 40
0
 41
0
  0
VERTEX
  8
0
 10
2.52317
 20
1.60406
 30
0.0
 40
0
 41
0
  0
VERTEX
  8
0
 10
2.52806
 20
1.77983
 30
0.0
 40
0
 41
0
  0
VERTEX
  8
0
 10
2.52806
 20
1.83838
 30
0.0
 40
0
 41
0
  0
VERTEX
  8
0
 10
2.52806
 20
1.84407
 30
0.0
 40
0
 41
0
  0
VERTEX
  8
0
 10
2.52344
 20
1.86106
 30
0.0
 40
0
 41
0
  0
VERTEX
  8
0
 10
2.51318
 20
1.87744
 30
0.0
 40
0
 41
0
  0
VERTEX
  8
0
 10
2.51036
 20
1.88015
 30
0.0
 40
0
 41
0
  0
VERTEX
  8
0
 10
2.50754
 20
1.88297
 30
0.0
 40
0
 41
0
  0
VERTEX
  8
0
 10
2.49072
 20
1.89312
 30
0.0
 40
0
 41
0
  0
VERTEX
  8
0
 10
2.47347
 20
1.89768
 30
0.0
 40
0
 41
0
  0
VERTEX
  8
0
 10
2.46772
 20
1.89768
 30
0.0
 40
0
 41
0
  0
VERTEX
  8
0
 10
0.279297
 20
1.89768
 30
0.0
 40
0
 41
0
  0
VERTEX
  8
0
 10
0.273492
 20
1.89768
 30
0.0
 40
0
 41
0
  0
VERTEX
  8
0
 10
0.256131
 20
1.89318
 30
0.0
 40
0
 41
0
  0
VERTEX
  8
0
 10
0.239312
 20
1.88314
 30
0.0
 40
0
 41
0
  0
VERTEX
  8
0
 10
0.236546
 20
1.88037
 30
0.0
 40
0
 41
0
  0
VERTEX
  8
0
 10
0.233724
 20
1.87761
 30
0.0
 40
0
 41
0
  0
VERTEX
  8
0
 10
0.223469
 20
1.86111
 30
0.0
 40
0
 41
0
  0
VERTEX
  8
0
 10
0.218858
 20
1.84412
 30
0.0
 40
0
 41
0
  0
VERTEX
  8
0
 10
0.218858
 20
1.83843
 30
0.0
 40
0
 41
0
  0
VERTEX
  8
0
 10
0.218858
 20
1.77919
 30
0.0
 40
0
 41
0
  0
VERTEX
  8
0
 10
0.225043
 20
1.6014
 30
0.0
 40
0
 41
0
  0
VERTEX
  8
0
 10
0.246203
 20
1.3775
 30
0.0
 40
0
 41
0
  0
VERTEX
  8
0
 10
0.286242
 20
1.16618
 30
0.0
 40
0
 41
0
  0
VERTEX
  8
0
 10
0.330132
 20
1.01535
 30
0.0
 40
0
 41
0
  0
VERTEX
  8
0
 10
0.349121
 20
0.966743
 30
0.0
 40
0
 41
0
  0
VERTEX
  8
0
 10
0.361436
 20
0.935113
 30
0.0
 40
0
 41
0
  0
VERTEX
  8
0
 10
0.436578
 20
0.782932
 30
0.0
 40
0
 41
0
  0
VERTEX
  8
0
 10
0.531033
 20
0.638456
 30
0.0
 40
0
 41
0
  0
VERTEX
  8
0
 10
0.553006
 20
0.610678
 30
0.0
 40
0
 41
0
  0
VERTEX
  8
0
 10
2.18946
 20
0.610678
 30
0.0
 40
0
 41
0
  0
VERTEX
  8
0
 10
2.21397
 20
0.640625
 30
0.0
 40
0
 41
0
  0
VERTEX
  8
0
 10
2.31739
 20
0.794054
 30
0.0
 40
0
 41
0
  0
VERTEX
  8
0
 10
2.39697
 20
0.95345
 30
0.0
 40
0
 41
0
  0
VERTEX
  8
0
 10
2.40967
 20
0.986382
 30
0.0
 40
0
 41
0
  0
SEQEND
 8
0
  0
POLYLINE
  8
0
 62
     250
 66
     1
 10
0
 20
0
 30
0.0
 70
     1
 40
0
 41
0
  0
VERTEX
  8
0
 10
2.75168
 20
0.50076
 30
0.0
 40
0
 41
0
  0
VERTEX
  8
0
 10
2.7494
 20
0.506347
 30
0.0
 40
0
 41
0
  0
VERTEX
  8
0
 10
2.72944
 20
0.527724
 30
0.0
 40
0
 41
0
  0
VERTEX
  8
0
 10
2.70404
 20
0.537869
 30
0.0
 40
0
 41
0
  0
VERTEX
  8
0
 10
2.69564
 20
0.537869
 30
0.0
 40
0
 41
0
  0
VERTEX
  8
0
 10
0.0604383
 20
0.537869
 30
0.0
 40
0
 41
0
  0
VERTEX
  8
0
 10
0.052029
 20
0.537869
 30
0.0
 40
0
 41
0
  0
VERTEX
  8
0
 10
0.0268554
 20
0.52794
 30
0.0
 40
0
 41
0
  0
VERTEX
  8
0
 10
0.00694444
 20
0.50689
 30
0.0
 40
0
 41
0
  0
VERTEX
  8
0
 10
0.00466581
 20
0.501303
 30
0.0
 40
0
 41
0
  0
VERTEX
  8
0
 10
0.00227865
 20
0.495822
 30
0.0
 40
0
 41
0
  0
VERTEX
  8
0
 10
0.00119358
 20
0.467176
 30
0.0
 40
0
 41
0
  0
VERTEX
  8
0
 10
0.0134006
 20
0.441026
 30
0.0
 40
0
 41
0
  0
VERTEX
  8
0
 10
0.0177408
 20
0.43674
 30
0.0
 40
0
 41
0
  0
VERTEX
  8
0
 10
0.0438368
 20
0.411404
 30
0.0
 40
0
 41
0
  0
VERTEX
  8
0
 10
0.150608
 20
0.292589
 30
0.0
 40
0
 41
0
  0
VERTEX
  8
0
 10
0.260362
 20
0.184896
 30
0.0
 40
0
 41
0
  0
VERTEX
  8
0
 10
0.288032
 20
0.165093
 30
0.0
 40
0
 41
0
  0
VERTEX
  8
0
 10
0.309896
 20
0.149631
 30
0.0
 40
0
 41
0
  0
VERTEX
  8
0
 10
0.380914
 20
0.110894
 30
0.0
 40
0
 41
0
  0
VERTEX
  8
0
 10
0.498915
 20
0.0657553
 30
0.0
 40
0
 41
0
  0
VERTEX
  8
0
 10
0.65039
 20
0.0290799
 30
0.0
 40
0
 41
0
  0
VERTEX
  8
0
 10
0.79541
 20
0.00591363
 30
0.0
 40
0
 41
0
  0
VERTEX
  8
0
 10
0.844021
 20
0.000379775
 30
0.0
 40
0
 41
0
  0
VERTEX
  8
0
 10
0.851019
 20
-5.42535e-05
 30
0.0
 40
0
 41
0
  0
VERTEX
  8
0
 10
1.90506
 20
-5.42535e-05
 30
0.0
 40
0
 41
0
  0
VERTEX
  8
0
 10
1.91374
 20
0.000651042
 30
0.0
 40
0
 41
0
  0
VERTEX
  8
0
 10
1.96143
 20
0.00743272
 30
0.0
 40
0
 41
0
  0
VERTEX
  8
0
 10
2.10385
 20
0.0335286
 30
0.0
 40
0
 41
0
  0
VERTEX
  8
0
 10
2.25261
 20
0.0721029
 30
0.0
 40
0
 41
0
  0
VERTEX
  8
0
 10
2.36865
 20
0.117242
 30
0.0
 40
0
 41
0
  0
VERTEX
  8
0
 10
2.43881
 20
0.155111
 30
0.0
 40
0
 41
0
  0
VERTEX
  8
0
 10
2.46056
 20
0.170031
 30
0.0
 40
0
 41
0
  0
VERTEX
  8
0
 10
2.48807
 20
0.189236
 30
0.0
 40
0
 41
0
  0
VERTEX
  8
0
 10
2.59918
 20
0.293457
 30
0.0
 40
0
 41
0
  0
VERTEX
  8
0
 10
2.71007
 20
0.410428
 30
0.0
 40
0
 41
0
  0
VERTEX
  8
0
 10
2.73747
 20
0.435926
 30
0.0
 40
0
 41
0
  0
VERTEX
  8
0
 10
2.74192
 20
0.440158
 30
0.0
 40
0
 41
0
  0
VERTEX
  8
0
 10
2.75478
 20
0.466308
 30
0.0
 40
0
 41
0
  0
VERTEX
  8
0
 10
2.75412
 20
0.495226
 30
0.0
 40
0
 41
0
  0
VERTEX
  8
0
 10
2.75185
 20
0.500814
 30
0.0
 40
0
 41
0
  0
VERTEX
  8
0
 10
2.75168
 20
0.50076
 30
0.0
 40
0
 41
0
  0
SEQEND
 8
0
  0
POLYLINE
  8
0
 62
     253
 66
     1
 10
0
 20
0
 30
0.0
 70
     1
 40
0
 41
0
  0
VERTEX
  8
0
 10
1.09874
 20
1.99588
 30
0.0
 40
0
 41
0
  0
VERTEX
  8
0
 10
1.07764
 20
2.01969
 30
0.0
 40
0
 41
0
  0
VERTEX
  8
0
 10
1.0057
 20
2.13232
 30
0.0
 40
0
 41
0
  0
VERTEX
  8
0
 10
0.975911
 20
2.22683
 30
0.0
 40
0
 41
0
  0
VERTEX
  8
0
 10
0.975911
 20
2.25831
 30
0.0
 40
0
 41
0
  0
VERTEX
  8
0
 10
0.975911
 20
2.2736
 30
0.0
 40
0
 41
0
  0
VERTEX
  8
0
 10
0.983344
 20
2.31933
 30
0.0
 40
0
 41
0
  0
VERTEX
  8
0
 10
1.00282
 20
2.37386
 30
0.0
 40
0
 41
0
  0
VERTEX
  8
0
 10
1.03044
 20
2.42242
 30
0.0
 40
0
 41
0
  0
VERTEX
  8
0
 10
1.05382
 20
2.45518
 30
0.0
 40
0
 41
0
  0
VERTEX
  8
0
 10
1.06223
 20
2.4656
 30
0.0
 40
0
 41
0
  0
VERTEX
  8
0
 10
1.07324
 20
2.47928
 30
0.0
 40
0
 41
0
  0
VERTEX
  8
0
 10
1.12771
 20
2.54249
 30
0.0
 40
0
 41
0
  0
VERTEX
  8
0
 10
1.17367
 20
2.60042
 30
0.0
 40
0
 41
0
  0
VERTEX
  8
0
 10
1.18039
 20
2.61143
 30
0.0
 40
0
 41
0
  0
VERTEX
  8
0
 10
1.1849
 20
2.61882
 30
0.0
 40
0
 41
0
  0
VERTEX
  8
0
 10
1.2009
 20
2.65386
 30
0.0
 40
0
 41
0
  0
VERTEX
  8
0
 10
1.2079
 20
2.68832
 30
0.0
 40
0
 41
0
  0
VERTEX
  8
0
 10
1.20795
 20
2.69536
 30
0.0
 40
0
 41
0
  0
VERTEX
  8
0
 10
1.20795
 20
2.7041
 30
0.0
 40
0
 41
0
  0
VERTEX
  8
0
 10
1.20329
 20
2.73036
 30
0.0
 40
0
 41
0
  0
VERTEX
  8
0
 10
1.18647
 20
2.773
 30
0.0
 40
0
 41
0
  0
VERTEX
  8
0
 10
1.15359
 20
2.82428
 30
0.0
 40
0
 41
0
  0
VERTEX
  8
0
 10
1.1148
 20
2.87061
 30
0.0
 40
0
 41
0
  0
VERTEX
  8
0
 10
1.1008
 20
2.88493
 30
0.0
 40
0
 41
0
  0
VERTEX
  8
0
 10
1.09673
 20
2.88906
 30
0.0
 40
0
 41
0
  0
VERTEX
  8
0
 10
1.08794
 20
2.90474
 30
0.0
 40
0
 41
0
  0
VERTEX
  8
0
 10
1.08398
 20
2.92708
 30
0.0
 40
0
 41
0
  0
VERTEX
  8
0
 10
1.08887
 20
2.94928
 30
0.0
 40
0
 41
0
  0
VERTEX
  8
0
 10
1.09836
 20
2.96457
 30
0.0
 40
0
 41
0
  0
VERTEX
  8
0
 10
1.10259
 20
2.96847
 30
0.0
 40
0
 41
0
  0
VERTEX
  8
0
 10
1.10682
 20
2.9725
 30
0.0
 40
0
 41
0
  0
VERTEX
  8
0
 10
1.12283
 20
2.98113
 30
0.0
 40
0
 41
0
  0
VERTEX
  8
0
 10
1.14567
 20
2.98503
 30
0.0
 40
0
 41
0
  0
VERTEX
  8
0
 10
1.16829
 20
2.98019
 30
0.0
 40
0
 41
0
  0
VERTEX
  8
0
 10
1.18392
 20
2.97097
 30
0.0
 40
0
 41
0
  0
VERTEX
  8
0
 10
1.18804
 20
2.96674
 30
0.0
 40
0
 41
0
  0
VERTEX
  8
0
 10
1.21213
 20
2.94217
 30
0.0
 40
0
 41
0
  0
VERTEX
  8
0
 10
1.29443
 20
2.82611
 30
0.0
 40
0
 41
0
  0
VERTEX
  8
0
 10
1.32872
 20
2.71664
 30
0.0
 40
0
 41
0
  0
VERTEX
  8
0
 10
1.32878
 20
2.69536
 30
0.0
 40
0
 41
0
  0
VERTEX
  8
0
 10
1.32872
 20
2.68044
 30
0.0
 40
0
 41
0
  0
VERTEX
  8
0
 10
1.32118
 20
2.63564
 30
0.0
 40
0
 41
0
  0
VERTEX
  8
0
 10
1.30154
 20
2.58236
 30
0.0
 40
0
 41
0
  0
VERTEX
  8
0
 10
1.27387
 20
2.53489
 30
0.0
 40
0
 41
0
  0
VERTEX
  8
0
 10
1.25049
 20
2.50282
 30
0.0
 40
0
 41
0
  0
VERTEX
  8
0
 10
1.24219
 20
2.49257
 30
0.0
 40
0
 41
0
  0
VERTEX
  8
0
 10
1.23123
 20
2.47917
 30
0.0
 40
0
 41
0
  0
VERTEX
  8
0
 10
1.17703
 20
2.41644
 30
0.0
 40
0
 41
0
  0
VERTEX
  8
0
 10
1.13129
 20
2.35792
 30
0.0
 40
0
 41
0
  0
VERTEX
  8
0
 10
1.12462
 20
2.34657
 30
0.0
 40
0
 41
0
  0
VERTEX
  8
0
 10
1.12006
 20
2.33903
 30
0.0
 40
0
 41
0
  0
VERTEX
  8
0
 10
1.10384
 20
2.30257
 30
0.0
 40
0
 41
0
  0
VERTEX
  8
0
 10
1.09673
 20
2.26594
 30
0.0
 40
0
 41
0
  0
VERTEX
  8
0
 10
1.09673
 20
2.25831
 30
0.0
 40
0
 41
0
  0
VERTEX
  8
0
 10
1.09673
 20
2.24951
 30
0.0
 40
0
 41
0
  0
VERTEX
  8
0
 10
1.10091
 20
2.2231
 30
0.0
 40
0
 41
0
  0
VERTEX
  8
0
 10
1.11578
 20
2.1811
 30
0.0
 40
0
 41
0
  0
VERTEX
  8
0
 10
1.14442
 20
2.13151
 30
0.0
 40
0
 41
0
  0
VERTEX
  8
0
 10
1.1779
 20
2.08724
 30
0.0
 40
0
 41
0
  0
VERTEX
  8
0
 10
1.1901
 20
2.0734
 30
0.0
 40
0
 41
0
  0
VERTEX
  8
0
 10
1.1939
 20
2.06913
 30
0.0
 40
0
 41
0
  0
VERTEX
  8
0
 10
1.20182
 20
2.05296
 30
0.0
 40
0
 41
0
  0
VERTEX
  8
0
 10
1.20459
 20
2.03043
 30
0.0
 40
0
 41
0
  0
VERTEX
  8
0
 10
1.19851
 20
2.00851
 30
0.0
 40
0
 41
0
  0
VERTEX
  8
0
 10
1.18826
 20
1.99365
 30
0.0
 40
0
 41
0
  0
VERTEX
  8
0
 10
1.18387
 20
1.9899
 30
0.0
 40
0
 41
0
  0
VERTEX
  8
0
 10
1.18099
 20
1.98753
 30
0.0
 40
0
 41
0
  0
VERTEX
  8
0
 10
1.15354
 20
1.97542
 30
0.0
 40
0
 41
0
  0
VERTEX
  8
0
 10
1.14442
 20
1.97542
 30
0.0
 40
0
 41
0
  0
VERTEX
  8
0
 10
1.13824
 20
1.97542
 30
0.0
 40
0
 41
0
  0
VERTEX
  8
0
 10
1.11985
 20
1.98062
 30
0.0
 40
0
 41
0
  0
VERTEX
  8
0
 10
1.10189
 20
1.99251
 30
0.0
 40
0
 41
0
  0
VERTEX
  8
0
 10
1.0989
 20
1.99588
 30
0.0
 40
0
 41
0
  0
VERTEX
  8
0
 10
1.09874
 20
1.99588
 30
0.0
 40
0
 41
0
  0
SEQEND
 8
0
  0
POLYLINE
  8
0
 62
     253
 66
     1
 10
0
 20
0
 30
0.0
 70
     1
 40
0
 41
0
  0
VERTEX
  8
0
 10
1.37023
 20
1.98253
 30
0.0
 40
0
 41
0
  0
VERTEX
  8
0
 10
1.34912
 20
2.00635
 30
0.0
 40
0
 41
0
  0
VERTEX
  8
0
 10
1.27713
 20
2.11903
 30
0.0
 40
0
 41
0
  0
VERTEX
  8
0
 10
1.2474
 20
2.21354
 30
0.0
 40
0
 41
0
  0
VERTEX
  8
0
 10
1.2474
 20
2.24501
 30
0.0
 40
0
 41
0
  0
VERTEX
  8
0
 10
1.2474
 20
2.26031
 30
0.0
 40
0
 41
0
  0
VERTEX
  8
0
 10
1.25483
 20
2.3061
 30
0.0
 40
0
 41
0
  0
VERTEX
  8
0
 10
1.27431
 20
2.36057
 30
0.0
 40
0
 41
0
  0
VERTEX
  8
0
 10
1.30187
 20
2.40913
 30
0.0
 40
0
 41
0
  0
VERTEX
  8
0
 10
1.32525
 20
2.44189
 30
0.0
 40
0
 41
0
  0
VERTEX
  8
0
 10
1.3336
 20
2.45231
 30
0.0
 40
0
 41
0
  0
VERTEX
  8
0
 10
1.34462
 20
2.46599
 30
0.0
 40
0
 41
0
  0
VERTEX
  8
0
 10
1.39908
 20
2.52914
 30
0.0
 40
0
 41
0
  0
VERTEX
  8
0
 10
1.44504
 20
2.58708
 30
0.0
 40
0
 41
0
  0
VERTEX
  8
0
 10
1.45182
 20
2.59814
 30
0.0
 40
0
 41
0
  0
VERTEX
  8
0
 10
1.45632
 20
2.60553
 30
0.0
 40
0
 41
0
  0
VERTEX
  8
0
 10
1.47233
 20
2.64057
 30
0.0
 40
0
 41
0
  0
VERTEX
  8
0
 10
1.47922
 20
2.67503
 30
0.0
 40
0
 41
0
  0
VERTEX
  8
0
 10
1.47928
 20
2.68207
 30
0.0
 40
0
 41
0
  0
VERTEX
  8
0
 10
1.47933
 20
2.69086
 30
0.0
 40
0
 41
0
  0
VERTEX
  8
0
 10
1.47467
 20
2.71712
 30
0.0
 40
0
 41
0
  0
VERTEX
  8
0
 10
1.4579
 20
2.75971
 30
0.0
 40
0
 41
0
  0
VERTEX
  8
0
 10
1.42503
 20
2.81087
 30
0.0
 40
0
 41
0
  0
VERTEX
  8
0
 10
1.38623
 20
2.85715
 30
0.0
 40
0
 41
0
  0
VERTEX
  8
0
 10
1.37223
 20
2.87147
 30
0.0
 40
0
 41
0
  0
VERTEX
  8
0
 10
1.36816
 20
2.87565
 30
0.0
 40
0
 41
0
  0
VERTEX
  8
0
 10
1.35938
 20
2.89139
 30
0.0
 40
0
 41
0
  0
VERTEX
  8
0
 10
1.35547
 20
2.91379
 30
0.0
 40
0
 41
0
  0
VERTEX
  8
0
 10
1.36035
 20
2.93599
 30
0.0
 40
0
 41
0
  0
VERTEX
  8
0
 10
1.36985
 20
2.95128
 30
0.0
 40
0
 41
0
  0
VERTEX
  8
0
 10
1.37408
 20
2.95524
 30
0.0
 40
0
 41
0
  0
VERTEX
  8
0
 10
1.37831
 20
2.95925
 30
0.0
 40
0
 41
0
  0
VERTEX
  8
0
 10
1.39432
 20
2.96789
 30
0.0
 40
0
 41
0
  0
VERTEX
  8
0
 10
1.4171
 20
2.97174
 30
0.0
 40
0
 41
0
  0
VERTEX
  8
0
 10
1.43972
 20
2.96696
 30
0.0
 40
0
 41
0
  0
VERTEX
  8
0
 10
1.45535
 20
2.95768
 30
0.0
 40
0
 41
0
  0
VERTEX
  8
0
 10
1.45947
 20
2.95344
 30
0.0
 40
0
 41
0
  0
VERTEX
  8
0
 10
1.48356
 20
2.92887
 30
0.0
 40
0
 41
0
  0
VERTEX
  8
0
 10
1.56581
 20
2.81282
 30
0.0
 40
0
 41
0
  0
VERTEX
  8
0
 10
1.60004
 20
2.70335
 30
0.0
 40
0
 41
0
  0
VERTEX
  8
0
 10
1.6001
 20
2.68207
 30
0.0
 40
0
 41
0
  0
VERTEX
  8
0
 10
1.60004
 20
2.66715
 30
0.0
 40
0
 41
0
  0
VERTEX
  8
0
 10
1.59256
 20
2.62229
 30
0.0
 40
0
 41
0
  0
VERTEX
  8
0
 10
1.57292
 20
2.56901
 30
0.0
 40
0
 41
0
  0
VERTEX
  8
0
 10
1.54525
 20
2.5216
 30
0.0
 40
0
 41
0
  0
VERTEX
  8
0
 10
1.52186
 20
2.48953
 30
0.0
 40
0
 41
0
  0
VERTEX
  8
0
 10
1.51361
 20
2.47922
 30
0.0
 40
0
 41
0
  0
VERTEX
  8
0
 10
1.50261
 20
2.46582
 30
0.0
 40
0
 41
0
  0
VERTEX
  8
0
 10
1.4484
 20
2.40315
 30
0.0
 40
0
 41
0
  0
VERTEX
  8
0
 10
1.40272
 20
2.34463
 30
0.0
 40
0
 41
0
  0
VERTEX
  8
0
 10
1.396
 20
2.33328
 30
0.0
 40
0
 41
0
  0
VERTEX
  8
0
 10
1.39144
 20
2.32574
 30
0.0
 40
0
 41
0
  0
VERTEX
  8
0
 10
1.37527
 20
2.28933
 30
0.0
 40
0
 41
0
  0
VERTEX
  8
0
 10
1.36816
 20
2.25612
 30
0.0
 40
0
 41
0
  0
VERTEX
  8
0
 10
1.36816
 20
2.24507
 30
0.0
 40
0
 41
0
  0
VERTEX
  8
0
 10
1.36816
 20
2.23628
 30
0.0
 40
0
 41
0
  0
VERTEX
  8
0
 10
1.37234
 20
2.20985
 30
0.0
 40
0
 41
0
  0
VERTEX
  8
0
 10
1.38721
 20
2.16786
 30
0.0
 40
0
 41
0
  0
VERTEX
  8
0
 10
1.41585
 20
2.11822
 30
0.0
 40
0
 41
0
  0
VERTEX
  8
0
 10
1.44928
 20
2.07394
 30
0.0
 40
0
 41
0
  0
VERTEX
  8
0
 10
1.46149
 20
2.06006
 30
0.0
 40
0
 41
0
  0
VERTEX
  8
0
 10
1.46528
 20
2.05578
 30
0.0
 40
0
 41
0
  0
VERTEX
  8
0
 10
1.47325
 20
2.03965
 30
0.0
 40
0
 41
0
  0
VERTEX
  8
0
 10
1.47607
 20
2.01714
 30
0.0
 40
0
 41
0
  0
VERTEX
  8
0
 10
1.47
 20
1.99522
 30
0.0
 40
0
 41
0
  0
VERTEX
  8
0
 10
1.45979
 20
1.98036
 30
0.0
 40
0
 41
0
  0
VERTEX
  8
0
 10
1.4554
 20
1.97661
 30
0.0
 40
0
 41
0
  0
VERTEX
  8
0
 10
1.45253
 20
1.97418
 30
0.0
 40
0
 41
0
  0
VERTEX
  8
0
 10
1.42503
 20
1.96212
 30
0.0
 40
0
 41
0
  0
VERTEX
  8
0
 10
1.4159
 20
1.96212
 30
0.0
 40
0
 41
0
  0
VERTEX
  8
0
 10
1.40961
 20
1.96212
 30
0.0
 40
0
 41
0
  0
VERTEX
  8
0
 10
1.3909
 20
1.96729
 30
0.0
 40
0
 41
0
  0
VERTEX
  8
0
 10
1.37288
 20
1.97917
 30
0.0
 40
0
 41
0
  0
VERTEX
  8
0
 10
1.36995
 20
1.98253
 30
0.0
 40
0
 41
0
  0
VERTEX
  8
0
 10
1.37023
 20
1.98253
 30
0.0
 40
0
 41
0
  0
SEQEND
 8
0
  0
POLYLINE
  8
0
 62
     253
 66
     1
 10
0
 20
0
 30
0.0
 70
     1
 40
0
 41
0
  0
VERTEX
  8
0
 10
1.66862
 20
1.98258
 30
0.0
 40
0
 41
0
  0
VERTEX
  8
0
 10
1.64757
 20
2.0064
 30
0.0
 40
0
 41
0
  0
VERTEX
  8
0
 10
1.57568
 20
2.11897
 30
0.0
 40
0
 41
0
  0
VERTEX
  8
0
 10
1.5459
 20
2.21343
 30
0.0
 40
0
 41
0
  0
VERTEX
  8
0
 10
1.5459
 20
2.2449
 30
0.0
 40
0
 41
0
  0
VERTEX
  8
0
 10
1.5459
 20
2.26019
 30
0.0
 40
0
 41
0
  0
VERTEX
  8
0
 10
1.55328
 20
2.30599
 30
0.0
 40
0
 41
0
  0
VERTEX
  8
0
 10
1.57275
 20
2.36051
 30
0.0
 40
0
 41
0
  0
VERTEX
  8
0
 10
1.60032
 20
2.40913
 30
0.0
 40
0
 41
0
  0
VERTEX
  8
0
 10
1.62375
 20
2.44189
 30
0.0
 40
0
 41
0
  0
VERTEX
  8
0
 10
1.63217
 20
2.45231
 30
0.0
 40
0
 41
0
  0
VERTEX
  8
0
 10
1.64313
 20
2.46599
 30
0.0
 40
0
 41
0
  0
VERTEX
  8
0
 10
1.69764
 20
2.52914
 30
0.0
 40
0
 41
0
  0
VERTEX
  8
0
 10
1.74365
 20
2.58708
 30
0.0
 40
0
 41
0
  0
VERTEX
  8
0
 10
1.75038
 20
2.59814
 30
0.0
 40
0
 41
0
  0
VERTEX
  8
0
 10
1.75489
 20
2.60553
 30
0.0
 40
0
 41
0
  0
VERTEX
  8
0
 10
1.77083
 20
2.64057
 30
0.0
 40
0
 41
0
  0
VERTEX
  8
0
 10
1.77783
 20
2.67503
 30
0.0
 40
0
 41
0
  0
VERTEX
  8
0
 10
1.77789
 20
2.68207
 30
0.0
 40
0
 41
0
  0
VERTEX
  8
0
 10
1.77789
 20
2.69081
 30
0.0
 40
0
 41
0
  0
VERTEX
  8
0
 10
1.77322
 20
2.71701
 30
0.0
 40
0
 41
0
  0
VERTEX
  8
0
 10
1.7564
 20
2.75965
 30
0.0
 40
0
 41
0
  0
VERTEX
  8
0
 10
1.72353
 20
2.81087
 30
0.0
 40
0
 41
0
  0
VERTEX
  8
0
 10
1.68468
 20
2.85715
 30
0.0
 40
0
 41
0
  0
VERTEX
  8
0
 10
1.67068
 20
2.87147
 30
0.0
 40
0
 41
0
  0
VERTEX
  8
0
 10
1.66661
 20
2.87565
 30
0.0
 40
0
 41
0
  0
VERTEX
  8
0
 10
1.65787
 20
2.89139
 30
0.0
 40
0
 41
0
  0
VERTEX
  8
0
 10
1.65392
 20
2.91379
 30
0.0
 40
0
 41
0
  0
VERTEX
  8
0
 10
1.65886
 20
2.93599
 30
0.0
 40
0
 41
0
  0
VERTEX
  8
0
 10
1.66829
 20
2.95128
 30
0.0
 40
0
 41
0
  0
VERTEX
  8
0
 10
1.67253
 20
2.95524
 30
0.0
 40
0
 41
0
  0
VERTEX
  8
0
 10
1.67676
 20
2.95925
 30
0.0
 40
0
 41
0
  0
VERTEX
  8
0
 10
1.69276
 20
2.96789
 30
0.0
 40
0
 41
0
  0
VERTEX
  8
0
 10
1.71556
 20
2.97174
 30
0.0
 40
0
 41
0
  0
VERTEX
  8
0
 10
1.73822
 20
2.96696
 30
0.0
 40
0
 41
0
  0
VERTEX
  8
0
 10
1.75385
 20
2.95768
 30
0.0
 40
0
 41
0
  0
VERTEX
  8
0
 10
1.75797
 20
2.95344
 30
0.0
 40
0
 41
0
  0
VERTEX
  8
0
 10
1.78201
 20
2.92887
 30
0.0
 40
0
 41
0
  0
VERTEX
  8
0
 10
1.86436
 20
2.81282
 30
0.0
 40
0
 41
0
  0
VERTEX
  8
0
 10
1.89854
 20
2.70335
 30
0.0
 40
0
 41
0
  0
VERTEX
  8
0
 10
1.8986
 20
2.68207
 30
0.0
 40
0
 41
0
  0
VERTEX
  8
0
 10
1.89854
 20
2.66715
 30
0.0
 40
0
 41
0
  0
VERTEX
  8
0
 10
1.891
 20
2.62229
 30
0.0
 40
0
 41
0
  0
VERTEX
  8
0
 10
1.87142
 20
2.56901
 30
0.0
 40
0
 41
0
  0
VERTEX
  8
0
 10
1.84381
 20
2.5216
 30
0.0
 40
0
 41
0
  0
VERTEX
  8
0
 10
1.82042
 20
2.48953
 30
0.0
 40
0
 41
0
  0
VERTEX
  8
0
 10
1.81213
 20
2.47922
 30
0.0
 40
0
 41
0
  0
VERTEX
  8
0
 10
1.80111
 20
2.46582
 30
0.0
 40
0
 41
0
  0
VERTEX
  8
0
 10
1.7469
 20
2.4031
 30
0.0
 40
0
 41
0
  0
VERTEX
  8
0
 10
1.70117
 20
2.34457
 30
0.0
 40
0
 41
0
  0
VERTEX
  8
0
 10
1.69444
 20
2.33322
 30
0.0
 40
0
 41
0
  0
VERTEX
  8
0
 10
1.68989
 20
2.32568
 30
0.0
 40
0
 41
0
  0
VERTEX
  8
0
 10
1.67378
 20
2.28928
 30
0.0
 40
0
 41
0
  0
VERTEX
  8
0
 10
1.66661
 20
2.25261
 30
0.0
 40
0
 41
0
  0
VERTEX
  8
0
 10
1.66661
 20
2.2449
 30
0.0
 40
0
 41
0
  0
VERTEX
  8
0
 10
1.66661
 20
2.23611
 30
0.0
 40
0
 41
0
  0
VERTEX
  8
0
 10
1.67085
 20
2.20975
 30
0.0
 40
0
 41
0
  0
VERTEX
  8
0
 10
1.68565
 20
2.16781
 30
0.0
 40
0
 41
0
  0
VERTEX
  8
0
 10
1.71431
 20
2.11822
 30
0.0
 40
0
 41
0
  0
VERTEX
  8
0
 10
1.74778
 20
2.07389
 30
0.0
 40
0
 41
0
  0
VERTEX
  8
0
 10
1.75999
 20
2.06
 30
0.0
 40
0
 41
0
  0
VERTEX
  8
0
 10
1.76378
 20
2.05572
 30
0.0
 40
0
 41
0
  0
VERTEX
  8
0
 10
1.77175
 20
2.03961
 30
0.0
 40
0
 41
0
  0
VERTEX
  8
0
 10
1.77458
 20
2.01708
 30
0.0
 40
0
 41
0
  0
VERTEX
  8
0
 10
1.7685
 20
1.99517
 30
0.0
 40
0
 41
0
  0
VERTEX
  8
0
 10
1.75825
 20
1.98031
 30
0.0
 40
0
 41
0
  0
VERTEX
  8
0
 10
1.75385
 20
1.97657
 30
0.0
 40
0
 41
0
  0
VERTEX
  8
0
 10
1.75097
 20
1.97412
 30
0.0
 40
0
 41
0
  0
VERTEX
  8
0
 10
1.72347
 20
1.96212
 30
0.0
 40
0
 41
0
  0
VERTEX
  8
0
 10
1.71436
 20
1.96212
 30
0.0
 40
0
 41
0
  0
VERTEX
  8
0
 10
1.70817
 20
1.96212
 30
0.0
 40
0
 41
0
  0
VERTEX
  8
0
 10
1.68961
 20
1.96733
 30
0.0
 40
0
 41
0
  0
VERTEX
  8
0
 10
1.6716
 20
1.97922
 30
0.0
 40
0
 41
0
  0
VERTEX
  8
0
 10
1.66862
 20
1.98258
 30
0.0
 40
0
 41
0
  0
SEQEND
 8
0
  0
ENDSEC
  0
EOF
