<?xml version="1.0" standalone="no"?>
<!DOCTYPE svg PUBLIC "-//W3C//DTD SVG 1.1//EN"
"http://www.w3.org/Graphics/SVG/1.1/DTD/svg11.dtd">
<svg width="166.65mm" height="71.5mm" viewBox="-23.575 64.25 166.65 71.5" xmlns="http://www.w3.org/2000/svg" version = "1.1">
<title>Untitled</title>
<desc> made with 123D Design </desc>
<path d="M 1.31048 89.0945 L 3.39919 89.5384 L 3.54925 89.6052 L 5.5 90.4737 L 5.63289 90.5702 L 7.36044 91.8254 L 8.78928 93.4123 L 8.89919 93.5344 L 9.96687 95.3837 L 10.049 95.5259 L 10.7088 97.5568 L 10.7596 97.713 L 10.8105 98.1966 L 10.8144 98.2338 L 10.9772 99.7826 L 11 100 L 10.831 101.608 L 10.8188 101.724 L 10.8146 101.764 L 10.7596 102.287 L 10.0998 104.318 L 10.049 104.474 L 8.98132 106.324 L 8.89919 106.466 L 7.47035 108.053 L 7.36044 108.175 L 7.22755 108.272 L 5.5 109.526 L 5.34994 109.593 L 3.39919 110.462 L 3.23852 110.496 L 1.14981 110.94 L 0.985551 110.94 L -1.14981 110.94 L -1.31048 110.906 L -3.39919 110.462 L -3.54925 110.395 L -5.5 109.526 L -5.63289 109.43 L -7.36044 108.175 L -8.78928 106.588 L -8.89919 106.466 L -9.96687 104.616 L -10.049 104.474 L -10.7088 102.443 L -10.7596 102.287 L -10.9828 100.163 L -11 100 L -10.7768 97.8764 L -10.7596 97.713 L -10.0998 95.6821 L -10.049 95.5259 L -8.98132 93.6767 L -8.89919 93.5344 L -7.47035 91.9475 L -7.36044 91.8254 L -7.22755 91.7288 L -5.5 90.4737 L -5.34994 90.4069 L -3.39919 89.5384 L -3.23852 89.5043 L -1.14981 89.0603 L -0.985551 89.0603 L 1.14981 89.0603 z  M 134.327 71.6087 L 134.167 71.7863 L 129.752 79.4338 L 129.15 80.4766 L 126.421 88.875 L 126.049 90.0202 L 125.126 98.8024 L 125 100 L 125.923 108.782 L 126.049 109.98 L 128.778 118.378 L 129.15 119.523 L 133.565 127.171 L 134.167 128.214 L 135.34 129.516 L 135.5 129.694 L 135.5 132.163 L 135.5 132.5 L 135.161 132.5 L 132.674 132.5 L 131.14 130.797 L 130.931 130.565 L 126.148 122.28 L 125.496 121.15 L 122.539 112.052 L 122.136 110.811 L 121.964 109.176 L 121.921 108.762 L 121.844 108.029 L 121.078 100.74 L 121.018 100.17 L 121 100 L 121.051 99.5142 L 121.798 92.4054 L 121.886 91.5701 L 121.947 90.9891 L 121.974 90.733 L 122.136 89.1886 L 125.093 80.0904 L 125.496 78.8497 L 130.279 70.5649 L 130.931 69.4352 L 132.465 67.7322 L 132.674 67.5 L 133.013 67.5 L 135.5 67.5 L 135.5 69.9694 L 135.5 70.3061 z  M -14.6167 106.508 L -14.6905 106.281 L -15.6504 103.327 L -15.6754 103.089 L -16 100 L -15.975 99.7624 L -15.6504 96.6734 L -15.5766 96.4462 L -14.6167 93.4922 L -14.4972 93.2853 L -12.9443 90.5954 L -12.7844 90.4179 L -10.7061 88.1097 L -8.19329 86.284 L -8 86.1436 L -5.16254 84.8803 L -4.94427 84.7831 L -1.90615 84.1373 L -1.67245 84.0876 L 1.43353 84.0876 L 1.67245 84.0876 L 4.71057 84.7334 L 4.94427 84.7831 L 7.78173 86.0464 L 8 86.1436 L 10.5128 87.9693 L 10.7061 88.1097 L 10.866 88.2872 L 12.9443 90.5954 L 13.0638 90.8023 L 14.6167 93.4922 L 14.7123 93.7866 L 14.7844 94.0082 L 14.9657 94.5661 L 15.6504 96.6734 L 15.671 96.8696 L 15.7382 97.5094 L 29.6372 97.5094 L 35.0992 97.5094 L 60.0178 97.5094 L 60.4453 97.0269 L 60.4638 97.006 L 60.7158 96.7216 L 60.7277 96.7081 L 60.7927 96.6834 L 62.2883 96.1162 L 62.3078 96.1088 L 62.5179 96.0292 L 62.7043 96.0518 L 63.0238 96.0906 L 64.4184 96.2599 L 64.7477 96.4872 L 64.9102 96.5994 L 65.994 97.3475 L 66.2158 97.7701 L 66.8009 98.8848 L 66.8838 99.0427 L 66.8838 99.549 L 66.8838 100.79 L 66.8838 100.957 L 66.3005 102.068 L 66.059 102.528 L 65.994 102.652 L 64.9089 103.401 L 64.4994 103.684 L 64.4184 103.74 L 63.3382 103.871 L 63 103.912 L 62.6334 103.957 L 62.5179 103.971 L 61.4427 103.563 L 61.3866 103.542 L 60.7547 103.302 L 60.7277 103.292 L 60.0535 102.531 L 50.811 102.531 L 48.9886 102.531 L 15.734 102.531 L 15.6504 103.327 L 15.6291 103.393 L 14.9103 105.604 L 14.8374 105.829 L 14.7331 106.15 L 14.6167 106.508 L 14.4972 106.715 L 12.9443 109.405 L 12.7844 109.583 L 10.7061 111.89 L 8.19329 113.716 L 8 113.856 L 5.16254 115.12 L 4.94427 115.217 L 1.90615 115.862 L 1.67245 115.912 L -1.43353 115.912 L -1.67245 115.912 L -4.71057 115.267 L -4.94427 115.217 L -7.78173 113.953 L -8 113.856 L -10.5128 112.03 L -10.7061 111.89 L -10.866 111.713 L -12.9443 109.405 L -13.0638 109.198 z  " fill= "none" stroke="rgb(0,0,255)" stroke-width="0.05mm" />
</svg>
