<?xml version="1.0" standalone="no"?>
<!DOCTYPE svg PUBLIC "-//W3C//DTD SVG 1.1//EN"
"http://www.w3.org/Graphics/SVG/1.1/DTD/svg11.dtd">
<svg width="222.535mm" height="108.256mm" viewBox="-215.894 20.9154 222.535 108.256" xmlns="http://www.w3.org/2000/svg" version = "1.1">
<title>Untitled</title>
<desc> made with 123D Design </desc>
<path d="M -126.5 56.6173 L -146.794 27.6342 L -144.949 26.2537 L -144.391 25.8362 L -135.799 38.107 L -109.976 74.9853 L -111.629 76.2762 L -112.344 76.8348 L -118.729 67.7155 L -120.177 65.6475 L -185.665 111.503 L -203.484 123.98 L -204.181 124.193 L -204.371 124.251 L -205.061 124.014 L -205.248 123.949 L -205.362 123.787 L -205.779 123.19 L -205.776 122.992 L -205.763 122.263 L -205.644 122.105 L -205.205 121.523 L -139.717 75.6675 L -121.898 63.19 z  M -49.0879 84.8441 L -41.4878 79.5225 L -17.2197 114.181 L -10.6162 123.612 L -10.4579 123.731 L -9.87583 124.17 L -9.67756 124.173 L -8.94893 124.186 L -8.78649 124.072 L -8.18953 123.654 L -7.95228 122.965 L -7.88773 122.778 L -8.10084 122.081 L -8.15883 121.891 L -32.4269 87.2326 L -39.0304 77.8018 L -32.4578 73.1995 L -3.47453 52.9053 L -4.73633 50.9771 L -5.11803 50.3938 L -17.3888 58.9859 L -54.2671 84.8083 L -53.8974 85.4 L -52.6752 87.356 z  " fill= "none" stroke="rgb(0,0,255)" stroke-width="0.05mm" />
</svg>
