<?xml version="1.0" standalone="no"?>
<!DOCTYPE svg PUBLIC "-//W3C//DTD SVG 1.1//EN"
"http://www.w3.org/Graphics/SVG/1.1/DTD/svg11.dtd">
<svg width="157.652mm" height="87.5486mm" viewBox="-153.96 3.78689 157.652 87.5486" xmlns="http://www.w3.org/2000/svg" version = "1.1">
<title>Untitled</title>
<desc> made with 123D Design </desc>
<path d="M -69.976 47.3763 L -69.9771 47.3774 L -70.1968 47.6154 L -70.1969 47.6155 L -70.2324 47.654 L -70.2325 47.6541 L -70.2691 47.6922 L -70.2701 47.6933 L -70.4966 47.9296 L -92.4821 46.0061 L -92.5808 45.9975 L -92.5816 45.9963 L -92.7423 45.7474 L -92.7423 45.7473 L -92.7694 45.7053 L -92.7701 45.7041 L -92.9254 45.4537 L -92.9254 45.4536 L -92.9516 45.4114 L -92.9523 45.4102 L -93.1021 45.1583 L -93.1022 45.1582 L -93.1274 45.1157 L -93.1281 45.1145 L -93.2726 44.8612 L -93.2727 44.8611 L -93.2969 44.8183 L -93.2976 44.8171 L -93.4369 44.5622 L -93.4369 44.5621 L -93.4603 44.5191 L -93.4609 44.5179 L -93.595 44.2616 L -93.595 44.2615 L -93.6175 44.2182 L -93.6181 44.2169 L -93.747 43.9591 L -93.747 43.959 L -93.7686 43.9155 L -93.7692 43.9142 L -93.893 43.6548 L -93.893 43.6547 L -93.9137 43.6109 L -93.9143 43.6095 L -94.0413 43.3299 L -94.0414 43.3298 L -94.0611 43.2857 L -94.0617 43.2843 L -94.1831 43.0028 L -94.1831 43.0027 L -94.202 42.9584 L -94.2026 42.957 L -94.3182 42.6738 L -94.3183 42.6737 L -94.3363 42.6291 L -94.3368 42.6277 L -94.4469 42.3427 L -94.4469 42.3426 L -94.4641 42.2977 L -94.4646 42.2963 L -94.5691 42.0095 L -94.5691 42.0094 L -94.5855 41.9642 L -94.586 41.9628 L -94.685 41.6742 L -94.685 41.6741 L -94.7005 41.6287 L -94.701 41.6273 L -94.7946 41.3368 L -94.7946 41.3367 L -94.8093 41.291 L -94.8095 41.2902 L -94.8551 41.1392 L -94.8554 41.1384 L -94.9119 40.9512 L -94.9122 40.95 L -94.9835 40.6997 L -94.9835 40.6996 L -94.9969 40.6524 L -94.9972 40.6512 L -95.0648 40.3996 L -95.0648 40.3995 L -95.0774 40.352 L -95.0777 40.3508 L -95.1417 40.098 L -95.1417 40.0979 L -95.1535 40.0501 L -95.1538 40.0489 L -95.2142 39.7949 L -95.2143 39.7948 L -95.2253 39.7467 L -95.2256 39.7455 L -95.2825 39.4902 L -95.2825 39.4901 L -95.2928 39.4418 L -95.293 39.4406 L -95.3465 39.184 L -95.3465 39.1839 L -95.356 39.1354 L -95.3562 39.1341 L -95.4063 38.8763 L -95.4065 38.875 L -95.4532 38.6159 L -95.4533 38.6158 L -95.462 38.5669 L -95.4623 38.5656 L -95.5076 38.2935 L -95.5076 38.2934 L -95.5156 38.2443 L -95.5158 38.243 L -95.5576 37.9694 L -95.5576 37.9693 L -95.565 37.9198 L -95.5652 37.9185 L -95.6035 37.6435 L -95.6035 37.6434 L -95.6102 37.5937 L -95.6104 37.5924 L -95.6453 37.3159 L -95.6453 37.3158 L -95.6513 37.2657 L -95.6515 37.2644 L -95.6831 36.9864 L -95.6831 36.9863 L -95.6884 36.9359 L -95.6886 36.9346 L -95.7169 36.6551 L -95.7169 36.655 L -95.7216 36.6043 L -95.7218 36.603 L -95.7469 36.322 L -95.7469 36.3218 L -95.751 36.2708 L -95.7511 36.2695 L -95.7731 35.987 L -95.7731 35.9868 L -95.7766 35.9356 L -95.7767 35.9342 L -95.7956 35.65 L -95.7957 35.6486 L -95.8116 35.3629 L -95.8116 35.3627 L -95.8145 35.3112 L -95.8146 35.3098 L -95.8276 35.0225 L -95.8276 35.0224 L -95.8298 34.9705 L -95.8299 34.9691 L -95.84 34.6801 L -95.84 34.68 L -95.8417 34.6278 L -95.8418 34.6264 L -95.8491 34.3358 L -95.8491 34.3357 L -95.8502 34.2831 L -95.8502 34.2817 L -95.8548 33.9895 L -95.8548 33.9894 L -95.8554 33.9365 L -95.8554 33.9351 L -95.8573 33.6412 L -95.8573 33.6411 L -95.8574 33.5878 L -95.8574 33.5864 L -95.8566 33.2908 L -95.8566 33.2907 L -95.8562 33.2371 L -95.8562 33.2358 L -95.8531 32.9512 L -95.8531 32.9511 L -95.8521 32.8971 L -95.8521 32.8958 L -95.8467 32.6097 L -95.8467 32.6083 L -95.8391 32.3206 L -95.8391 32.3204 L -95.8376 32.2662 L -95.8376 32.2648 L -95.8278 31.9755 L -95.8278 31.9753 L -95.8259 31.9208 L -95.8258 31.9193 L -95.8134 31.6154 L -95.8134 31.6153 L -95.811 31.5603 L -95.8109 31.5588 L -95.7962 31.2532 L -95.7962 31.2531 L -95.7934 31.1977 L -95.7933 31.1962 L -95.7764 30.8888 L -95.7764 30.8887 L -95.7732 30.8329 L -95.7731 30.8314 L -95.7541 30.5222 L -95.7541 30.5221 L -95.7504 30.466 L -95.7503 30.4645 L -95.7292 30.1534 L -95.7292 30.1533 L -95.7252 30.0968 L -95.725 30.0953 L -95.702 29.7824 L -95.702 29.7823 L -95.6975 29.7256 L -95.6974 29.724 L -95.6725 29.4093 L -95.6725 29.4091 L -95.6676 29.3519 L -95.6675 29.3503 L -95.6407 29.0338 L -95.6406 29.0334 L -95.6292 28.9527 L -95.6291 28.9523 L -95.6094 28.8735 L -95.6093 28.8731 L -95.5816 28.7967 L -95.5814 28.7963 L -95.546 28.7231 L -95.5458 28.7228 L -95.5064 28.6584 L -95.5062 28.6581 L -95.4608 28.5976 L -95.4605 28.5973 L -95.4093 28.541 L -95.3525 28.4896 L -95.3523 28.4894 L -95.2861 28.4405 L -95.2858 28.4403 L -95.2151 28.3985 L -95.2148 28.3983 L -95.1401 28.3637 L -95.1398 28.3636 L -95.062 28.3367 L -95.0616 28.3366 L -94.9872 28.3184 L -94.9869 28.3184 L -94.9108 28.3071 L -94.9105 28.3071 L -94.8335 28.303 L -94.8331 28.303 L -94.7557 28.3061 L -94.7553 28.3061 L -65.3541 30.8783 L -65.2221 30.8899 L -65.1395 30.9014 L -65.1391 30.9015 L -65.0585 30.9212 L -65.0581 30.9213 L -64.9802 30.9489 L -64.9798 30.9491 L -64.9053 30.9842 L -64.9049 30.9844 L -64.8394 31.0233 L -64.8391 31.0235 L -64.7775 31.0684 L -64.7772 31.0686 L -64.7199 31.1191 L -64.7196 31.1194 L -64.7194 31.1196 L -64.667 31.1756 L -64.6668 31.1759 L -64.6163 31.241 L -64.6161 31.2413 L -64.573 31.3111 L -64.5729 31.3114 L -64.5372 31.3849 L -64.5371 31.3852 L -64.5093 31.4619 L -64.5092 31.4622 L -64.4907 31.5349 L -64.4907 31.5352 L -64.4791 31.6094 L -64.4791 31.6097 L -64.4746 31.6847 L -64.4746 31.685 L -64.4775 31.7603 L -64.4777 31.7622 L -64.5131 32.1552 L -64.5132 32.1553 L -64.5186 32.2166 L -64.5186 32.2167 L -64.5244 32.2775 L -64.5246 32.2792 L -64.5584 32.6349 L -64.3703 32.6641 L -64.3694 32.6643 L -64.1822 32.7003 L -64.1813 32.7005 L -63.9951 32.7435 L -63.9942 32.7437 L -63.8093 32.7935 L -63.8084 32.7938 L -63.6325 32.8481 L -63.6317 32.8484 L -63.4576 32.9091 L -63.4568 32.9094 L -63.2845 32.9764 L -63.2837 32.9767 L -63.1138 33.05 L -63.113 33.0504 L -63.0054 33.1005 L -63.0049 33.1008 L -62.8993 33.1528 L -62.8988 33.1531 L -62.7952 33.2072 L -62.7947 33.2075 L -62.693 33.2636 L -62.6925 33.2639 L -62.5927 33.322 L -62.5922 33.3223 L -62.4943 33.3822 L -62.4938 33.3825 L -62.3979 33.4444 L -62.3974 33.4447 L -62.3033 33.5083 L -62.3028 33.5086 L -62.2106 33.574 L -62.2102 33.5743 L -62.1199 33.6415 L -62.1195 33.6418 L -62.0311 33.7106 L -62.0307 33.7109 L -61.9443 33.7813 L -61.9439 33.7817 L -61.8593 33.8538 L -61.8589 33.8542 L -61.7762 33.9278 L -61.7758 33.9282 L -61.695 34.0033 L -61.6946 34.0037 L -61.6156 34.0803 L -61.6152 34.0807 L -61.6148 34.0811 L -61.5264 34.1711 L -61.526 34.1715 L -61.44 34.2633 L -61.4397 34.2637 L -61.3561 34.3572 L -61.3558 34.3576 L -61.2746 34.4529 L -61.2743 34.4533 L -61.1956 34.5503 L -61.1953 34.5507 L -61.1191 34.6493 L -61.1188 34.6497 L -61.0451 34.7498 L -61.0448 34.7502 L -60.9735 34.8517 L -60.9732 34.8521 L -60.9043 34.9551 L -60.904 34.9555 L -60.8375 35.0598 L -60.8372 35.0602 L -60.7732 35.1658 L -60.7729 35.1662 L -60.7114 35.273 L -60.7112 35.2735 L -60.6519 35.3814 L -60.6517 35.3819 L -60.5948 35.4909 L -60.5946 35.4914 L -60.5402 35.6014 L -60.54 35.6019 L -60.4879 35.7128 L -60.4875 35.7136 L -60.4022 35.9097 L -60.4019 35.9106 L -60.3232 36.1098 L -60.3229 36.1107 L -60.2508 36.3131 L -60.2505 36.314 L -60.1849 36.5193 L -60.1847 36.5202 L -60.1257 36.7283 L -60.1255 36.7292 L -60.0729 36.94 L -60.0727 36.9409 L -60.0268 37.1542 L -60.0267 37.1551 L -59.9871 37.3707 L -59.987 37.3718 L -59.9507 37.6128 L -59.9506 37.6139 L -59.9223 37.8573 L -59.9222 37.8584 L -59.9017 38.1042 L -59.9017 38.1053 L -59.889 38.3532 L -59.889 38.3543 L -59.8841 38.6041 L -59.8841 38.6052 L -59.8869 38.8567 L -59.887 38.8578 L -59.8975 39.1108 L -59.8975 39.1108 L -59.8977 39.1152 L -59.8978 39.1157 L -59.9057 39.2276 L -59.9058 39.2282 L -59.9158 39.3663 L -59.9159 39.3666 L -59.9224 39.4422 L -59.9225 39.443 L -59.9424 39.6245 L -59.9425 39.6253 L -59.9663 39.8072 L -59.9664 39.808 L -59.9941 39.9904 L -59.9943 39.9912 L -60.0259 40.174 L -60.0261 40.1748 L -60.0617 40.3579 L -60.0619 40.3587 L -60.1016 40.542 L -60.1018 40.5428 L -60.1454 40.7263 L -60.1456 40.7271 L -60.1933 40.9107 L -60.1936 40.9115 L -60.2441 41.0909 L -60.2444 41.0917 L -60.2988 41.2711 L -60.2991 41.2719 L -60.3574 41.4512 L -60.3577 41.452 L -60.42 41.6311 L -60.4203 41.6319 L -60.4866 41.8108 L -60.4869 41.8116 L -60.5571 41.9902 L -60.5575 41.991 L -60.6317 42.1691 L -60.6321 42.1699 L -60.7103 42.3476 L -60.7103 42.3476 L -60.7149 42.3579 L -60.7149 42.3579 L -60.7177 42.3624 L -60.718 42.363 L -60.7859 42.5085 L -60.7862 42.5091 L -60.8561 42.6527 L -60.8565 42.6533 L -60.9284 42.7953 L -60.9288 42.7959 L -61.0028 42.9361 L -61.0032 42.9367 L -61.0791 43.075 L -61.0795 43.0756 L -61.1574 43.2122 L -61.1578 43.2128 L -61.2376 43.3475 L -61.238 43.3481 L -61.3198 43.481 L -61.3202 43.4816 L -61.4038 43.6126 L -61.4042 43.6131 L -61.4897 43.7423 L -61.4901 43.7428 L -61.5774 43.8701 L -61.5778 43.8706 L -61.667 43.9959 L -61.6674 43.9964 L -61.7583 44.1198 L -61.7587 44.1203 L -61.8513 44.2416 L -61.8517 44.2421 L -61.9461 44.3615 L -61.9466 44.362 L -62.0426 44.4794 L -62.043 44.4799 L -62.135 44.5886 L -62.1354 44.589 L -62.2289 44.696 L -62.2294 44.6964 L -62.3242 44.8015 L -62.3247 44.8019 L -62.421 44.9051 L -62.4215 44.9055 L -62.5191 45.0069 L -62.5196 45.0073 L -62.6186 45.1067 L -62.719 45.2042 L -62.7194 45.2047 L -62.8212 45.3001 L -62.8216 45.3006 L -62.9246 45.3942 L -62.925 45.3946 L -63.0293 45.4863 L -63.0297 45.4867 L -63.1352 45.5763 L -63.1356 45.5767 L -63.2423 45.6643 L -63.2428 45.6647 L -63.3507 45.7503 L -63.3512 45.7507 L -63.4602 45.8342 L -63.4607 45.8346 L -63.5709 45.9161 L -63.5714 45.9165 L -63.6827 45.9959 L -63.6832 45.9963 L -63.8093 46.0823 L -63.8098 46.0827 L -63.9377 46.1663 L -63.9382 46.1667 L -64.0675 46.2476 L -64.0681 46.248 L -64.199 46.3262 L -64.1996 46.3266 L -64.3321 46.4021 L -64.3327 46.4025 L -64.4667 46.4752 L -64.4673 46.4756 L -64.6028 46.5453 L -64.6034 46.5457 L -64.7402 46.6126 L -64.7408 46.6129 L -64.8791 46.6768 L -64.8797 46.6771 L -65.0192 46.7378 L -65.0198 46.7381 L -65.1607 46.7957 L -65.1613 46.796 L -65.3034 46.8504 L -65.304 46.8507 L -65.4473 46.9018 L -65.4479 46.9021 L -65.5923 46.9499 L -65.5929 46.9501 L -65.7385 46.9944 L -65.7391 46.9946 L -65.8857 47.0355 L -65.8863 47.0357 L -66.0078 47.0666 L -66.0083 47.0668 L -66.1304 47.0953 L -66.1309 47.0955 L -66.2537 47.1214 L -66.2542 47.1216 L -66.3775 47.1452 L -66.378 47.1453 L -66.502 47.1662 L -66.5025 47.1663 L -66.6271 47.1846 L -66.6276 47.1847 L -66.7527 47.2004 L -66.7532 47.2005 L -66.8788 47.2135 L -66.8793 47.2136 L -67.0054 47.2239 L -67.0059 47.224 L -67.1325 47.2315 L -67.133 47.2316 L -67.26 47.2363 L -67.2605 47.2364 L -67.3879 47.2384 L -67.3884 47.2384 L -67.5163 47.2375 L -67.5168 47.2375 L -67.645 47.2337 L -67.6455 47.2337 L -67.7741 47.2269 L -67.7746 47.2269 L -67.9035 47.2171 L -67.904 47.2171 L -67.9107 47.2165 L -67.9107 47.2165 L -67.917 47.2158 L -67.917 47.2158 L -67.9278 47.2147 L -67.9278 47.2147 L -67.936 47.2143 L -67.936 47.2143 L -67.9487 47.2132 L -67.9487 47.2132 L -68.1498 47.1899 L -68.1507 47.1898 L -68.3511 47.1586 L -68.352 47.1585 L -68.5514 47.1196 L -68.5523 47.1195 L -68.7503 47.0729 L -68.7512 47.0727 L -68.9387 47.0209 L -68.9395 47.0207 L -69.1252 46.9618 L -69.126 46.9616 L -69.3097 46.8957 L -69.3105 46.8954 L -69.4918 46.8224 L -69.4926 46.8221 L -69.4936 46.8232 L -69.6971 47.0611 L -69.6972 47.0612 L -69.7306 47.1003 L -69.7316 47.1014 L -69.9415 47.3374 L -69.9416 47.3375 z  M -82.7331 23.1326 L -82.643 23.0205 L -82.6426 23.02 L -82.5466 22.9076 L -82.5462 22.9071 L -82.4449 22.7942 L -82.4445 22.7937 L -82.3614 22.7048 L -82.361 22.7044 L -82.2752 22.6148 L -82.2748 22.6144 L -82.1865 22.5238 L -82.1861 22.5234 L -82.0954 22.4328 L -82.095 22.4324 L -82.0942 22.4315 L -81.9071 22.2484 L -81.9063 22.2475 L -81.713 22.0604 L -81.7119 22.0593 L -81.4604 21.8154 L -81.4595 21.8145 L -81.2593 21.6184 L -81.0592 21.4163 L -81.0583 21.4154 L -80.9392 21.2899 L -80.9386 21.2894 L -80.82 21.1599 L -80.8195 21.1594 L -80.7022 21.027 L -80.7017 21.0264 L -80.5865 20.889 L -80.5859 20.8884 L -80.5072 20.7898 L -80.5068 20.7894 L -80.4298 20.6878 L -80.4294 20.6874 L -80.3225 20.539 L -80.322 20.5384 L -80.2199 20.3851 L -80.2195 20.3844 L -80.123 20.2251 L -80.1225 20.2244 L -80.0325 20.0611 L -80.0321 20.0604 L -79.9897 19.9757 L -79.9895 19.9754 L -79.949 19.8897 L -79.9488 19.8894 L -79.9103 19.8028 L -79.9102 19.8024 L -79.8738 19.7138 L -79.8737 19.7134 L -79.8395 19.6228 L -79.8393 19.6224 L -79.8075 19.5308 L -79.8073 19.5304 L -79.7779 19.4378 L -79.7778 19.4374 L -79.7508 19.3418 L -79.7507 19.3414 L -79.7174 19.207 L -79.7173 19.2064 L -79.6894 19.068 L -79.6893 19.0674 L -79.667 18.926 L -79.6669 18.9254 L -79.6505 18.78 L -79.6505 18.7794 L -79.6435 18.6808 L -79.6435 18.6804 L -79.6394 18.5808 L -79.6394 18.5804 L -79.6384 18.4808 L -79.6384 18.4804 L -79.6403 18.3798 L -79.6403 18.3794 L -79.6452 18.2778 L -79.6452 18.2774 L -79.6531 18.1768 L -79.6531 18.1764 L -79.664 18.0738 L -79.6641 18.0734 L -79.678 17.9708 L -79.678 17.9704 L -79.695 17.8668 L -79.6951 17.8664 L -79.7151 17.7628 L -79.7152 17.7624 L -79.7383 17.6578 L -79.7384 17.6574 L -79.7646 17.5528 L -79.7647 17.5524 L -79.794 17.4468 L -79.7941 17.4464 L -79.8265 17.3398 L -79.8267 17.3394 L -79.8622 17.2319 L -79.8624 17.2314 L -79.901 17.1238 L -79.9012 17.1234 L -79.9505 16.9969 L -79.9507 16.9964 L -80.0043 16.8679 L -80.0045 16.8674 L -80.0625 16.7389 L -80.0627 16.7384 L -80.1251 16.608 L -80.1254 16.6074 L -80.1921 16.4769 L -80.1924 16.4764 L -80.2636 16.344 L -80.2639 16.3434 L -80.3396 16.21 L -80.3399 16.2094 L -80.4201 16.075 L -80.4204 16.0744 L -80.5051 15.939 L -80.5054 15.9384 L -80.5946 15.802 L -80.595 15.8014 L -80.6887 15.663 L -80.6892 15.6624 L -80.7875 15.523 L -80.7879 15.5224 L -80.8908 15.382 L -80.8913 15.3814 L -80.9988 15.24 L -80.9993 15.2394 L -81.1115 15.096 L -81.112 15.0954 L -81.2288 14.952 L -81.2293 14.9514 L -81.2792 14.8956 L -81.2794 14.8954 L -81.2797 14.8951 L -81.3335 14.8454 L -81.3338 14.8452 L -81.3912 14.8004 L -81.3914 14.8002 L -81.4519 14.7614 L -81.4522 14.7612 L -81.5154 14.7284 L -81.5157 14.7282 L -81.5812 14.7014 L -81.5815 14.7013 L -81.6489 14.6794 L -81.6492 14.6793 L -81.7179 14.6644 L -81.7183 14.6643 L -81.8035 14.6524 L -81.8039 14.6524 L -81.8898 14.6504 L -81.8901 14.6504 L -81.976 14.6574 L -81.9762 14.6574 L -82.0189 14.6634 L -82.0191 14.6634 L -82.0615 14.6724 L -82.0617 14.6724 L -82.1037 14.6844 L -82.1039 14.6844 L -82.1454 14.6974 L -82.1456 14.6974 L -82.1865 14.7134 L -82.1867 14.7134 L -82.227 14.7314 L -82.2272 14.7315 L -82.2667 14.7514 L -82.2669 14.7515 L -82.3056 14.7744 L -82.3057 14.7745 L -82.3434 14.7994 L -82.3436 14.7995 L -82.3803 14.8264 L -82.3805 14.8266 L -82.4374 14.8754 L -82.4885 14.9291 L -82.4888 14.9294 L -82.534 14.9861 L -82.5342 14.9864 L -82.5736 15.0461 L -82.5738 15.0464 L -82.6073 15.1091 L -82.6074 15.1094 L -82.6349 15.1741 L -82.635 15.1744 L -82.6564 15.2411 L -82.6565 15.2414 L -82.6719 15.3101 L -82.672 15.3104 L -82.6823 15.393 L -82.6824 15.3934 L -82.6839 15.476 L -82.6839 15.4764 L -82.6766 15.56 L -82.6765 15.5604 L -82.6695 15.6022 L -82.6695 15.6024 L -82.6602 15.6432 L -82.6602 15.6434 L -82.6486 15.6842 L -82.6486 15.6844 L -82.6348 15.7252 L -82.6347 15.7254 L -82.6186 15.7652 L -82.6186 15.7654 L -82.6002 15.8042 L -82.6001 15.8044 L -82.5795 15.8422 L -82.5794 15.8424 L -82.5564 15.8802 L -82.5563 15.8804 L -82.531 15.9172 L -82.5309 15.9174 L -82.5033 15.9532 L -82.5032 15.9534 L -82.4487 16.0201 L -82.4484 16.0204 L -82.3965 16.0851 L -82.3962 16.0854 L -82.3882 16.0953 L -82.3881 16.0954 L -82.2805 16.2347 L -82.28 16.2354 L -82.1789 16.3698 L -82.1785 16.3704 L -82.0839 16.5018 L -82.0834 16.5024 L -81.9951 16.6298 L -81.9947 16.6304 L -81.9125 16.7548 L -81.9121 16.7554 L -81.8359 16.8758 L -81.8355 16.8764 L -81.765 16.9938 L -81.7647 16.9944 L -81.6998 17.1079 L -81.6995 17.1084 L -81.6399 17.2199 L -81.6397 17.2204 L -81.5854 17.3279 L -81.5851 17.3284 L -81.5359 17.4319 L -81.5357 17.4324 L -81.4913 17.5339 L -81.4911 17.5344 L -81.4515 17.6329 L -81.4513 17.6334 L -81.4162 17.7279 L -81.416 17.7284 L -81.3852 17.821 L -81.3851 17.8214 L -81.3508 17.9388 L -81.3506 17.9394 L -81.3232 18.0529 L -81.3231 18.0534 L -81.3022 18.1609 L -81.3021 18.1614 L -81.2873 18.2649 L -81.2872 18.2654 L -81.2782 18.3649 L -81.2781 18.3654 L -81.2743 18.4589 L -81.2743 18.4594 L -81.2754 18.55 L -81.2754 18.5504 L -81.281 18.637 L -81.281 18.6374 L -81.2884 18.7041 L -81.2885 18.7044 L -81.2984 18.7711 L -81.2985 18.7714 L -81.311 18.8371 L -81.3111 18.8374 L -81.3262 18.9031 L -81.3263 18.9034 L -81.344 18.9681 L -81.3441 18.9684 L -81.3643 19.0331 L -81.3644 19.0334 L -81.3872 19.0971 L -81.3873 19.0974 L -81.4127 19.1611 L -81.4128 19.1614 L -81.4439 19.2321 L -81.444 19.2324 L -81.4783 19.3031 L -81.4785 19.3034 L -81.5159 19.3741 L -81.516 19.3744 L -81.5566 19.446 L -81.5568 19.4464 L -81.6005 19.518 L -81.6007 19.5184 L -81.6476 19.59 L -81.6478 19.5904 L -81.6979 19.663 L -81.6981 19.6634 L -81.7513 19.737 L -81.7515 19.7374 L -81.7975 19.7981 L -81.7977 19.7984 L -81.8345 19.8461 L -81.8347 19.8464 L -81.8365 19.8484 L -81.8365 19.8484 L -81.9277 19.9599 L -81.9281 19.9604 L -82.0253 20.0719 L -82.0258 20.0724 L -82.1285 20.1849 L -82.129 20.1854 L -82.212 20.273 L -82.2123 20.2734 L -82.2981 20.362 L -82.2985 20.3624 L -82.3867 20.451 L -82.3871 20.4514 L -82.3875 20.4518 L -82.4781 20.5424 L -82.4789 20.5432 L -82.6659 20.7254 L -82.6667 20.7262 L -82.8599 20.9124 L -82.8605 20.9129 L -82.9876 21.0364 L -82.9882 21.0369 L -83.1167 21.1614 L -83.1176 21.1623 L -83.3177 21.3604 L -83.5177 21.5645 L -83.5186 21.5654 L -83.6347 21.6888 L -83.6352 21.6894 L -83.7507 21.8168 L -83.7512 21.8174 L -83.8654 21.9488 L -83.8659 21.9494 L -83.978 22.0848 L -83.9785 22.0854 L -84.065 22.1959 L -84.0654 22.1964 L -84.1498 22.3089 L -84.1502 22.3094 L -84.2538 22.4567 L -84.2543 22.4574 L -84.3533 22.6097 L -84.3538 22.6104 L -84.4475 22.767 L -84.4479 22.7677 L -84.5357 22.9298 L -84.5361 22.9306 L -84.6172 23.098 L -84.6176 23.0988 L -84.6554 23.1846 L -84.6556 23.185 L -84.6914 23.2722 L -84.6916 23.2726 L -84.7255 23.3612 L -84.7256 23.3616 L -84.7574 23.4516 L -84.7575 23.452 L -84.787 23.5435 L -84.7872 23.5439 L -84.8144 23.6368 L -84.8145 23.6373 L -84.8526 23.7869 L -84.8528 23.7876 L -84.8846 23.941 L -84.8848 23.9417 L -84.91 24.099 L -84.9101 24.0997 L -84.9284 24.261 L -84.9285 24.2618 L -84.9355 24.3569 L -84.9355 24.3574 L -84.9399 24.4532 L -84.94 24.4537 L -84.9418 24.55 L -84.9418 24.5505 L -84.9409 24.6474 L -84.9409 24.6479 L -84.9375 24.7454 L -84.9374 24.7459 L -84.9313 24.844 L -84.9313 24.8445 L -84.9225 24.9432 L -84.9225 24.9437 L -84.911 25.043 L -84.9109 25.0435 L -84.8968 25.1435 L -84.8967 25.144 L -84.8799 25.2446 L -84.8798 25.2451 L -84.8602 25.3463 L -84.8601 25.3468 L -84.8378 25.4488 L -84.8377 25.4493 L -84.8126 25.5518 L -84.8125 25.5523 L -84.7847 25.6556 L -84.7845 25.6561 L -84.7539 25.7601 L -84.7538 25.7606 L -84.7204 25.8653 L -84.7202 25.8658 L -84.6782 25.9875 L -84.678 25.9881 L -84.6322 26.1108 L -84.632 26.1114 L -84.5824 26.2351 L -84.5822 26.2357 L -84.5288 26.3603 L -84.5286 26.3609 L -84.4714 26.4866 L -84.4711 26.4872 L -84.4101 26.6139 L -84.4098 26.6145 L -84.345 26.7423 L -84.3447 26.7429 L -84.2759 26.8717 L -84.2756 26.8723 L -84.2029 27.0022 L -84.2026 27.0028 L -84.126 27.1337 L -84.1257 27.1343 L -84.0452 27.2664 L -84.0448 27.267 L -83.9603 27.4002 L -83.96 27.4008 L -83.8715 27.5351 L -83.8711 27.5357 L -83.7786 27.6712 L -83.7782 27.6718 L -83.6817 27.8084 L -83.6813 27.809 L -83.5808 27.9467 L -83.5803 27.9474 L -83.5534 27.9815 L -83.5532 27.9817 L -83.5248 28.014 L -83.5247 28.0142 L -83.5244 28.0144 L -83.4637 28.0738 L -83.4634 28.074 L -83.398 28.1261 L -83.3977 28.1263 L -83.3281 28.1709 L -83.328 28.171 L -83.2882 28.1924 L -83.2881 28.1925 L -83.2474 28.2116 L -83.2472 28.2116 L -83.2057 28.2285 L -83.2055 28.2285 L -83.1633 28.243 L -83.1631 28.243 L -83.1202 28.2552 L -83.12 28.2552 L -83.0767 28.265 L -83.0765 28.265 L -83.0327 28.2725 L -83.0325 28.2725 L -82.9883 28.2776 L -82.988 28.2776 L -82.9165 28.2808 L -82.9161 28.2808 L -82.8445 28.2777 L -82.8442 28.2776 L -82.7729 28.2684 L -82.7726 28.2683 L -82.702 28.2527 L -82.7017 28.2526 L -82.6336 28.2311 L -82.6332 28.2309 L -82.5666 28.2033 L -82.5663 28.2031 L -82.5016 28.1691 L -82.5013 28.1689 L -82.4389 28.1286 L -82.4386 28.1284 L -82.3788 28.0819 L -82.3786 28.0816 L -82.3244 28.0309 L -82.276 27.9762 L -82.2758 27.976 L -82.2331 27.9178 L -82.2329 27.9176 L -82.1961 27.8564 L -82.196 27.8562 L -82.1651 27.7925 L -82.1649 27.7922 L -82.14 27.7263 L -82.1399 27.726 L -82.121 27.6583 L -82.1209 27.658 L -82.1065 27.5762 L -82.1064 27.5759 L -82.1007 27.493 L -82.1007 27.4927 L -82.1038 27.4093 L -82.1038 27.409 L -82.1087 27.3673 L -82.1087 27.3672 L -82.1158 27.3258 L -82.1159 27.3256 L -82.1253 27.2843 L -82.1253 27.2842 L -82.137 27.2433 L -82.137 27.2432 L -82.151 27.2027 L -82.151 27.2026 L -82.1673 27.1627 L -82.1674 27.1626 L -82.1859 27.1232 L -82.186 27.1231 L -82.2069 27.0844 L -82.207 27.0843 L -82.2303 27.0465 L -82.2304 27.0464 L -82.256 27.0094 L -82.2561 27.0093 L -82.3026 26.9454 L -82.3028 26.9451 L -82.3454 26.8863 L -82.3456 26.8861 L -82.3522 26.8769 L -82.3522 26.8769 L -82.4423 26.7483 L -82.4427 26.7478 L -82.5275 26.6223 L -82.5279 26.6218 L -82.6074 26.4994 L -82.6077 26.4989 L -82.6821 26.3796 L -82.6824 26.3791 L -82.7518 26.2628 L -82.7521 26.2623 L -82.8166 26.1489 L -82.8169 26.1484 L -82.8768 26.0379 L -82.877 26.0374 L -82.9323 25.9298 L -82.9325 25.9294 L -82.9833 25.8245 L -82.9836 25.8241 L -83.03 25.7219 L -83.0302 25.7215 L -83.0725 25.6221 L -83.0727 25.6217 L -83.111 25.525 L -83.1112 25.5246 L -83.1455 25.4304 L -83.1457 25.43 L -83.1763 25.3384 L -83.1764 25.338 L -83.2033 25.2489 L -83.2035 25.2485 L -83.2352 25.1282 L -83.2354 25.1277 L -83.2607 25.012 L -83.2608 25.0115 L -83.28 24.9003 L -83.2801 24.8998 L -83.2936 24.793 L -83.2936 24.7925 L -83.3017 24.6898 L -83.3018 24.6894 L -83.3049 24.5909 L -83.3049 24.5905 L -83.3034 24.4959 L -83.3034 24.4955 L -83.2976 24.4047 L -83.2975 24.4043 L -83.2896 24.331 L -83.2895 24.3307 L -83.2789 24.2585 L -83.2789 24.2582 L -83.2656 24.1869 L -83.2655 24.1866 L -83.2496 24.1162 L -83.2495 24.1159 L -83.231 24.0463 L -83.2309 24.046 L -83.2097 23.9769 L -83.2096 23.9766 L -83.1857 23.9081 L -83.1856 23.9078 L -83.1592 23.8397 L -83.1591 23.8394 L -83.1273 23.7655 L -83.1272 23.7652 L -83.0923 23.6917 L -83.0922 23.6914 L -83.0542 23.6179 L -83.054 23.6176 L -83.013 23.544 L -83.0128 23.5437 L -82.9688 23.47 L -82.9686 23.4697 L -82.9214 23.3956 L -82.9212 23.3953 L -82.871 23.3208 L -82.8708 23.3205 L -82.8176 23.2454 L -82.8173 23.2451 L -82.7713 23.1834 L -82.7711 23.1832 L -82.7347 23.1346 L -82.7345 23.1344 z  M -75.0585 23.9861 L -74.9683 23.874 L -74.9679 23.8735 L -74.8721 23.7612 L -74.8716 23.7607 L -74.7704 23.6479 L -74.7699 23.6474 L -74.6867 23.5581 L -74.6863 23.5577 L -74.6004 23.4679 L -74.6 23.4675 L -74.5115 23.3772 L -74.5111 23.3768 L -74.4204 23.2859 L -74.42 23.2855 L -74.4192 23.2846 L -74.2319 23.1009 L -74.2311 23.1 L -74.0375 22.9129 L -74.0364 22.9118 L -73.7851 22.6684 L -73.7842 22.6675 L -73.5838 22.4714 L -73.3834 22.2693 L -73.3825 22.2684 L -73.2627 22.1419 L -73.2621 22.1414 L -73.1428 22.011 L -73.1422 22.0104 L -73.0243 21.876 L -73.0237 21.8754 L -72.9078 21.737 L -72.9073 21.7364 L -72.8301 21.6398 L -72.8297 21.6394 L -72.7542 21.5398 L -72.7538 21.5394 L -72.6463 21.39 L -72.6458 21.3894 L -72.5432 21.2351 L -72.5427 21.2344 L -72.4459 21.0751 L -72.4454 21.0744 L -72.355 20.9091 L -72.3546 20.9084 L -72.3121 20.8237 L -72.3119 20.8234 L -72.2713 20.7368 L -72.2711 20.7364 L -72.2326 20.6488 L -72.2324 20.6484 L -72.1961 20.5588 L -72.1959 20.5584 L -72.1618 20.4678 L -72.1616 20.4674 L -72.1298 20.3748 L -72.1296 20.3744 L -72.1003 20.2808 L -72.1001 20.2804 L -72.0733 20.1848 L -72.0732 20.1844 L -72.041 20.052 L -72.0408 20.0514 L -72.0138 19.915 L -72.0136 19.9144 L -71.9919 19.775 L -71.9918 19.7744 L -71.9758 19.632 L -71.9757 19.6314 L -71.9688 19.5328 L -71.9687 19.5324 L -71.9645 19.4338 L -71.9645 19.4334 L -71.9634 19.3338 L -71.9634 19.3334 L -71.9652 19.2328 L -71.9652 19.2324 L -71.97 19.1318 L -71.97 19.1314 L -71.9779 19.0298 L -71.9779 19.0294 L -71.9887 18.9278 L -71.9887 18.9274 L -72.0026 18.8248 L -72.0026 18.8244 L -72.0195 18.7218 L -72.0195 18.7214 L -72.0394 18.6178 L -72.0395 18.6174 L -72.0625 18.5128 L -72.0626 18.5124 L -72.0887 18.4078 L -72.0888 18.4074 L -72.1179 18.3018 L -72.118 18.3014 L -72.1503 18.1948 L -72.1504 18.1944 L -72.1858 18.0878 L -72.1859 18.0874 L -72.2245 17.9798 L -72.2246 17.9794 L -72.2738 17.8519 L -72.274 17.8514 L -72.3276 17.7239 L -72.3278 17.7234 L -72.3859 17.594 L -72.3861 17.5934 L -72.4484 17.463 L -72.4487 17.4624 L -72.5155 17.331 L -72.5158 17.3304 L -72.587 17.198 L -72.5873 17.1974 L -72.6631 17.064 L -72.6634 17.0634 L -72.7436 16.929 L -72.7439 16.9284 L -72.8286 16.793 L -72.829 16.7924 L -72.9182 16.655 L -72.9186 16.6544 L -73.0125 16.517 L -73.0129 16.5164 L -73.1113 16.377 L -73.1117 16.3764 L -73.2147 16.235 L -73.2151 16.2344 L -73.3227 16.093 L -73.3232 16.0924 L -73.4355 15.949 L -73.436 15.9484 L -73.553 15.804 L -73.5535 15.8034 L -73.6036 15.7476 L -73.6038 15.7474 L -73.6041 15.7471 L -73.6582 15.6974 L -73.6585 15.6972 L -73.716 15.6524 L -73.7163 15.6522 L -73.777 15.6134 L -73.7773 15.6132 L -73.8407 15.5804 L -73.841 15.5802 L -73.9067 15.5534 L -73.907 15.5533 L -73.9745 15.5314 L -73.9748 15.5313 L -74.0438 15.5164 L -74.0442 15.5163 L -74.1292 15.5044 L -74.1296 15.5044 L -74.2153 15.5024 L -74.2157 15.5024 L -74.3013 15.5094 L -74.3015 15.5094 L -74.3441 15.5164 L -74.3443 15.5164 L -74.3865 15.5244 L -74.3867 15.5244 L -74.4286 15.5364 L -74.4288 15.5364 L -74.4702 15.5494 L -74.4704 15.5494 L -74.5112 15.5654 L -74.5114 15.5654 L -74.5516 15.5834 L -74.5518 15.5835 L -74.5911 15.6034 L -74.5913 15.6035 L -74.6298 15.6264 L -74.63 15.6265 L -74.6676 15.6514 L -74.6678 15.6515 L -74.7042 15.6784 L -74.7045 15.6786 L -74.7614 15.7274 L -74.8125 15.7811 L -74.8127 15.7814 L -74.858 15.8381 L -74.8582 15.8384 L -74.8976 15.8981 L -74.8977 15.8984 L -74.9312 15.9611 L -74.9313 15.9614 L -74.9589 16.0261 L -74.959 16.0264 L -74.9805 16.0931 L -74.9806 16.0934 L -74.9961 16.1611 L -74.9961 16.1614 L -75.0066 16.245 L -75.0066 16.2454 L -75.0082 16.329 L -75.0082 16.3294 L -75.0011 16.413 L -75.001 16.4134 L -74.9941 16.4542 L -74.994 16.4544 L -74.9849 16.4962 L -74.9848 16.4964 L -74.9733 16.5372 L -74.9732 16.5374 L -74.9595 16.5772 L -74.9594 16.5774 L -74.9435 16.6172 L -74.9434 16.6174 L -74.9251 16.6572 L -74.925 16.6574 L -74.9044 16.6952 L -74.9043 16.6954 L -74.8814 16.7332 L -74.8813 16.7334 L -74.856 16.7702 L -74.8559 16.7704 L -74.8285 16.8062 L -74.8283 16.8064 L -74.7738 16.8741 L -74.7735 16.8744 L -74.7215 16.9391 L -74.7212 16.9394 L -74.7132 16.9493 L -74.7131 16.9494 L -74.6052 17.0877 L -74.6047 17.0884 L -74.5036 17.2238 L -74.5031 17.2244 L -74.4084 17.3558 L -74.4079 17.3564 L -74.3195 17.4838 L -74.3191 17.4844 L -74.2368 17.6088 L -74.2364 17.6094 L -74.1601 17.7298 L -74.1597 17.7304 L -74.0891 17.8478 L -74.0888 17.8484 L -74.0239 17.9619 L -74.0236 17.9624 L -73.964 18.0739 L -73.9637 18.0744 L -73.9095 18.1819 L -73.9092 18.1824 L -73.8599 18.2869 L -73.8597 18.2874 L -73.8153 18.3879 L -73.8151 18.3884 L -73.7755 18.4869 L -73.7753 18.4874 L -73.7402 18.5819 L -73.74 18.5824 L -73.7094 18.675 L -73.7092 18.6754 L -73.675 18.7928 L -73.6748 18.7934 L -73.6475 18.9059 L -73.6473 18.9064 L -73.6265 19.0149 L -73.6264 19.0154 L -73.6117 19.1179 L -73.6116 19.1184 L -73.6026 19.2169 L -73.6025 19.2174 L -73.5987 19.3119 L -73.5987 19.3124 L -73.5998 19.403 L -73.5998 19.4034 L -73.6054 19.489 L -73.6054 19.4894 L -73.6128 19.5571 L -73.6128 19.5574 L -73.6228 19.6241 L -73.6228 19.6244 L -73.6354 19.6901 L -73.6354 19.6904 L -73.6505 19.7561 L -73.6505 19.7564 L -73.6682 19.8211 L -73.6683 19.8214 L -73.6885 19.8851 L -73.6886 19.8854 L -73.7114 19.9501 L -73.7115 19.9504 L -73.7369 20.0141 L -73.737 20.0144 L -73.7681 20.085 L -73.7682 20.0854 L -73.8025 20.156 L -73.8026 20.1564 L -73.8401 20.227 L -73.8402 20.2274 L -73.8808 20.299 L -73.881 20.2994 L -73.9247 20.3701 L -73.9249 20.3704 L -73.9718 20.443 L -73.972 20.4434 L -74.022 20.516 L -74.0222 20.5164 L -74.0755 20.59 L -74.0757 20.5904 L -74.1217 20.6501 L -74.1219 20.6504 L -74.1586 20.6981 L -74.1588 20.6984 L -74.1607 20.7014 L -74.1607 20.7014 L -74.2519 20.8119 L -74.2523 20.8124 L -74.3496 20.9249 L -74.35 20.9254 L -74.4528 21.0379 L -74.4532 21.0384 L -74.5363 21.126 L -74.5366 21.1264 L -74.6224 21.215 L -74.6228 21.2154 L -74.7111 21.304 L -74.7115 21.3044 L -74.7119 21.3048 L -74.8025 21.3944 L -74.8034 21.3952 L -74.9904 21.5784 L -74.9913 21.5792 L -75.1845 21.7654 L -75.1851 21.7659 L -75.3123 21.8884 L -75.3129 21.8889 L -75.4414 22.0144 L -75.4423 22.0153 L -75.6425 22.2134 L -75.8424 22.4165 L -75.8433 22.4174 L -75.9598 22.5418 L -75.9603 22.5424 L -76.0763 22.6708 L -76.0768 22.6714 L -76.1914 22.803 L -76.1919 22.8036 L -76.3044 22.9399 L -76.3049 22.9405 L -76.3904 23.0494 L -76.3908 23.0499 L -76.4744 23.1615 L -76.4747 23.162 L -76.5788 23.3099 L -76.5792 23.3106 L -76.6787 23.4633 L -76.6791 23.464 L -76.7733 23.6218 L -76.7737 23.6225 L -76.8617 23.7855 L -76.8621 23.7863 L -76.9435 23.9546 L -76.9438 23.9554 L -76.9817 24.0417 L -76.9818 24.0421 L -77.0178 24.1297 L -77.0179 24.1301 L -77.0517 24.2192 L -77.0519 24.2196 L -77.0836 24.3102 L -77.0837 24.3106 L -77.1132 24.4026 L -77.1133 24.403 L -77.1405 24.4965 L -77.1406 24.497 L -77.1779 24.6452 L -77.1781 24.6459 L -77.2093 24.7979 L -77.2094 24.7986 L -77.2341 24.9544 L -77.2342 24.9551 L -77.252 25.1147 L -77.2521 25.1155 L -77.2591 25.2107 L -77.2591 25.2112 L -77.2635 25.3069 L -77.2636 25.3074 L -77.2654 25.4037 L -77.2654 25.4042 L -77.2645 25.5011 L -77.2645 25.5016 L -77.2611 25.5991 L -77.2611 25.5996 L -77.2549 25.6977 L -77.2549 25.6982 L -77.2461 25.7969 L -77.2461 25.7974 L -77.2346 25.8967 L -77.2346 25.8972 L -77.2204 25.9972 L -77.2204 25.9977 L -77.2035 26.0983 L -77.2034 26.0988 L -77.1839 26.2001 L -77.1838 26.2006 L -77.1615 26.3025 L -77.1614 26.303 L -77.1363 26.4056 L -77.1362 26.4061 L -77.1084 26.5093 L -77.1082 26.5098 L -77.0776 26.6138 L -77.0775 26.6143 L -77.0441 26.719 L -77.044 26.7195 L -77.0019 26.8411 L -77.0017 26.8417 L -76.956 26.9644 L -76.9558 26.965 L -76.9063 27.0886 L -76.906 27.0892 L -76.8528 27.2137 L -76.8525 27.2143 L -76.7954 27.3399 L -76.7951 27.3405 L -76.7342 27.4672 L -76.7339 27.4678 L -76.669 27.5954 L -76.6687 27.596 L -76.6 27.7247 L -76.5997 27.7253 L -76.5272 27.8551 L -76.5268 27.8557 L -76.4504 27.9866 L -76.45 27.9872 L -76.3696 28.1191 L -76.3692 28.1197 L -76.2848 28.2528 L -76.2844 28.2534 L -76.196 28.3876 L -76.1956 28.3882 L -76.1033 28.5236 L -76.1029 28.5242 L -76.0065 28.6606 L -76.006 28.6613 L -75.9057 28.7988 L -75.9052 28.7995 L -75.8788 28.8333 L -75.8787 28.8335 L -75.851 28.8655 L -75.8508 28.8657 L -75.8506 28.8659 L -75.7909 28.9248 L -75.7906 28.925 L -75.7262 28.9767 L -75.7259 28.9769 L -75.6573 29.0213 L -75.6571 29.0214 L -75.6169 29.0432 L -75.6167 29.0433 L -75.5755 29.0627 L -75.5753 29.0627 L -75.5332 29.0799 L -75.533 29.0799 L -75.4901 29.0946 L -75.4899 29.0946 L -75.4463 29.107 L -75.4461 29.107 L -75.402 29.117 L -75.4018 29.117 L -75.3573 29.1246 L -75.3571 29.1246 L -75.3122 29.1298 L -75.3121 29.1298 L -75.2717 29.1316 L -75.2716 29.1316 L -75.2405 29.133 L -75.2398 29.133 L -75.2395 29.133 L -75.1672 29.13 L -75.1669 29.1299 L -75.0949 29.1207 L -75.0946 29.1206 L -75.0232 29.1049 L -75.0229 29.1048 L -74.9554 29.0835 L -74.9551 29.0833 L -74.889 29.056 L -74.8887 29.0558 L -74.8245 29.0222 L -74.8242 29.022 L -74.7621 28.9821 L -74.7619 28.9819 L -74.7023 28.9354 L -74.7021 28.9351 L -74.6481 28.8844 L -74.5998 28.8297 L -74.5996 28.8295 L -74.557 28.7714 L -74.5568 28.7712 L -74.5201 28.7099 L -74.5199 28.7097 L -74.4892 28.646 L -74.489 28.6457 L -74.4641 28.5798 L -74.464 28.5795 L -74.4452 28.5119 L -74.4451 28.5116 L -74.4307 28.4297 L -74.4306 28.4294 L -74.425 28.3463 L -74.4249 28.346 L -74.4281 28.2625 L -74.4281 28.2622 L -74.433 28.2206 L -74.433 28.2204 L -74.4402 28.1788 L -74.4402 28.1787 L -74.4497 28.1376 L -74.4497 28.1374 L -74.4615 28.0964 L -74.4615 28.0963 L -74.4756 28.0559 L -74.4756 28.0558 L -74.492 28.0158 L -74.492 28.0157 L -74.5107 27.9764 L -74.5108 27.9763 L -74.5318 27.9376 L -74.5319 27.9375 L -74.5552 27.8997 L -74.5553 27.8996 L -74.5811 27.8627 L -74.5812 27.8626 L -74.6276 27.7987 L -74.6278 27.7984 L -74.6704 27.7395 L -74.6706 27.7393 L -74.6772 27.7301 L -74.6772 27.7301 L -74.7672 27.6014 L -74.7676 27.6008 L -74.8523 27.4752 L -74.8527 27.4747 L -74.9321 27.3522 L -74.9324 27.3517 L -75.0068 27.2323 L -75.0071 27.2318 L -75.0764 27.1154 L -75.0767 27.1149 L -75.1412 27.0015 L -75.1415 27.001 L -75.2014 26.8904 L -75.2016 26.8899 L -75.2569 26.7823 L -75.2571 26.7818 L -75.3079 26.6769 L -75.3081 26.6765 L -75.3546 26.5743 L -75.3548 26.5739 L -75.3971 26.4744 L -75.3973 26.474 L -75.4356 26.3773 L -75.4357 26.3769 L -75.4701 26.2827 L -75.4702 26.2823 L -75.5009 26.1907 L -75.501 26.1903 L -75.528 26.1012 L -75.5281 26.1008 L -75.5599 25.9805 L -75.56 25.98 L -75.5854 25.8644 L -75.5855 25.8639 L -75.6048 25.7529 L -75.6049 25.7524 L -75.6185 25.6456 L -75.6185 25.6452 L -75.6267 25.5427 L -75.6267 25.5423 L -75.6299 25.444 L -75.6299 25.4436 L -75.6284 25.3492 L -75.6284 25.3488 L -75.6227 25.2583 L -75.6226 25.2579 L -75.6148 25.1849 L -75.6147 25.1846 L -75.6042 25.1126 L -75.6041 25.1123 L -75.5909 25.0413 L -75.5908 25.041 L -75.575 24.9709 L -75.5749 24.9706 L -75.5565 24.9013 L -75.5564 24.901 L -75.5354 24.8324 L -75.5353 24.8321 L -75.5117 24.7639 L -75.5116 24.7636 L -75.4854 24.696 L -75.4853 24.6957 L -75.4535 24.6214 L -75.4533 24.6211 L -75.4184 24.5472 L -75.4182 24.5469 L -75.3802 24.473 L -75.38 24.4727 L -75.3388 24.3988 L -75.3386 24.3985 L -75.2944 24.3245 L -75.2942 24.3242 L -75.247 24.2498 L -75.2468 24.2495 L -75.1966 24.1746 L -75.1963 24.1743 L -75.143 24.0989 L -75.1427 24.0986 L -75.0966 24.0368 L -75.0964 24.0366 L -75.06 23.9881 L -75.0598 23.9879 z  M -70.4354 55.3067 L -70.4345 55.3065 L -70.2226 55.2595 L -70.2217 55.2593 L -70.0157 55.2107 L -70.0148 55.2104 L -69.8144 55.1601 L -69.8136 55.1598 L -69.6185 55.1077 L -69.6177 55.1074 L -69.428 55.0536 L -69.4272 55.0533 L -69.2425 54.9977 L -69.2417 54.9974 L -69.0619 54.9401 L -69.0611 54.9398 L -68.8861 54.8807 L -68.8854 54.8804 L -68.7148 54.8195 L -68.7141 54.8192 L -68.5478 54.7566 L -68.5471 54.7563 L -68.385 54.6919 L -68.3844 54.6916 L -68.2475 54.6345 L -68.2469 54.6342 L -68.1129 54.5758 L -68.1123 54.5755 L -67.981 54.5158 L -67.9805 54.5155 L -67.8518 54.4545 L -67.8513 54.4542 L -67.725 54.3918 L -67.7245 54.3915 L -67.6006 54.3277 L -67.6001 54.3274 L -67.4784 54.2623 L -67.4779 54.262 L -67.3584 54.1955 L -67.3581 54.1953 L -67.2753 54.1469 L -67.2748 54.1466 L -67.1681 54.0832 L -67.1437 54.0684 L -67.1436 54.0684 L -67.1427 54.0678 L -66.937 53.9387 L -66.9361 53.9381 L -66.7378 53.8065 L -66.737 53.8059 L -66.5449 53.6717 L -66.5441 53.6711 L -66.3577 53.5345 L -66.3569 53.5338 L -66.1753 53.3948 L -66.1745 53.3941 L -65.9967 53.2528 L -65.9959 53.2521 L -65.8213 53.1084 L -65.8201 53.1073 L -65.5456 52.8732 L -65.5444 52.8721 L -65.272 52.6323 L -65.2708 52.6312 L -64.9973 52.3858 L -64.9961 52.3846 L -64.7178 52.1338 L -64.717 52.133 L -64.5388 51.9732 L -64.538 51.9724 L -64.3556 51.8105 L -64.3548 51.8097 L -64.1676 51.6458 L -64.1668 51.645 L -63.9738 51.4791 L -63.9731 51.4785 L -63.8146 51.3448 L -63.8139 51.3442 L -63.6507 51.2092 L -63.65 51.2086 L -63.4818 51.0725 L -63.481 51.0719 L -63.3074 50.9346 L -63.3072 50.9344 L -63.2622 50.8962 L -63.262 50.896 L -63.2205 50.8552 L -63.1823 50.812 L -63.1821 50.8118 L -63.1475 50.7664 L -63.1473 50.7662 L -63.1162 50.7187 L -63.116 50.7185 L -63.0886 50.6692 L -63.0884 50.669 L -63.0646 50.6181 L -63.0645 50.6179 L -63.0445 50.5656 L -63.0444 50.5654 L -63.0269 50.5068 L -63.0268 50.5066 L -63.014 50.4468 L -63.0139 50.4466 L -63.0058 50.3858 L -63.0057 50.3856 L -63.0024 50.3243 L -63.0024 50.3241 L -63.004 50.2623 L -63.004 50.2621 L -63.0106 50.2003 L -63.0106 50.2001 L -63.0224 50.1384 L -63.0224 50.1382 L -63.0393 50.0769 L -63.0393 50.0767 L -63.0579 50.0234 L -63.058 50.0232 L -63.0802 49.9717 L -63.0803 49.9715 L -63.106 49.9221 L -63.1061 49.9219 L -63.1351 49.8745 L -63.1352 49.8743 L -63.1673 49.8293 L -63.1674 49.8291 L -63.2025 49.7865 L -63.2026 49.7863 L -63.2405 49.7461 L -63.2406 49.746 L -63.2408 49.7458 L -63.2813 49.7084 L -63.2816 49.7082 L -63.3311 49.6685 L -63.3314 49.6683 L -63.384 49.6326 L -63.3843 49.6324 L -63.4397 49.6007 L -63.44 49.6005 L -63.4979 49.5731 L -63.4982 49.573 L -63.5585 49.5501 L -63.5588 49.55 L -63.6211 49.5317 L -63.6214 49.5316 L -63.6855 49.5182 L -63.6858 49.5181 L -63.7515 49.5097 L -63.9105 49.4958 L -99.3139 46.3984 L -99.3142 46.3984 L -99.3725 46.3953 L -99.3728 46.3953 L -99.4304 46.3963 L -99.4307 46.3963 L -99.4877 46.4013 L -99.488 46.4013 L -99.5442 46.4101 L -99.5445 46.4101 L -99.5996 46.4227 L -99.5999 46.4227 L -99.6537 46.439 L -99.654 46.4391 L -99.7064 46.4589 L -99.7067 46.459 L -99.7574 46.4823 L -99.7577 46.4824 L -99.8118 46.5121 L -99.8121 46.5122 L -99.8637 46.5459 L -99.8639 46.546 L -99.913 46.5836 L -99.9132 46.5838 L -99.9592 46.6251 L -100.002 46.6699 L -100.002 46.6701 L -100.042 46.7184 L -100.042 46.7187 L -100.077 46.7704 L -100.078 46.7707 L -100.109 46.8256 L -100.109 46.8259 L -100.135 46.8771 L -100.135 46.8774 L -100.156 46.9297 L -100.156 46.93 L -100.173 46.9832 L -100.173 46.9835 L -100.186 47.0375 L -100.186 47.0378 L -100.195 47.0922 L -100.195 47.0925 L -100.201 47.1472 L -100.201 47.1475 L -100.202 47.2024 L -100.202 47.2027 L -100.2 47.2574 L -100.2 47.2577 L -100.192 47.3185 L -100.192 47.3188 L -100.18 47.3788 L -100.18 47.3791 L -100.164 47.4383 L -100.163 47.4386 L -100.142 47.4966 L -100.142 47.4969 L -100.116 47.5533 L -100.116 47.5536 L -100.085 47.6083 L -100.085 47.6086 L -100.05 47.6612 L -100.05 47.6615 L -100.01 47.7118 L -100.01 47.7121 L -99.8985 47.8422 L -99.898 47.8428 L -99.7899 47.9718 L -99.7894 47.9724 L -99.6843 48.1005 L -99.6838 48.1011 L -99.5813 48.2282 L -99.5808 48.2288 L -99.4809 48.3549 L -99.4804 48.3555 L -99.3827 48.4807 L -99.3822 48.4813 L -99.1928 48.729 L -99.1919 48.7301 L -99.0092 48.9741 L -99.0083 48.9752 L -98.8304 49.2158 L -98.8296 49.2169 L -98.6548 49.4542 L -98.654 49.4553 L -98.4808 49.6893 L -98.48 49.6904 L -98.3335 49.8858 L -98.3328 49.8867 L -98.1852 50.0799 L -98.1845 50.0808 L -98.0347 50.272 L -98.034 50.2729 L -97.8809 50.4622 L -97.8802 50.4631 L -97.6935 50.6846 L -97.6926 50.6856 L -97.4983 50.9046 L -97.4974 50.9056 L -97.3969 51.0142 L -97.3964 51.0147 L -97.2933 51.1227 L -97.2928 51.1232 L -97.1869 51.2306 L -97.1864 51.2311 L -97.1859 51.2315 L -97.077 51.3385 L -97.0766 51.3389 L -96.9822 51.4288 L -96.9818 51.4292 L -96.8849 51.5188 L -96.8844 51.5192 L -96.785 51.6083 L -96.7846 51.6087 L -96.6825 51.6976 L -96.6819 51.6981 L -96.5511 51.8065 L -96.5505 51.8069 L -96.4159 51.9138 L -96.4153 51.9142 L -96.2768 52.0196 L -96.2761 52.02 L -96.1334 52.1237 L -96.1328 52.1241 L -95.9857 52.2264 L -95.9851 52.2268 L -95.8334 52.3276 L -95.8327 52.328 L -95.6763 52.4273 L -95.6755 52.4277 L -95.5141 52.5256 L -95.5134 52.526 L -95.3467 52.6225 L -95.3459 52.6229 L -95.1738 52.718 L -95.1731 52.7184 L -94.9953 52.8122 L -94.9945 52.8126 L -94.8109 52.9051 L -94.8101 52.9055 L -94.6204 52.9967 L -94.6195 52.9971 L -94.4236 53.0871 L -94.4227 53.0875 L -94.2203 53.1763 L -94.2194 53.1767 L -94.0103 53.2643 L -94.0093 53.2647 L -93.786 53.354 L -93.785 53.3544 L -93.5541 53.4425 L -93.553 53.4429 L -93.3143 53.5299 L -93.3132 53.5303 L -93.0664 53.6161 L -93.0653 53.6165 L -92.8102 53.7013 L -92.809 53.7016 L -92.5454 53.7854 L -92.5441 53.7857 L -92.2717 53.8685 L -92.2711 53.8687 L -92.1315 53.9096 L -92.1309 53.9098 L -91.989 53.9506 L -91.9884 53.9508 L -91.8442 53.9913 L -91.8436 53.9914 L -91.6971 54.0317 L -91.6964 54.0318 L -91.5475 54.072 L -91.5469 54.0721 L -91.3956 54.112 L -91.3949 54.1121 L -91.2412 54.1518 L -91.2405 54.1519 L -91.0843 54.1913 L -91.0836 54.1914 L -90.925 54.2307 L -90.9243 54.2308 L -90.7631 54.2698 L -90.7624 54.2699 L -90.5987 54.3088 L -90.5979 54.3089 L -90.4317 54.3475 L -90.4309 54.3476 L -90.262 54.3861 L -90.2613 54.3862 L -90.0898 54.4244 L -90.089 54.4245 L -89.9148 54.4626 L -89.914 54.4627 L -89.7372 54.5006 L -89.7364 54.5007 L -89.5568 54.5384 L -89.556 54.5385 L -89.3736 54.5761 L -89.3732 54.5761 L -89.2801 54.5904 L -89.2165 54.5959 L -75.0554 55.8349 L -75.0549 55.8349 L -74.9376 55.8367 L -74.9369 55.8366 L -74.7688 55.8273 L -74.7681 55.8272 L -74.6023 55.8175 L -74.6009 55.8174 L -74.2758 55.7966 L -74.2744 55.7965 L -73.9581 55.7741 L -73.9567 55.774 L -73.6489 55.7499 L -73.6476 55.7498 L -73.348 55.7241 L -73.3467 55.7239 L -73.0552 55.6965 L -73.054 55.6963 L -72.7704 55.6673 L -72.7692 55.6671 L -72.4933 55.6364 L -72.4923 55.6362 L -72.2601 55.6083 L -72.2591 55.6081 L -72.0324 55.5789 L -72.0314 55.5787 L -71.8101 55.5483 L -71.8092 55.5481 L -71.5931 55.5164 L -71.592 55.5162 L -71.3484 55.4779 L -71.3474 55.4777 L -71.1105 55.4377 L -71.1095 55.4375 L -70.8791 55.3957 L -70.8781 55.3955 L -70.6542 55.3521 L -70.6533 55.3519 z  M -79.0866 23.6325 L -79.0879 23.6342 L -79.0881 23.6344 L -79.1245 23.683 L -79.1247 23.6832 L -79.1708 23.7449 L -79.171 23.7452 L -79.2246 23.821 L -79.2248 23.8213 L -79.2753 23.8964 L -79.2755 23.8967 L -79.3229 23.9714 L -79.3231 23.9717 L -79.3675 24.0461 L -79.3677 24.0464 L -79.4089 24.1206 L -79.4091 24.1209 L -79.4472 24.195 L -79.4474 24.1953 L -79.4824 24.2696 L -79.4825 24.2699 L -79.5144 24.3444 L -79.5145 24.3447 L -79.5405 24.4122 L -79.5406 24.4125 L -79.5641 24.4804 L -79.5642 24.4807 L -79.585 24.5491 L -79.5851 24.5494 L -79.6033 24.6184 L -79.6034 24.6187 L -79.619 24.6884 L -79.6191 24.6887 L -79.6321 24.7593 L -79.6321 24.7596 L -79.6425 24.8311 L -79.6426 24.8314 L -79.6503 24.904 L -79.6503 24.9044 L -79.6562 24.9947 L -79.6562 24.9951 L -79.6578 25.0892 L -79.6578 25.0896 L -79.6548 25.1877 L -79.6548 25.1881 L -79.6468 25.2902 L -79.6467 25.2907 L -79.6334 25.397 L -79.6333 25.3975 L -79.6143 25.5081 L -79.6142 25.5086 L -79.5891 25.6237 L -79.589 25.6242 L -79.5575 25.7439 L -79.5574 25.7443 L -79.5305 25.8336 L -79.5304 25.834 L -79.4999 25.9258 L -79.4997 25.9262 L -79.4654 26.0206 L -79.4652 26.021 L -79.427 26.118 L -79.4268 26.1184 L -79.3845 26.2181 L -79.3843 26.2185 L -79.3378 26.3209 L -79.3376 26.3213 L -79.2867 26.4264 L -79.2865 26.4269 L -79.2312 26.5349 L -79.2309 26.5354 L -79.1711 26.6462 L -79.1708 26.6467 L -79.1062 26.7604 L -79.1059 26.7609 L -79.0364 26.8776 L -79.0361 26.8781 L -78.9616 26.9978 L -78.9612 26.9983 L -78.8816 27.1211 L -78.8813 27.1216 L -78.7964 27.2476 L -78.796 27.2482 L -78.7057 27.3772 L -78.7057 27.3772 L -78.6991 27.3865 L -78.6989 27.3867 L -78.6561 27.4458 L -78.6559 27.4461 L -78.6095 27.5101 L -78.6094 27.5102 L -78.5837 27.5471 L -78.5835 27.5472 L -78.5602 27.585 L -78.5601 27.5851 L -78.5391 27.6237 L -78.539 27.6238 L -78.5203 27.6632 L -78.5202 27.6633 L -78.5039 27.7032 L -78.5038 27.7033 L -78.4898 27.7438 L -78.4897 27.744 L -78.478 27.7848 L -78.478 27.785 L -78.4685 27.8262 L -78.4685 27.8264 L -78.4613 27.8679 L -78.4613 27.8681 L -78.4564 27.9097 L -78.4563 27.91 L -78.4532 27.9935 L -78.4532 27.9938 L -78.4589 28.0769 L -78.459 28.0772 L -78.4734 28.1592 L -78.4735 28.1595 L -78.4923 28.2271 L -78.4924 28.2274 L -78.5172 28.2932 L -78.5173 28.2935 L -78.5482 28.3572 L -78.5483 28.3574 L -78.585 28.4186 L -78.5852 28.4188 L -78.6277 28.477 L -78.6279 28.4772 L -78.6761 28.5319 L -78.73 28.5826 L -78.7303 28.5829 L -78.7898 28.6294 L -78.79 28.6296 L -78.8524 28.6698 L -78.8527 28.67 L -78.9174 28.7039 L -78.9177 28.7041 L -78.9842 28.7316 L -78.9845 28.7318 L -79.0526 28.7532 L -79.0529 28.7533 L -79.1238 28.7689 L -79.1241 28.769 L -79.1958 28.7783 L -79.1961 28.7784 L -79.268 28.7814 L -79.2684 28.7814 L -79.2688 28.7814 L -79.2997 28.78 L -79.2999 28.78 L -79.3403 28.7782 L -79.3405 28.7782 L -79.3864 28.7729 L -79.3866 28.7729 L -79.4321 28.7652 L -79.4323 28.7652 L -79.4772 28.755 L -79.4774 28.755 L -79.5217 28.7424 L -79.5218 28.7424 L -79.5653 28.7274 L -79.5655 28.7274 L -79.608 28.7101 L -79.6082 28.71 L -79.6497 28.6903 L -79.6499 28.6902 L -79.6903 28.6682 L -79.6904 28.6681 L -79.7582 28.6238 L -79.7585 28.6236 L -79.8217 28.5722 L -79.8219 28.572 L -79.8222 28.5717 L -79.8802 28.5134 L -79.8804 28.5132 L -79.9072 28.4816 L -79.9074 28.4814 L -79.9327 28.448 L -79.9332 28.4474 L -80.0336 28.3097 L -80.034 28.309 L -80.1305 28.1726 L -80.1309 28.172 L -80.2232 28.0366 L -80.2236 28.036 L -80.312 27.9018 L -80.3124 27.9012 L -80.3968 27.7681 L -80.3972 27.7675 L -80.4776 27.6355 L -80.478 27.6349 L -80.5545 27.504 L -80.5548 27.5034 L -80.6274 27.3737 L -80.6277 27.3731 L -80.6964 27.2444 L -80.6967 27.2438 L -80.7615 27.1161 L -80.7618 27.1155 L -80.8227 26.989 L -80.823 26.9884 L -80.8801 26.8628 L -80.8804 26.8622 L -80.9337 26.7377 L -80.9339 26.7371 L -80.9835 26.6135 L -80.9837 26.6129 L -81.0295 26.4903 L -81.0296 26.4897 L -81.0717 26.3681 L -81.0718 26.3676 L -81.1053 26.2628 L -81.1054 26.2623 L -81.1361 26.1581 L -81.1362 26.1576 L -81.1641 26.0541 L -81.1643 26.0536 L -81.1894 25.9509 L -81.1895 25.9504 L -81.2119 25.8483 L -81.2119 25.8478 L -81.2316 25.7463 L -81.2317 25.7458 L -81.2486 25.6451 L -81.2486 25.6446 L -81.2628 25.5445 L -81.2629 25.544 L -81.2744 25.4445 L -81.2744 25.444 L -81.2832 25.3451 L -81.2833 25.3446 L -81.2894 25.2464 L -81.2894 25.2459 L -81.2929 25.1482 L -81.2929 25.1477 L -81.2938 25.0507 L -81.2938 25.0502 L -81.292 24.9537 L -81.292 24.9532 L -81.2876 24.8573 L -81.2875 24.8568 L -81.2805 24.7615 L -81.2804 24.7607 L -81.2624 24.6012 L -81.2623 24.6005 L -81.2375 24.4449 L -81.2373 24.4442 L -81.2061 24.2924 L -81.2059 24.2917 L -81.1685 24.1436 L -81.1684 24.1431 L -81.1411 24.0497 L -81.141 24.0493 L -81.1115 23.9573 L -81.1114 23.9569 L -81.0796 23.8664 L -81.0795 23.866 L -81.0456 23.7769 L -81.0454 23.7765 L -81.0095 23.6889 L -81.0093 23.6885 L -80.9715 23.6023 L -80.9711 23.6015 L -80.8898 23.4333 L -80.8894 23.4325 L -80.8014 23.2696 L -80.801 23.2689 L -80.7069 23.1112 L -80.7065 23.1105 L -80.6071 22.9578 L -80.6066 22.9571 L -80.5027 22.8093 L -80.5023 22.8088 L -80.4189 22.6974 L -80.4185 22.6969 L -80.3331 22.5884 L -80.3326 22.5878 L -80.2202 22.4514 L -80.2197 22.4508 L -80.1052 22.3184 L -80.1047 22.3178 L -79.9889 22.1904 L -79.9883 22.1898 L -79.8719 22.0654 L -79.871 22.0645 L -79.6712 21.8604 L -79.4713 21.6623 L -79.4704 21.6614 L -79.3417 21.5369 L -79.3412 21.5364 L -79.2138 21.4129 L -79.2132 21.4124 L -79.0202 21.2262 L -79.0194 21.2254 L -78.8326 21.0432 L -78.8317 21.0424 L -78.7412 20.9528 L -78.7408 20.9524 L -78.7404 20.952 L -78.6522 20.8634 L -78.6518 20.863 L -78.5661 20.7744 L -78.5658 20.774 L -78.4828 20.6864 L -78.4823 20.6859 L -78.3793 20.5734 L -78.3789 20.5729 L -78.2814 20.4604 L -78.281 20.4599 L -78.1895 20.3484 L -78.1895 20.3484 L -78.1876 20.3464 L -78.1875 20.3461 L -78.1505 20.2983 L -78.1503 20.2981 L -78.1043 20.2374 L -78.104 20.237 L -78.0512 20.1644 L -78.0509 20.164 L -78.0013 20.0914 L -78.001 20.091 L -77.9545 20.0204 L -77.9543 20.02 L -77.9109 19.9484 L -77.9107 19.9481 L -77.8704 19.8784 L -77.8702 19.8781 L -77.8331 19.8074 L -77.8329 19.8071 L -77.7989 19.7374 L -77.7987 19.737 L -77.7678 19.6664 L -77.7677 19.6661 L -77.742 19.6024 L -77.7419 19.6021 L -77.7188 19.5374 L -77.7187 19.5371 L -77.6983 19.4714 L -77.6982 19.4711 L -77.6803 19.4064 L -77.6803 19.4061 L -77.665 19.3394 L -77.665 19.3391 L -77.6523 19.2724 L -77.6523 19.2721 L -77.6422 19.2054 L -77.6422 19.2051 L -77.6347 19.1364 L -77.6347 19.136 L -77.629 19.0514 L -77.629 19.051 L -77.6277 18.9614 L -77.6278 18.9609 L -77.6313 18.8664 L -77.6314 18.8659 L -77.6402 18.7684 L -77.6402 18.7679 L -77.6547 18.6654 L -77.6548 18.6649 L -77.6752 18.5574 L -77.6753 18.5569 L -77.7022 18.4454 L -77.7024 18.4448 L -77.7361 18.3284 L -77.7362 18.328 L -77.7668 18.2354 L -77.767 18.2349 L -77.8019 18.1394 L -77.8021 18.1389 L -77.8416 18.0414 L -77.8418 18.0409 L -77.8861 17.9394 L -77.8863 17.9389 L -77.9355 17.8344 L -77.9358 17.8339 L -77.9901 17.7254 L -77.9903 17.7249 L -78.0499 17.6144 L -78.0502 17.6138 L -78.1152 17.4994 L -78.1155 17.4988 L -78.1861 17.3814 L -78.1865 17.3808 L -78.2629 17.2594 L -78.2632 17.2588 L -78.3456 17.1344 L -78.346 17.1338 L -78.4346 17.0054 L -78.435 17.0048 L -78.5299 16.8734 L -78.5304 16.8728 L -78.6318 16.7374 L -78.6322 16.7367 L -78.7403 16.5974 L -78.7403 16.5973 L -78.7486 16.5874 L -78.7489 16.5871 L -78.8011 16.5224 L -78.8013 16.5221 L -78.8558 16.4544 L -78.8559 16.4542 L -78.8835 16.4184 L -78.8836 16.4182 L -78.9089 16.3814 L -78.909 16.3812 L -78.932 16.3434 L -78.9321 16.3432 L -78.9527 16.3054 L -78.9528 16.3052 L -78.9711 16.2654 L -78.9712 16.2652 L -78.9873 16.2254 L -78.9873 16.2252 L -79.0011 16.1854 L -79.0012 16.1852 L -79.0127 16.1444 L -79.0127 16.1442 L -79.022 16.1024 L -79.022 16.1022 L -79.029 16.0604 L -79.0291 16.06 L -79.0364 15.9774 L -79.0364 15.977 L -79.0348 15.8934 L -79.0347 15.893 L -79.0243 15.8104 L -79.0243 15.8101 L -79.0089 15.7414 L -79.0088 15.7411 L -78.9873 15.6744 L -78.9871 15.6741 L -78.9596 15.6094 L -78.9595 15.6091 L -78.9259 15.5464 L -78.9258 15.5461 L -78.8863 15.4854 L -78.8861 15.4851 L -78.8408 15.4284 L -78.8406 15.4281 L -78.7894 15.3754 L -78.7324 15.3266 L -78.7321 15.3264 L -78.6956 15.2985 L -78.6954 15.2984 L -78.6578 15.2735 L -78.6576 15.2734 L -78.6191 15.2515 L -78.6189 15.2514 L -78.5794 15.2305 L -78.5793 15.2304 L -78.5391 15.2124 L -78.5389 15.2124 L -78.498 15.1974 L -78.4978 15.1974 L -78.4564 15.1834 L -78.4562 15.1834 L -78.4142 15.1724 L -78.4141 15.1724 L -78.3717 15.1634 L -78.3715 15.1634 L -78.3289 15.1564 L -78.3287 15.1564 L -78.243 15.1504 L -78.2426 15.1504 L -78.1568 15.1524 L -78.1565 15.1524 L -78.0714 15.1633 L -78.071 15.1634 L -78.0022 15.1793 L -78.0019 15.1794 L -77.9344 15.2003 L -77.9341 15.2004 L -77.8685 15.2282 L -77.8682 15.2284 L -77.8049 15.2612 L -77.8046 15.2614 L -77.744 15.3002 L -77.7437 15.3004 L -77.6862 15.3442 L -77.686 15.3444 L -77.632 15.3951 L -77.6318 15.3954 L -77.6315 15.3956 L -77.5815 15.4504 L -77.581 15.451 L -77.4643 15.5954 L -77.4638 15.596 L -77.3517 15.7394 L -77.3512 15.74 L -77.2438 15.8814 L -77.2433 15.882 L -77.1406 16.0224 L -77.1401 16.023 L -77.0419 16.1614 L -77.0415 16.162 L -76.9478 16.3004 L -76.9474 16.301 L -76.8584 16.4374 L -76.858 16.438 L -76.7734 16.5734 L -76.7731 16.574 L -76.693 16.7084 L -76.6927 16.709 L -76.6171 16.8424 L -76.6168 16.843 L -76.5457 16.9744 L -76.5454 16.975 L -76.4787 17.1064 L -76.4784 17.107 L -76.4162 17.2364 L -76.416 17.2369 L -76.358 17.3664 L -76.3578 17.3669 L -76.3043 17.4944 L -76.3041 17.4949 L -76.2548 17.6214 L -76.2547 17.6219 L -76.216 17.7304 L -76.2159 17.7308 L -76.1803 17.8374 L -76.1802 17.8378 L -76.1477 17.9444 L -76.1476 17.9448 L -76.1183 18.0514 L -76.1182 18.0518 L -76.092 18.1564 L -76.0919 18.1568 L -76.0688 18.2614 L -76.0687 18.2618 L -76.0487 18.3654 L -76.0487 18.3658 L -76.0316 18.4694 L -76.0316 18.4698 L -76.0177 18.5724 L -76.0177 18.5728 L -76.0067 18.6754 L -76.0067 18.6758 L -75.9988 18.7774 L -75.9988 18.7778 L -75.9939 18.8784 L -75.9939 18.8788 L -75.992 18.9794 L -75.992 18.9798 L -75.9931 19.0804 L -75.9931 19.0808 L -75.9972 19.1804 L -75.9973 19.1808 L -76.0042 19.2794 L -76.0043 19.28 L -76.0201 19.4214 L -76.0202 19.422 L -76.0417 19.5604 L -76.0418 19.561 L -76.0686 19.6964 L -76.0688 19.697 L -76.1008 19.8294 L -76.101 19.8298 L -76.1277 19.9254 L -76.1279 19.9258 L -76.1572 20.0204 L -76.1574 20.0208 L -76.1891 20.1134 L -76.1893 20.1138 L -76.2234 20.2044 L -76.2236 20.2048 L -76.26 20.2944 L -76.2602 20.2948 L -76.2988 20.3824 L -76.299 20.3828 L -76.3396 20.4694 L -76.3398 20.4697 L -76.3823 20.5544 L -76.3827 20.5551 L -76.4733 20.7204 L -76.4738 20.7211 L -76.5708 20.8814 L -76.5713 20.8821 L -76.6741 21.0374 L -76.6746 21.038 L -76.7823 21.1874 L -76.7827 21.1878 L -76.8578 21.2864 L -76.8582 21.2868 L -76.935 21.3834 L -76.9355 21.384 L -77.0516 21.5224 L -77.0521 21.523 L -77.1703 21.6574 L -77.1708 21.6579 L -77.2904 21.7884 L -77.2909 21.7889 L -77.411 21.9154 L -77.4118 21.9163 L -77.6122 22.1184 L -77.8125 22.3155 L -77.8134 22.3164 L -78.0648 22.5593 L -78.0659 22.5604 L -78.2593 22.7475 L -78.2602 22.7484 L -78.4474 22.9315 L -78.4482 22.9324 L -78.4486 22.9328 L -78.5393 23.0236 L -78.5397 23.024 L -78.6281 23.1142 L -78.6285 23.1146 L -78.7144 23.2042 L -78.7148 23.2046 L -78.798 23.2939 L -78.7984 23.2944 L -78.8996 23.4071 L -78.9001 23.4076 L -78.996 23.5199 L -78.9964 23.5204 z  M -5.11068 50.405 L -3.47453 52.9053 L -22.782 66.4245 L -45.2659 82.1679 L -46.6003 83.1022 L -51.8502 86.7783 L -52.6752 87.356 L -54.26 84.8197 L -54.2671 84.8083 L -56.8333 81.5237 L -56.8448 81.509 L -59.7403 78.5107 L -59.7533 78.4973 L -59.7677 78.4852 L -62.9606 75.806 L -62.9761 75.7955 L -66.4317 73.4647 L -66.4483 73.4559 L -70.1285 71.4991 L -70.1459 71.4921 L -74.0105 69.9307 L -74.0285 69.9255 L -78.0352 68.7766 L -78.0536 68.7733 L -82.1585 68.0496 L -82.1771 68.0483 L -86.3351 67.7575 L -86.3538 67.7581 L -90.5195 67.9036 L -90.538 67.9062 L -94.6656 68.4863 L -94.6838 68.4908 L -98.7281 69.4992 L -98.7457 69.5056 L -102.662 70.9312 L -102.679 70.9394 L -106.426 72.7666 L -106.441 72.7765 L -109.976 74.9853 L -109.987 74.9935 L -112.179 76.7063 L -112.344 76.8348 L -116.597 70.7599 L -117.532 69.4254 L -133.275 46.9415 L -146.794 27.6342 L -144.402 25.8442 L -144.391 25.8362 L -144.367 25.8208 L -139.134 22.3964 L -139.11 22.3825 L -133.672 19.2934 L -133.647 19.2811 L -128.026 16.5394 L -128 16.5287 L -122.217 14.1454 L -122.191 14.1363 L -116.27 12.1214 L -116.243 12.114 L -110.208 10.4734 L -110.181 10.4677 L -104.054 9.21037 L -104.026 9.20646 L -97.8331 8.33636 L -97.8051 8.33421 L -91.5695 7.85437 L -91.5415 7.85397 L -85.288 7.76637 L -85.2599 7.76774 L -79.0133 8.07337 L -78.9854 8.0765 L -72.7703 8.77337 L -72.7427 8.77825 L -66.5836 9.86437 L -66.5563 9.87097 L -60.4776 11.3414 L -60.4508 11.3497 L -54.4764 13.1994 L -54.4502 13.2093 L -48.6037 15.4304 L -48.5782 15.442 L -42.8826 18.0254 L -42.8578 18.0386 L -37.3358 20.9744 L -37.3119 20.9891 L -31.9851 24.2666 L -31.9622 24.2828 L -26.8517 27.8879 L -26.8298 27.9055 L -21.9558 31.8243 L -21.9351 31.8432 L -17.3167 36.0603 L -12.9722 40.5591 L -12.9527 40.5793 L -8.89943 45.342 L -8.88122 45.3634 L -5.13485 50.3713 L -5.11803 50.3938 z  " fill= "none" stroke="rgb(0,0,255)" stroke-width="0.05mm" />
</svg>
