<?xml version="1.0" standalone="no"?>
<!DOCTYPE svg PUBLIC "-//W3C//DTD SVG 1.1//EN"
"http://www.w3.org/Graphics/SVG/1.1/DTD/svg11.dtd">
<svg width="217.691mm" height="210.1mm" viewBox="-64.7956 -68.05 217.691 210.1" xmlns="http://www.w3.org/2000/svg" version = "1.1">
<title>Untitled</title>
<desc> made with 123D Design </desc>
<path d="M 99.5 -49.8333 L 99.5 -40.5 L 102.125 -40.5 L 104 -40.5 L 104 -47.1667 L 104 -56.5 L 101.375 -56.5 L 99.5 -56.5 z  M 125.4 20.0729 L 126.601 19.5384 L 127.565 19.3335 L 128.85 19.0603 L 129.836 19.0603 L 131.15 19.0603 L 132.114 19.2652 L 133.399 19.5384 L 134.299 19.9392 L 135.5 20.4737 L 136.297 21.053 L 137.36 21.8254 L 138.239 22.802 L 138.899 23.5344 L 139.556 24.6724 L 140.049 25.5259 L 140.455 26.7757 L 140.76 27.713 L 140.897 29.0199 L 141 30 L 140.863 31.3069 L 140.76 32.287 L 140.354 33.5368 L 140.049 34.4741 L 139.392 35.6121 L 138.899 36.4656 L 138.02 37.4422 L 137.36 38.1746 L 136.563 38.7539 L 135.5 39.5263 L 134.6 39.9271 L 133.399 40.4616 L 132.435 40.6665 L 131.15 40.9397 L 130.164 40.9397 L 128.85 40.9397 L 127.886 40.7348 L 126.601 40.4616 L 125.701 40.0608 L 124.5 39.5263 L 123.703 38.947 L 122.64 38.1746 L 121.761 37.198 L 121.101 36.4656 L 120.444 35.3276 L 119.951 34.4741 L 119.545 33.2243 L 119.24 32.287 L 119.103 30.9801 L 119 30 L 119.137 28.6931 L 119.24 27.713 L 119.646 26.4632 L 119.951 25.5259 L 120.608 24.3879 L 121.101 23.5344 L 121.98 22.5578 L 122.64 21.8254 L 123.437 21.2461 L 124.5 20.4737 z  M 15.7575 -2.30696 L 15.8106 -1.80194 L 28.101 -1.80194 L 44.8106 -1.80194 L 44.4741 -5.00343 L 44.0166 -9.35603 L 43.6335 -10.5351 L 43.1067 -12.1565 L 25.7697 -6.52333 L 22.8656 -5.57974 L 21.7535 -5.21841 L 15.6596 -3.23838 L 15.7366 -2.50548 z  M -50.1541 -22.3301 L -45.9074 -29.6857 L -44.4154 -32.2697 L -38.7322 -38.5817 L -36.7356 -40.7991 L -29.8642 -45.7914 L -27.4503 -47.5453 L -19.691 -50.9999 L -16.9652 -52.2135 L -8.65727 -53.9794 L -5.73867 -54.5998 L -2.75486 -54.5998 L 5.73867 -54.5998 L 14.0466 -52.8339 L 16.9652 -52.2135 L 24.7244 -48.7589 L 27.4503 -47.5453 L 34.3217 -42.5529 L 36.7356 -40.7991 L 42.4189 -34.4871 L 44.4154 -32.2697 L 48.6622 -24.9141 L 50.1541 -22.3301 L 52.7788 -14.2522 L 53.7008 -11.4144 L 54.5886 -2.96746 L 54.9005 0 L 54.0127 8.44697 L 53.7008 11.4144 L 51.0762 19.4923 L 50.1541 22.3301 L 45.9074 29.6857 L 44.4154 32.2697 L 38.7322 38.5817 L 36.7356 40.7991 L 29.8642 45.7914 L 27.4503 47.5453 L 19.691 50.9999 L 16.9652 52.2135 L 8.65727 53.9794 L 5.73867 54.5998 L 2.75486 54.5998 L -5.73867 54.5998 L -14.0466 52.8339 L -16.9652 52.2135 L -24.7244 48.7589 L -27.4503 47.5453 L -34.3217 42.5529 L -36.7356 40.7991 L -42.4189 34.4871 L -44.4154 32.2697 L -48.6622 24.9141 L -50.1541 22.3301 L -52.7788 14.2522 L -53.7008 11.4144 L -54.5886 2.96746 L -54.9005 0 L -54.0127 -8.44697 L -53.7008 -11.4144 L -51.0762 -19.4923 z  M 110.5 -56.5 L 110.5 -47.1667 L 110.5 -40.5 L 108.625 -40.5 L 106 -40.5 L 106 -49.8333 L 106 -56.5 L 107.875 -56.5 z  M -4.70378 -44.7535 L -3.03176 -44.7535 L -1.80194 -44.7535 L -1.80194 -28.1196 L -1.80194 -15.8848 L -2.30003 -15.7789 L -2.49158 -15.7382 L -3.21402 -15.5846 L -5.22409 -21.771 L -5.57974 -22.8656 L -6.51472 -25.7431 L -12.1755 -43.1653 L -10.9051 -43.4354 z  M 127.006 -2.65249 L 127.681 -3.11859 L 128.582 -3.74006 L 129.396 -3.83896 L 130.482 -3.97083 L 131.249 -3.67987 L 132.272 -3.29193 L 132.998 -2.47305 L 133.542 -1.85889 L 133.804 -0.796667 L 134 0 L 133.738 1.06222 L 133.542 1.85889 L 132.816 2.67777 L 132.272 3.29193 L 131.505 3.58289 L 130.482 3.97083 L 129.668 3.87193 L 128.582 3.74006 L 127.907 3.27396 L 127.006 2.65249 L 126.497 1.68379 L 126.116 0.957262 L 126.116 -0.136752 L 126.116 -0.957262 L 126.625 -1.92596 z  M -30.1109 -33.4415 L -34.6834 -28.3633 L -35.2222 -27.7649 L -30.1752 -24.098 L -29.3278 -23.4824 L -26.6523 -21.5385 L -11.7606 -10.7191 L -11.1354 -11.4135 L -10.7947 -11.7919 L -17.9861 -21.6901 L -27.7632 -35.1472 L -28.7582 -34.4243 z  M 24.8822 37.2404 L 14.1673 22.4926 L 12.3725 20.0223 L 11.6852 19.0763 L 7.91897 13.8925 L 7.24575 14.1923 L 7.06339 14.2734 L 6.59949 14.48 L 10.3975 26.1689 L 15.561 42.0606 L 18.5018 40.7512 L 22.5 38.9711 L 23.503 38.2424 z  M -15.6642 -3.19494 L -27.3002 -6.97568 L -43.1199 -12.1158 L -43.4999 -10.9462 L -44.0166 -9.35603 L -44.6793 -3.05086 L -44.8151 -1.75921 L -35.542 -1.75921 L -15.8151 -1.75921 L -15.7174 -2.68851 z  M -21.8552 -8.95094 L -14.5724 -6.5846 L -14.1041 -7.39567 L -13.8502 -7.83544 L -23.7934 -15.0596 L -37.3117 -24.8812 L -38.9212 -22.0933 L -41.1095 -18.3031 L -41.4511 -17.2518 L -42.0195 -15.5027 L -36.1488 -13.5952 L -35.1489 -13.2703 L -31.9846 -12.2422 z  M 26.6523 21.5385 L 11.7606 10.7191 L 11.1354 11.4135 L 10.7947 11.7919 L 17.9861 21.6901 L 17.9861 21.6901 L 27.7632 35.1472 L 28.7582 34.4243 L 30.1109 33.4415 L 34.6834 28.3633 L 35.2222 27.7649 L 30.1752 24.098 L 29.3278 23.4824 z  M 8.98472 -43.8436 L 4.70378 -44.7535 L 3.59842 -44.7535 L 1.75921 -44.7535 L 1.75921 -23.5515 L 1.75921 -15.8939 L 2.6753 -15.6992 L 3.172 -15.5936 L 6.96996 -27.2825 L 12.1335 -43.1743 z  M 112.5 -58.5 L 112.5 -50.1667 L 112.5 -38.5 L 109.966 -38.5 L 108.852 -38.5 L 108.852 -34.3925 L 108.852 -30 L 104.986 -30 L 101.148 -30 L 101.148 -34.1075 L 101.148 -38.5 L 100.034 -38.5 L 97.5 -38.5 L 97.5 -46.8333 L 97.5 -58.5 L 106.25 -58.5 z  M 121.407 103.877 L 121.449 104.272 L 122.136 110.811 L 123.883 116.187 L 125.496 121.15 L 128.322 126.046 L 130.931 130.565 L 131.837 131.571 L 132.674 132.5 L 134.03 132.5 L 135.5 132.5 L 135.5 131.041 L 135.5 129.694 L 134.807 128.924 L 134.167 128.214 L 131.558 123.695 L 129.15 119.523 L 127.537 114.561 L 126.049 109.98 L 125.504 104.79 L 125 100 L 125.545 94.8105 L 126.049 90.0202 L 127.662 85.0575 L 129.15 80.4766 L 131.759 75.9576 L 134.167 71.7863 L 134.86 71.0166 L 135.5 70.3061 L 135.5 68.8469 L 135.5 67.5 L 134.144 67.5 L 132.674 67.5 L 131.768 68.5063 L 130.931 69.4352 L 128.105 74.3307 L 125.496 78.8497 L 123.749 84.2259 L 122.136 89.1886 L 121.433 95.8808 L 121.408 96.1162 L 107.514 96.1162 L 63.2349 96.1162 L 63.1573 96.1068 L 62.5179 96.0292 L 62.4033 96.0726 L 62.2883 96.1162 L 61.5035 96.4139 L 60.7277 96.7081 L 60.5855 96.8686 L 60.4638 97.006 L 59.9136 97.6271 L 59.4582 98.1411 L 59.3999 98.3775 L 59.3496 98.5816 L 59.163 99.3387 L 59 100 L 59.0631 100.256 L 59.1188 100.482 L 59.2931 101.189 L 59.4582 101.859 L 59.6498 102.075 L 59.8244 102.272 L 60.2726 102.778 L 60.7277 103.292 L 61.0684 103.421 L 61.3866 103.542 L 61.9341 103.75 L 62.5179 103.971 L 62.9676 103.916 L 62.9942 103.913 L 63 103.912 L 63.2926 103.877 L 63.6725 103.877 L 94.3948 103.877 L 106.165 103.877 z  M -15.8106 1.80194 L -28.101 1.80194 L -44.8106 1.80194 L -44.4741 5.00343 L -44.0166 9.35603 L -43.6335 10.5351 L -43.1067 12.1565 L -25.7697 6.52333 L -22.8656 5.57974 L -21.7535 5.21841 L -15.6596 3.23838 L -15.7366 2.50548 L -15.7575 2.30696 z  M -11.7319 10.751 L -21.6751 17.9752 L -35.1934 27.7968 L -33.0394 30.1891 L -30.1109 33.4415 L -29.2167 34.0912 L -27.7287 35.1723 L -24.1004 30.1784 L -23.4824 29.3278 L -21.5268 26.6362 L -15.2665 18.0196 L -10.7655 11.8244 L -11.3921 11.1284 z  M 117 17.1429 L 117 0 L 117.122 -1.15836 L 117.284 -2.70285 L 117.644 -3.81059 L 118.124 -5.28758 L 118.706 -6.29628 L 119.483 -7.64121 L 120.262 -8.50678 L 121.301 -9.66088 L 122.558 -10.5737 L 123.5 -11.2583 L 124.919 -11.89 L 125.983 -12.3637 L 127.502 -12.6866 L 128.641 -12.9288 L 130.194 -12.9288 L 131.359 -12.9288 L 132.878 -12.6059 L 134.017 -12.3637 L 135.436 -11.732 L 136.5 -11.2583 L 137.757 -10.3455 L 138.699 -9.66088 L 139.478 -8.79531 L 140.517 -7.64121 L 141.099 -6.63251 L 141.876 -5.28758 L 142.236 -4.17984 L 142.716 -2.70285 L 142.838 -1.54449 L 143 0 L 143 12.8571 L 143 30 L 142.878 31.1584 L 142.716 32.7029 L 142.356 33.8106 L 141.876 35.2876 L 141.294 36.2963 L 140.517 37.6412 L 139.738 38.5068 L 138.699 39.6609 L 137.442 40.5737 L 136.5 41.2583 L 135.081 41.89 L 134.017 42.3637 L 132.498 42.6866 L 131.359 42.9288 L 129.806 42.9288 L 128.641 42.9288 L 127.122 42.6059 L 125.983 42.3637 L 124.564 41.732 L 123.5 41.2583 L 122.243 40.3455 L 121.301 39.6609 L 120.522 38.7953 L 119.483 37.6412 L 118.901 36.6325 L 118.124 35.2876 L 117.764 34.1799 L 117.284 32.7029 L 117.162 31.5445 L 117 30 z  M -18.5018 -40.7512 L -22.5 -38.9711 L -23.503 -38.2424 L -24.8822 -37.2404 L -14.1673 -22.4926 L -12.3725 -20.0223 L -11.6852 -19.0763 L -7.91897 -13.8925 L -7.24575 -14.1923 L -7.06339 -14.2734 L -6.59949 -14.48 L -10.3975 -26.1689 L -15.561 -42.0606 z  M 108 0 L 108 12.8571 L 108 30 L 107.878 31.1584 L 107.716 32.7029 L 107.356 33.8106 L 106.876 35.2876 L 106.294 36.2963 L 105.517 37.6412 L 104.738 38.5068 L 103.699 39.6609 L 102.442 40.5737 L 101.5 41.2583 L 100.081 41.89 L 99.0172 42.3637 L 97.4982 42.6866 L 96.3589 42.9288 L 94.8059 42.9288 L 93.6411 42.9288 L 92.1221 42.6059 L 90.9828 42.3637 L 89.5641 41.732 L 88.5 41.2583 L 87.2436 40.3455 L 86.3013 39.6609 L 85.5219 38.7953 L 84.4828 37.6412 L 83.9004 36.6325 L 83.1239 35.2876 L 82.764 34.1799 L 82.2841 32.7029 L 82.1623 31.5445 L 82 30 L 82 17.1429 L 82 0 L 82.1218 -1.15836 L 82.2841 -2.70285 L 82.644 -3.81059 L 83.1239 -5.28758 L 83.7063 -6.29628 L 84.4828 -7.64121 L 85.2622 -8.50678 L 86.3013 -9.66088 L 87.5577 -10.5737 L 88.5 -11.2583 L 89.9187 -11.89 L 90.9828 -12.3637 L 92.5018 -12.6866 L 93.6411 -12.9288 L 95.1941 -12.9288 L 96.3589 -12.9288 L 97.8779 -12.6059 L 99.0172 -12.3637 L 100.436 -11.732 L 101.5 -11.2583 L 102.757 -10.3455 L 103.699 -9.66088 L 104.478 -8.79531 L 105.517 -7.64121 L 106.099 -6.63251 L 106.876 -5.28758 L 107.236 -4.17984 L 107.716 -2.70285 L 107.838 -1.54449 z  M -7.41388 14.1173 L -7.87907 13.9102 L -11.4748 18.8593 L -24.8476 37.2655 L -24.1124 37.7996 L -22.5 38.9711 L -16.7082 41.5498 L -16.2573 41.7505 L -15.5217 42.078 L -13.594 36.1449 L -13.2703 35.1488 L -12.2483 32.0036 L -6.56025 14.4974 z  M 21.6751 -17.9752 L 11.7319 -10.751 L 11.3921 -11.1284 L 10.7655 -11.8244 L 15.2665 -18.0196 L 21.5268 -26.6362 L 23.4824 -29.3278 L 24.1004 -30.1784 L 27.7287 -35.1723 L 29.2167 -34.0912 L 30.1109 -33.4415 L 33.0394 -30.1891 L 35.1934 -27.7968 z  M 4.70378 44.7535 L 3.03176 44.7535 L 1.80194 44.7535 L 1.80194 28.1196 L 1.80194 15.8848 L 2.30003 15.7789 L 2.49158 15.7382 L 3.21402 15.5846 L 5.22409 21.771 L 5.57974 22.8656 L 6.51472 25.7431 L 12.1755 43.1653 L 10.9051 43.4354 z  M 22.5 -38.9711 L 16.2573 -41.7505 L 15.5217 -42.078 L 13.594 -36.1449 L 13.2703 -35.1488 L 12.2483 -32.0036 L 6.56025 -14.4974 L 7.41388 -14.1173 L 7.87907 -13.9102 L 15.0705 -23.8084 L 24.8476 -37.2655 L 23.8527 -37.9883 z  M 69.8821 0 L 66.1162 0 L 66.1162 -5.97096 L 66.1162 -25 L 69.8821 -25 L 73.8768 -25 L 73.8768 -6.72444 L 73.8768 0 z  M 44.0166 9.35603 L 43.4999 10.9462 L 43.1199 12.1158 L 27.3002 6.97568 L 15.6642 3.19494 L 15.7174 2.68851 L 15.8151 1.75921 L 35.542 1.75921 L 44.8151 1.75921 L 44.6793 3.05086 z  M 121.148 -34.1075 L 121.148 -38.5 L 120.034 -38.5 L 117.5 -38.5 L 117.5 -46.8333 L 117.5 -58.5 L 126.25 -58.5 L 132.5 -58.5 L 132.5 -50.1667 L 132.5 -38.5 L 129.966 -38.5 L 128.852 -38.5 L 128.852 -34.3925 L 128.852 -30 L 124.986 -30 L 121.148 -30 z  M -1.75921 44.7535 L -3.59842 44.7535 L -4.70378 44.7535 L -8.98472 43.8436 L -12.1335 43.1743 L -6.96996 27.2825 L -3.172 15.5936 L -2.6753 15.6992 L -1.75921 15.8939 L -1.75921 23.5515 z  M 14.198 -7.23302 L 13.8287 -7.87265 L 19.0912 -11.696 L 20.0223 -12.3725 L 22.47 -14.1509 L 37.2902 -24.9184 L 37.9396 -23.7936 L 41.1095 -18.3031 L 41.6262 -16.7129 L 42.0063 -15.5433 L 26.1865 -10.4032 L 14.5505 -6.62243 L 14.2959 -7.06342 z  M 93.8502 19.0603 L 94.8357 19.0603 L 96.1498 19.0603 L 97.1138 19.2652 L 98.3992 19.5384 L 99.2995 19.9392 L 100.5 20.4737 L 101.297 21.053 L 102.36 21.8254 L 103.239 22.802 L 103.899 23.5344 L 104.556 24.6724 L 105.049 25.5259 L 105.455 26.7757 L 105.76 27.713 L 105.897 29.0199 L 106 30 L 105.863 31.3069 L 105.76 32.287 L 105.354 33.5368 L 105.049 34.4741 L 104.392 35.6121 L 103.899 36.4656 L 103.02 37.4422 L 102.36 38.1746 L 101.563 38.7539 L 100.5 39.5263 L 99.5997 39.9271 L 98.3992 40.4616 L 97.4352 40.6665 L 96.1498 40.9397 L 95.1643 40.9397 L 93.8502 40.9397 L 92.8862 40.7348 L 91.6008 40.4616 L 90.7005 40.0608 L 89.5 39.5263 L 88.7027 38.947 L 87.6396 38.1746 L 86.7603 37.198 L 86.1008 36.4656 L 85.4438 35.3276 L 84.951 34.4741 L 84.5449 33.2243 L 84.2404 32.287 L 84.103 30.9801 L 84 30 L 84.1374 28.6931 L 84.2404 27.713 L 84.6465 26.4632 L 84.951 25.5259 L 85.608 24.3879 L 86.1008 23.5344 L 86.9801 22.5578 L 87.6396 21.8254 L 88.4369 21.2461 L 89.5 20.4737 L 90.4003 20.0729 L 91.6008 19.5384 L 92.5648 19.3335 z  M 124 -56.5 L 124 -47.1667 L 124 -40.5 L 122.125 -40.5 L 119.5 -40.5 L 119.5 -49.8333 L 119.5 -56.5 L 121.375 -56.5 z  M 130.5 -56.5 L 130.5 -47.1667 L 130.5 -40.5 L 128.625 -40.5 L 126 -40.5 L 126 -49.8333 L 126 -56.5 L 127.875 -56.5 z  M 23.7934 15.0596 L 13.8502 7.83544 L 14.1041 7.39567 L 14.5724 6.5846 L 21.8552 8.95094 L 31.9846 12.2422 L 35.1489 13.2703 L 36.1488 13.5952 L 42.0195 15.5027 L 41.4511 17.2518 L 41.1095 18.3031 L 38.9212 22.0933 L 37.3117 24.8812 z  M -13.8287 7.87265 L -14.198 7.23302 L -14.2959 7.06342 L -14.5505 6.62243 L -26.1865 10.4032 L -42.0063 15.5433 L -41.6262 16.7129 L -41.1095 18.3031 L -37.9396 23.7936 L -37.2902 24.9184 L -22.47 14.1509 L -20.0223 12.3725 L -19.0912 11.696 z  M 92.006 -2.65249 L 92.6813 -3.11859 L 93.5816 -3.74006 L 94.3961 -3.83896 L 95.4821 -3.97083 L 96.2493 -3.67987 L 97.2723 -3.29193 L 97.9977 -2.47305 L 98.5418 -1.85889 L 98.8036 -0.796667 L 99 0 L 98.7382 1.06222 L 98.5418 1.85889 L 97.8164 2.67777 L 97.2723 3.29193 L 96.5051 3.58289 L 95.4821 3.97083 L 94.6676 3.87193 L 93.5816 3.74006 L 92.9063 3.27396 L 92.006 2.65249 L 91.4975 1.68379 L 91.1162 0.957262 L 91.1162 -0.136752 L 91.1162 -0.957262 L 91.6247 -1.92596 z  " fill= "none" stroke="rgb(0,0,255)" stroke-width="0.05mm" />
</svg>
