  0
SECTION
  2
BLOCKS
  0
ENDSEC
  0
SECTION
  2
ENTITIES
  0
LINE
  8
0
 10
26.2664
 20
-80.8398
 11
42.5
 21
-73.6122
  0
LINE
  8
0
 10
42.5
 20
-73.6122
 11
56.8761
 21
-63.1673
  0
LINE
  8
0
 10
56.8761
 20
-63.1673
 11
68.7664
 21
-49.9617
  0
LINE
  8
0
 10
68.7664
 20
-49.9617
 11
77.6514
 21
-34.5726
  0
LINE
  8
0
 10
77.6514
 20
-34.5726
 11
83.1425
 21
-17.6725
  0
LINE
  8
0
 10
83.1425
 20
-17.6725
 11
85
 21
0
  0
LINE
  8
0
 10
85
 20
0
 11
83.1425
 21
17.6725
  0
LINE
  8
0
 10
83.1425
 20
17.6725
 11
77.6514
 21
34.5726
  0
LINE
  8
0
 10
77.6514
 20
34.5726
 11
68.7664
 21
49.9617
  0
LINE
  8
0
 10
68.7664
 20
49.9617
 11
56.8761
 21
63.1673
  0
LINE
  8
0
 10
56.8761
 20
63.1673
 11
42.5
 21
73.6122
  0
LINE
  8
0
 10
42.5
 20
73.6122
 11
26.2664
 21
80.8398
  0
LINE
  8
0
 10
26.2664
 20
80.8398
 11
8.88492
 21
84.5344
  0
LINE
  8
0
 10
8.88492
 20
84.5344
 11
-8.88492
 21
84.5344
  0
LINE
  8
0
 10
-8.88492
 20
84.5344
 11
-26.2664
 21
80.8398
  0
LINE
  8
0
 10
-26.2664
 20
80.8398
 11
-42.5
 21
73.6122
  0
LINE
  8
0
 10
-42.5
 20
73.6122
 11
-56.8761
 21
63.1673
  0
LINE
  8
0
 10
-56.8761
 20
63.1673
 11
-68.7664
 21
49.9617
  0
LINE
  8
0
 10
-68.7664
 20
49.9617
 11
-77.6514
 21
34.5726
  0
LINE
  8
0
 10
-77.6514
 20
34.5726
 11
-83.1425
 21
17.6725
  0
LINE
  8
0
 10
-83.1425
 20
17.6725
 11
-85
 21
0
  0
LINE
  8
0
 10
-85
 20
0
 11
-83.1425
 21
-17.6725
  0
LINE
  8
0
 10
-83.1425
 20
-17.6725
 11
-77.6514
 21
-34.5726
  0
LINE
  8
0
 10
-77.6514
 20
-34.5726
 11
-68.7664
 21
-49.9617
  0
LINE
  8
0
 10
-68.7664
 20
-49.9617
 11
-56.8761
 21
-63.1673
  0
LINE
  8
0
 10
-56.8761
 20
-63.1673
 11
-42.5
 21
-73.6122
  0
LINE
  8
0
 10
-42.5
 20
-73.6122
 11
-26.2664
 21
-80.8398
  0
LINE
  8
0
 10
-26.2664
 20
-80.8398
 11
-8.88492
 21
-84.5344
  0
LINE
  8
0
 10
-8.88492
 20
-84.5344
 11
8.88492
 21
-84.5344
  0
LINE
  8
0
 10
8.88492
 20
-84.5344
 11
26.2664
 21
-80.8398
  0
LINE
  8
0
 10
3
 20
68.622
 11
7.21246
 21
68.622
  0
LINE
  8
0
 10
7.21246
 20
68.622
 11
18.3716
 21
66.2501
  0
LINE
  8
0
 10
18.3716
 20
66.2501
 11
3
 21
18.9413
  0
LINE
  8
0
 10
3
 20
18.9413
 11
3
 21
68.622
  0
LINE
  8
0
 10
-18.3716
 20
66.2501
 11
-7.21246
 21
68.622
  0
LINE
  8
0
 10
-7.21246
 20
68.622
 11
-2.99998
 21
68.622
  0
LINE
  8
0
 10
-2.99998
 20
68.622
 11
-2.99998
 21
18.9413
  0
LINE
  8
0
 10
-2.99998
 20
18.9413
 11
-18.3716
 21
66.2501
  0
LINE
  8
0
 10
-37.9079
 20
57.2797
 11
-34.5
 21
59.7558
  0
LINE
  8
0
 10
-34.5
 20
59.7558
 11
-24.0779
 21
64.396
  0
LINE
  8
0
 10
-24.0779
 20
64.396
 11
-8.70633
 21
17.0871
  0
LINE
  8
0
 10
-8.70633
 20
17.0871
 11
-37.9079
 21
57.2797
  0
LINE
  8
0
 10
24.0779
 20
64.396
 11
34.5
 21
59.7558
  0
LINE
  8
0
 10
34.5
 20
59.7558
 11
37.9079
 21
57.2797
  0
LINE
  8
0
 10
37.9079
 20
57.2797
 11
8.70633
 21
17.0871
  0
LINE
  8
0
 10
8.70633
 20
17.0871
 11
24.0779
 21
64.396
  0
LINE
  8
0
 10
42.7621
 20
53.753
 11
46.17
 21
51.277
  0
LINE
  8
0
 10
46.17
 20
51.277
 11
53.8037
 21
42.7989
  0
LINE
  8
0
 10
53.8037
 20
42.7989
 11
13.5604
 21
13.5604
  0
LINE
  8
0
 10
13.5604
 20
13.5604
 11
42.7621
 21
53.753
  0
LINE
  8
0
 10
-53.8037
 20
42.7989
 11
-46.17
 21
51.277
  0
LINE
  8
0
 10
-46.17
 20
51.277
 11
-42.7621
 21
53.753
  0
LINE
  8
0
 10
-42.7621
 20
53.753
 11
-13.5604
 21
13.5604
  0
LINE
  8
0
 10
-13.5604
 20
13.5604
 11
-53.8037
 21
42.7989
  0
LINE
  8
0
 10
-64.3363
 20
24.0585
 11
-63.0346
 21
28.0648
  0
LINE
  8
0
 10
-63.0346
 20
28.0648
 11
-57.3304
 21
37.9448
  0
LINE
  8
0
 10
-57.3304
 20
37.9448
 11
-17.0871
 21
8.70633
  0
LINE
  8
0
 10
-17.0871
 20
8.70633
 11
-64.3363
 21
24.0585
  0
LINE
  8
0
 10
57.3304
 20
37.9448
 11
63.0346
 21
28.0648
  0
LINE
  8
0
 10
63.0346
 20
28.0648
 11
64.3363
 21
24.0585
  0
LINE
  8
0
 10
64.3363
 20
24.0585
 11
17.0871
 21
8.70633
  0
LINE
  8
0
 10
17.0871
 20
8.70633
 11
57.3304
 21
37.9448
  0
LINE
  8
0
 10
18.9413
 20
2.99998
 11
66.1905
 21
18.3522
  0
LINE
  8
0
 10
66.1905
 20
18.3522
 11
67.4922
 21
14.3459
  0
LINE
  8
0
 10
67.4922
 20
14.3459
 11
68.6847
 21
2.99998
  0
LINE
  8
0
 10
68.6847
 20
2.99998
 11
18.9413
 21
2.99998
  0
LINE
  8
0
 10
-68.6847
 20
3
 11
-67.4922
 21
14.3459
  0
LINE
  8
0
 10
-67.4922
 20
14.3459
 11
-66.1905
 21
18.3522
  0
LINE
  8
0
 10
-66.1905
 20
18.3522
 11
-18.9413
 21
3
  0
LINE
  8
0
 10
-18.9413
 20
3
 11
-68.6847
 21
3
  0
LINE
  8
0
 10
-67.4922
 20
-14.3459
 11
-68.6847
 21
-2.99998
  0
LINE
  8
0
 10
-68.6847
 20
-2.99998
 11
-18.9413
 21
-2.99998
  0
LINE
  8
0
 10
-18.9413
 20
-2.99998
 11
-66.1905
 21
-18.3522
  0
LINE
  8
0
 10
-66.1905
 20
-18.3522
 11
-67.4922
 21
-14.3459
  0
LINE
  8
0
 10
68.6847
 20
-3
 11
67.4922
 21
-14.3459
  0
LINE
  8
0
 10
67.4922
 20
-14.3459
 11
66.1905
 21
-18.3522
  0
LINE
  8
0
 10
66.1905
 20
-18.3522
 11
18.9413
 21
-3
  0
LINE
  8
0
 10
18.9413
 20
-3
 11
68.6847
 21
-3
  0
LINE
  8
0
 10
-64.3363
 20
-24.0585
 11
-17.0871
 21
-8.70633
  0
LINE
  8
0
 10
-17.0871
 20
-8.70633
 11
-57.3304
 21
-37.9448
  0
LINE
  8
0
 10
-57.3304
 20
-37.9448
 11
-63.0346
 21
-28.0648
  0
LINE
  8
0
 10
-63.0346
 20
-28.0648
 11
-64.3363
 21
-24.0585
  0
LINE
  8
0
 10
17.0871
 20
-8.70633
 11
64.3363
 21
-24.0585
  0
LINE
  8
0
 10
64.3363
 20
-24.0585
 11
63.0346
 21
-28.0648
  0
LINE
  8
0
 10
63.0346
 20
-28.0648
 11
57.3304
 21
-37.9448
  0
LINE
  8
0
 10
57.3304
 20
-37.9448
 11
17.0871
 21
-8.70633
  0
LINE
  8
0
 10
-53.8037
 20
-42.7989
 11
-13.5604
 21
-13.5604
  0
LINE
  8
0
 10
-13.5604
 20
-13.5604
 11
-42.7621
 21
-53.753
  0
LINE
  8
0
 10
-42.7621
 20
-53.753
 11
-46.17
 21
-51.277
  0
LINE
  8
0
 10
-46.17
 20
-51.277
 11
-53.8037
 21
-42.7989
  0
LINE
  8
0
 10
13.5604
 20
-13.5604
 11
53.8037
 21
-42.7989
  0
LINE
  8
0
 10
53.8037
 20
-42.7989
 11
46.17
 21
-51.277
  0
LINE
  8
0
 10
46.17
 20
-51.277
 11
42.7621
 21
-53.753
  0
LINE
  8
0
 10
42.7621
 20
-53.753
 11
13.5604
 21
-13.5604
  0
LINE
  8
0
 10
8.70633
 20
-17.0871
 11
37.9079
 21
-57.2797
  0
LINE
  8
0
 10
37.9079
 20
-57.2797
 11
34.5
 21
-59.7558
  0
LINE
  8
0
 10
34.5
 20
-59.7558
 11
24.0779
 21
-64.396
  0
LINE
  8
0
 10
24.0779
 20
-64.396
 11
8.70633
 21
-17.0871
  0
LINE
  8
0
 10
-7.21246
 20
-68.622
 11
-18.3716
 21
-66.2501
  0
LINE
  8
0
 10
-18.3716
 20
-66.2501
 11
-3
 21
-18.9413
  0
LINE
  8
0
 10
-3
 20
-18.9413
 11
-3
 21
-68.622
  0
LINE
  8
0
 10
-3
 20
-68.622
 11
-7.21246
 21
-68.622
  0
LINE
  8
0
 10
3
 20
-68.622
 11
3
 21
-18.9413
  0
LINE
  8
0
 10
3
 20
-18.9413
 11
18.3716
 21
-66.2501
  0
LINE
  8
0
 10
18.3716
 20
-66.2501
 11
7.21246
 21
-68.622
  0
LINE
  8
0
 10
7.21246
 20
-68.622
 11
3
 21
-68.622
  0
LINE
  8
0
 10
-37.9079
 20
-57.2797
 11
-8.70633
 21
-17.0871
  0
LINE
  8
0
 10
-8.70633
 20
-17.0871
 11
-24.0779
 21
-64.396
  0
LINE
  8
0
 10
-24.0779
 20
-64.396
 11
-34.5
 21
-59.7558
  0
LINE
  8
0
 10
-34.5
 20
-59.7558
 11
-37.9079
 21
-57.2797
  0
LINE
  8
0
 10
164.326
 20
-13.3148
 11
167
 21
-12.1243
  0
LINE
  8
0
 10
167
 20
-12.1243
 11
169.368
 21
-10.404
  0
LINE
  8
0
 10
169.368
 20
-10.404
 11
171.326
 21
-8.22899
  0
LINE
  8
0
 10
171.326
 20
-8.22899
 11
172.79
 21
-5.69431
  0
LINE
  8
0
 10
172.79
 20
-5.69431
 11
173.694
 21
-2.91075
  0
LINE
  8
0
 10
173.694
 20
-2.91075
 11
174
 21
0
  0
LINE
  8
0
 10
174
 20
0
 11
174
 21
55
  0
LINE
  8
0
 10
174
 20
55
 11
173.694
 21
57.9108
  0
LINE
  8
0
 10
173.694
 20
57.9108
 11
172.79
 21
60.6943
  0
LINE
  8
0
 10
172.79
 20
60.6943
 11
171.326
 21
63.229
  0
LINE
  8
0
 10
171.326
 20
63.229
 11
169.368
 21
65.404
  0
LINE
  8
0
 10
169.368
 20
65.404
 11
167
 21
67.1244
  0
LINE
  8
0
 10
167
 20
67.1244
 11
164.326
 21
68.3148
  0
LINE
  8
0
 10
164.326
 20
68.3148
 11
161.463
 21
68.9233
  0
LINE
  8
0
 10
161.463
 20
68.9233
 11
158.537
 21
68.9233
  0
LINE
  8
0
 10
158.537
 20
68.9233
 11
155.674
 21
68.3148
  0
LINE
  8
0
 10
155.674
 20
68.3148
 11
153
 21
67.1244
  0
LINE
  8
0
 10
153
 20
67.1244
 11
150.632
 21
65.404
  0
LINE
  8
0
 10
150.632
 20
65.404
 11
148.674
 21
63.229
  0
LINE
  8
0
 10
148.674
 20
63.229
 11
147.21
 21
60.6943
  0
LINE
  8
0
 10
147.21
 20
60.6943
 11
146.306
 21
57.9108
  0
LINE
  8
0
 10
146.306
 20
57.9108
 11
146
 21
55
  0
LINE
  8
0
 10
146
 20
55
 11
146
 21
0
  0
LINE
  8
0
 10
146
 20
0
 11
146.306
 21
-2.91075
  0
LINE
  8
0
 10
146.306
 20
-2.91075
 11
147.21
 21
-5.69431
  0
LINE
  8
0
 10
147.21
 20
-5.69431
 11
148.674
 21
-8.22899
  0
LINE
  8
0
 10
148.674
 20
-8.22899
 11
150.632
 21
-10.404
  0
LINE
  8
0
 10
150.632
 20
-10.404
 11
153
 21
-12.1243
  0
LINE
  8
0
 10
153
 20
-12.1243
 11
155.674
 21
-13.3148
  0
LINE
  8
0
 10
155.674
 20
-13.3148
 11
158.537
 21
-13.9233
  0
LINE
  8
0
 10
158.537
 20
-13.9233
 11
161.463
 21
-13.9233
  0
LINE
  8
0
 10
161.463
 20
-13.9233
 11
164.326
 21
-13.3148
  0
LINE
  8
0
 10
158.85
 20
44.0603
 11
156.601
 21
44.5384
  0
LINE
  8
0
 10
156.601
 20
44.5384
 11
154.5
 21
45.4737
  0
LINE
  8
0
 10
154.5
 20
45.4737
 11
152.64
 21
46.8254
  0
LINE
  8
0
 10
152.64
 20
46.8254
 11
151.101
 21
48.5344
  0
LINE
  8
0
 10
151.101
 20
48.5344
 11
149.951
 21
50.5259
  0
LINE
  8
0
 10
149.951
 20
50.5259
 11
149.24
 21
52.713
  0
LINE
  8
0
 10
149.24
 20
52.713
 11
149
 21
55
  0
LINE
  8
0
 10
149
 20
55
 11
149.24
 21
57.287
  0
LINE
  8
0
 10
149.24
 20
57.287
 11
149.951
 21
59.4741
  0
LINE
  8
0
 10
149.951
 20
59.4741
 11
151.101
 21
61.4656
  0
LINE
  8
0
 10
151.101
 20
61.4656
 11
152.64
 21
63.1746
  0
LINE
  8
0
 10
152.64
 20
63.1746
 11
154.5
 21
64.5263
  0
LINE
  8
0
 10
154.5
 20
64.5263
 11
156.601
 21
65.4616
  0
LINE
  8
0
 10
156.601
 20
65.4616
 11
158.85
 21
65.9397
  0
LINE
  8
0
 10
158.85
 20
65.9397
 11
161.15
 21
65.9397
  0
LINE
  8
0
 10
161.15
 20
65.9397
 11
163.399
 21
65.4616
  0
LINE
  8
0
 10
163.399
 20
65.4616
 11
165.5
 21
64.5263
  0
LINE
  8
0
 10
165.5
 20
64.5263
 11
167.36
 21
63.1746
  0
LINE
  8
0
 10
167.36
 20
63.1746
 11
168.899
 21
61.4656
  0
LINE
  8
0
 10
168.899
 20
61.4656
 11
170.049
 21
59.4741
  0
LINE
  8
0
 10
170.049
 20
59.4741
 11
170.76
 21
57.287
  0
LINE
  8
0
 10
170.76
 20
57.287
 11
171
 21
55
  0
LINE
  8
0
 10
171
 20
55
 11
170.76
 21
52.713
  0
LINE
  8
0
 10
170.76
 20
52.713
 11
170.049
 21
50.5259
  0
LINE
  8
0
 10
170.049
 20
50.5259
 11
168.899
 21
48.5344
  0
LINE
  8
0
 10
168.899
 20
48.5344
 11
167.36
 21
46.8254
  0
LINE
  8
0
 10
167.36
 20
46.8254
 11
165.5
 21
45.4737
  0
LINE
  8
0
 10
165.5
 20
45.4737
 11
163.399
 21
44.5384
  0
LINE
  8
0
 10
163.399
 20
44.5384
 11
161.15
 21
44.0603
  0
LINE
  8
0
 10
161.15
 20
44.0603
 11
158.85
 21
44.0603
  0
LINE
  8
0
 10
158.582
 20
-3.74005
 11
157.006
 21
-2.65248
  0
LINE
  8
0
 10
157.006
 20
-2.65248
 11
156.116
 21
-0.95726
  0
LINE
  8
0
 10
156.116
 20
-0.95726
 11
156.116
 21
0.95726
  0
LINE
  8
0
 10
156.116
 20
0.95726
 11
157.006
 21
2.65248
  0
LINE
  8
0
 10
157.006
 20
2.65248
 11
158.582
 21
3.74005
  0
LINE
  8
0
 10
158.582
 20
3.74005
 11
160.482
 21
3.97083
  0
LINE
  8
0
 10
160.482
 20
3.97083
 11
162.272
 21
3.29193
  0
LINE
  8
0
 10
162.272
 20
3.29193
 11
163.542
 21
1.85889
  0
LINE
  8
0
 10
163.542
 20
1.85889
 11
164
 21
0
  0
LINE
  8
0
 10
164
 20
0
 11
163.542
 21
-1.85889
  0
LINE
  8
0
 10
163.542
 20
-1.85889
 11
162.272
 21
-3.29193
  0
LINE
  8
0
 10
162.272
 20
-3.29193
 11
160.482
 21
-3.97083
  0
LINE
  8
0
 10
160.482
 20
-3.97083
 11
158.582
 21
-3.74005
  0
LINE
  8
0
 10
129.326
 20
-13.3148
 11
132
 21
-12.1243
  0
LINE
  8
0
 10
132
 20
-12.1243
 11
134.368
 21
-10.404
  0
LINE
  8
0
 10
134.368
 20
-10.404
 11
136.326
 21
-8.22899
  0
LINE
  8
0
 10
136.326
 20
-8.22899
 11
137.79
 21
-5.69431
  0
LINE
  8
0
 10
137.79
 20
-5.69431
 11
138.694
 21
-2.91075
  0
LINE
  8
0
 10
138.694
 20
-2.91075
 11
139
 21
0
  0
LINE
  8
0
 10
139
 20
0
 11
139
 21
55
  0
LINE
  8
0
 10
139
 20
55
 11
138.694
 21
57.9108
  0
LINE
  8
0
 10
138.694
 20
57.9108
 11
137.79
 21
60.6943
  0
LINE
  8
0
 10
137.79
 20
60.6943
 11
136.326
 21
63.229
  0
LINE
  8
0
 10
136.326
 20
63.229
 11
134.368
 21
65.404
  0
LINE
  8
0
 10
134.368
 20
65.404
 11
132
 21
67.1244
  0
LINE
  8
0
 10
132
 20
67.1244
 11
129.326
 21
68.3148
  0
LINE
  8
0
 10
129.326
 20
68.3148
 11
126.463
 21
68.9233
  0
LINE
  8
0
 10
126.463
 20
68.9233
 11
123.537
 21
68.9233
  0
LINE
  8
0
 10
123.537
 20
68.9233
 11
120.674
 21
68.3148
  0
LINE
  8
0
 10
120.674
 20
68.3148
 11
118
 21
67.1244
  0
LINE
  8
0
 10
118
 20
67.1244
 11
115.632
 21
65.404
  0
LINE
  8
0
 10
115.632
 20
65.404
 11
113.674
 21
63.229
  0
LINE
  8
0
 10
113.674
 20
63.229
 11
112.21
 21
60.6943
  0
LINE
  8
0
 10
112.21
 20
60.6943
 11
111.306
 21
57.9108
  0
LINE
  8
0
 10
111.306
 20
57.9108
 11
111
 21
55
  0
LINE
  8
0
 10
111
 20
55
 11
111
 21
0
  0
LINE
  8
0
 10
111
 20
0
 11
111.306
 21
-2.91075
  0
LINE
  8
0
 10
111.306
 20
-2.91075
 11
112.21
 21
-5.69431
  0
LINE
  8
0
 10
112.21
 20
-5.69431
 11
113.674
 21
-8.22899
  0
LINE
  8
0
 10
113.674
 20
-8.22899
 11
115.632
 21
-10.404
  0
LINE
  8
0
 10
115.632
 20
-10.404
 11
118
 21
-12.1243
  0
LINE
  8
0
 10
118
 20
-12.1243
 11
120.674
 21
-13.3148
  0
LINE
  8
0
 10
120.674
 20
-13.3148
 11
123.537
 21
-13.9233
  0
LINE
  8
0
 10
123.537
 20
-13.9233
 11
126.463
 21
-13.9233
  0
LINE
  8
0
 10
126.463
 20
-13.9233
 11
129.326
 21
-13.3148
  0
LINE
  8
0
 10
123.85
 20
44.0603
 11
121.601
 21
44.5384
  0
LINE
  8
0
 10
121.601
 20
44.5384
 11
119.5
 21
45.4737
  0
LINE
  8
0
 10
119.5
 20
45.4737
 11
117.64
 21
46.8254
  0
LINE
  8
0
 10
117.64
 20
46.8254
 11
116.101
 21
48.5344
  0
LINE
  8
0
 10
116.101
 20
48.5344
 11
114.951
 21
50.5259
  0
LINE
  8
0
 10
114.951
 20
50.5259
 11
114.24
 21
52.713
  0
LINE
  8
0
 10
114.24
 20
52.713
 11
114
 21
55
  0
LINE
  8
0
 10
114
 20
55
 11
114.24
 21
57.287
  0
LINE
  8
0
 10
114.24
 20
57.287
 11
114.951
 21
59.4741
  0
LINE
  8
0
 10
114.951
 20
59.4741
 11
116.101
 21
61.4656
  0
LINE
  8
0
 10
116.101
 20
61.4656
 11
117.64
 21
63.1746
  0
LINE
  8
0
 10
117.64
 20
63.1746
 11
119.5
 21
64.5263
  0
LINE
  8
0
 10
119.5
 20
64.5263
 11
121.601
 21
65.4616
  0
LINE
  8
0
 10
121.601
 20
65.4616
 11
123.85
 21
65.9397
  0
LINE
  8
0
 10
123.85
 20
65.9397
 11
126.15
 21
65.9397
  0
LINE
  8
0
 10
126.15
 20
65.9397
 11
128.399
 21
65.4616
  0
LINE
  8
0
 10
128.399
 20
65.4616
 11
130.5
 21
64.5263
  0
LINE
  8
0
 10
130.5
 20
64.5263
 11
132.36
 21
63.1746
  0
LINE
  8
0
 10
132.36
 20
63.1746
 11
133.899
 21
61.4656
  0
LINE
  8
0
 10
133.899
 20
61.4656
 11
135.049
 21
59.4741
  0
LINE
  8
0
 10
135.049
 20
59.4741
 11
135.76
 21
57.287
  0
LINE
  8
0
 10
135.76
 20
57.287
 11
136
 21
55
  0
LINE
  8
0
 10
136
 20
55
 11
135.76
 21
52.713
  0
LINE
  8
0
 10
135.76
 20
52.713
 11
135.049
 21
50.5259
  0
LINE
  8
0
 10
135.049
 20
50.5259
 11
133.899
 21
48.5344
  0
LINE
  8
0
 10
133.899
 20
48.5344
 11
132.36
 21
46.8254
  0
LINE
  8
0
 10
132.36
 20
46.8254
 11
130.5
 21
45.4737
  0
LINE
  8
0
 10
130.5
 20
45.4737
 11
128.399
 21
44.5384
  0
LINE
  8
0
 10
128.399
 20
44.5384
 11
126.15
 21
44.0603
  0
LINE
  8
0
 10
126.15
 20
44.0603
 11
123.85
 21
44.0603
  0
LINE
  8
0
 10
123.582
 20
-3.74005
 11
122.006
 21
-2.65248
  0
LINE
  8
0
 10
122.006
 20
-2.65248
 11
121.116
 21
-0.95726
  0
LINE
  8
0
 10
121.116
 20
-0.95726
 11
121.116
 21
0.95726
  0
LINE
  8
0
 10
121.116
 20
0.95726
 11
122.006
 21
2.65248
  0
LINE
  8
0
 10
122.006
 20
2.65248
 11
123.582
 21
3.74005
  0
LINE
  8
0
 10
123.582
 20
3.74005
 11
125.482
 21
3.97083
  0
LINE
  8
0
 10
125.482
 20
3.97083
 11
127.272
 21
3.29193
  0
LINE
  8
0
 10
127.272
 20
3.29193
 11
128.542
 21
1.85889
  0
LINE
  8
0
 10
128.542
 20
1.85889
 11
129
 21
0
  0
LINE
  8
0
 10
129
 20
0
 11
128.542
 21
-1.85889
  0
LINE
  8
0
 10
128.542
 20
-1.85889
 11
127.272
 21
-3.29193
  0
LINE
  8
0
 10
127.272
 20
-3.29193
 11
125.482
 21
-3.97083
  0
LINE
  8
0
 10
125.482
 20
-3.97083
 11
123.582
 21
-3.74005
  0
LINE
  8
0
 10
104
 20
0
 11
96.1162
 21
0
  0
LINE
  8
0
 10
96.1162
 20
0
 11
96.1162
 21
-30
  0
LINE
  8
0
 10
96.1162
 20
-30
 11
104
 21
-30
  0
LINE
  8
0
 10
104
 20
-30
 11
104
 21
0
  0
LINE
  8
0
 10
184
 20
-35
 11
134
 21
-35
  0
LINE
  8
0
 10
134
 20
-35
 11
134
 21
-65
  0
LINE
  8
0
 10
134
 20
-65
 11
184
 21
-65
  0
LINE
  8
0
 10
184
 20
-65
 11
184
 21
-35
  0
LINE
  8
0
 10
140
 20
-45
 11
140
 21
-39
  0
LINE
  8
0
 10
140
 20
-39
 11
178
 21
-39
  0
LINE
  8
0
 10
178
 20
-39
 11
178
 21
-45
  0
LINE
  8
0
 10
178
 20
-45
 11
140
 21
-45
  0
LINE
  8
0
 10
140
 20
-61
 11
140
 21
-55
  0
LINE
  8
0
 10
140
 20
-55
 11
178
 21
-55
  0
LINE
  8
0
 10
178
 20
-55
 11
178
 21
-61
  0
LINE
  8
0
 10
178
 20
-61
 11
140
 21
-61
  0
LINE
  8
0
 10
133.5
 20
-46.0292
 11
125
 21
-46.0292
  0
LINE
  8
0
 10
125
 20
-46.0292
 11
125
 21
-53.9708
  0
LINE
  8
0
 10
125
 20
-53.9708
 11
133.5
 21
-53.9708
  0
LINE
  8
0
 10
133.5
 20
-53.9708
 11
133.5
 21
-46.0292
  0
LINE
  8
0
 10
184
 20
-85
 11
134
 21
-85
  0
LINE
  8
0
 10
134
 20
-85
 11
134
 21
-115
  0
LINE
  8
0
 10
134
 20
-115
 11
184
 21
-115
  0
LINE
  8
0
 10
184
 20
-115
 11
184
 21
-85
  0
LINE
  8
0
 10
140
 20
-95
 11
140
 21
-89
  0
LINE
  8
0
 10
140
 20
-89
 11
178
 21
-89
  0
LINE
  8
0
 10
178
 20
-89
 11
178
 21
-95
  0
LINE
  8
0
 10
178
 20
-95
 11
140
 21
-95
  0
LINE
  8
0
 10
140
 20
-111
 11
140
 21
-105
  0
LINE
  8
0
 10
140
 20
-105
 11
178
 21
-105
  0
LINE
  8
0
 10
178
 20
-105
 11
178
 21
-111
  0
LINE
  8
0
 10
178
 20
-111
 11
140
 21
-111
  0
LINE
  8
0
 10
133.5
 20
-96.0292
 11
125
 21
-96.0292
  0
LINE
  8
0
 10
125
 20
-96.0292
 11
125
 21
-103.971
  0
LINE
  8
0
 10
125
 20
-103.971
 11
133.5
 21
-103.971
  0
LINE
  8
0
 10
133.5
 20
-103.971
 11
133.5
 21
-96.0292
  0
LINE
  8
0
 10
14.6167
 20
113.492
 11
15.1066
 21
115
  0
LINE
  8
0
 10
15.1066
 20
115
 11
185.526
 21
115
  0
LINE
  8
0
 10
185.526
 20
115
 11
187.294
 21
98.1693
  0
LINE
  8
0
 10
187.294
 20
98.1693
 11
194.078
 21
77.2926
  0
LINE
  8
0
 10
194.078
 20
77.2926
 11
201.175
 21
65
  0
LINE
  8
0
 10
201.175
 20
65
 11
212.659
 21
65
  0
LINE
  8
0
 10
212.659
 20
65
 11
203.213
 21
81.36
  0
LINE
  8
0
 10
203.213
 20
81.36
 11
197.076
 21
100.248
  0
LINE
  8
0
 10
197.076
 20
100.248
 11
195
 21
120
  0
LINE
  8
0
 10
195
 20
120
 11
197.076
 21
139.752
  0
LINE
  8
0
 10
197.076
 20
139.752
 11
203.213
 21
158.64
  0
LINE
  8
0
 10
203.213
 20
158.64
 11
212.659
 21
175
  0
LINE
  8
0
 10
212.659
 20
175
 11
201.175
 21
175
  0
LINE
  8
0
 10
201.175
 20
175
 11
194.078
 21
162.707
  0
LINE
  8
0
 10
194.078
 20
162.707
 11
187.294
 21
141.831
  0
LINE
  8
0
 10
187.294
 20
141.831
 11
185.526
 21
125
  0
LINE
  8
0
 10
185.526
 20
125
 11
15.1066
 21
125
  0
LINE
  8
0
 10
15.1066
 20
125
 11
14.6167
 21
126.508
  0
LINE
  8
0
 10
14.6167
 20
126.508
 11
12.9443
 21
129.405
  0
LINE
  8
0
 10
12.9443
 20
129.405
 11
10.7061
 21
131.89
  0
LINE
  8
0
 10
10.7061
 20
131.89
 11
8
 21
133.856
  0
LINE
  8
0
 10
8
 20
133.856
 11
4.94426
 21
135.217
  0
LINE
  8
0
 10
4.94426
 20
135.217
 11
1.67245
 21
135.912
  0
LINE
  8
0
 10
1.67245
 20
135.912
 11
-1.67245
 21
135.912
  0
LINE
  8
0
 10
-1.67245
 20
135.912
 11
-4.94426
 21
135.217
  0
LINE
  8
0
 10
-4.94426
 20
135.217
 11
-8
 21
133.856
  0
LINE
  8
0
 10
-8
 20
133.856
 11
-10.7061
 21
131.89
  0
LINE
  8
0
 10
-10.7061
 20
131.89
 11
-12.9443
 21
129.405
  0
LINE
  8
0
 10
-12.9443
 20
129.405
 11
-14.6167
 21
126.508
  0
LINE
  8
0
 10
-14.6167
 20
126.508
 11
-15.6504
 21
123.327
  0
LINE
  8
0
 10
-15.6504
 20
123.327
 11
-16
 21
120
  0
LINE
  8
0
 10
-16
 20
120
 11
-15.6504
 21
116.673
  0
LINE
  8
0
 10
-15.6504
 20
116.673
 11
-14.6167
 21
113.492
  0
LINE
  8
0
 10
-14.6167
 20
113.492
 11
-12.9443
 21
110.595
  0
LINE
  8
0
 10
-12.9443
 20
110.595
 11
-10.7061
 21
108.11
  0
LINE
  8
0
 10
-10.7061
 20
108.11
 11
-8
 21
106.144
  0
LINE
  8
0
 10
-8
 20
106.144
 11
-4.94426
 21
104.783
  0
LINE
  8
0
 10
-4.94426
 20
104.783
 11
-1.67245
 21
104.088
  0
LINE
  8
0
 10
-1.67245
 20
104.088
 11
1.67245
 21
104.088
  0
LINE
  8
0
 10
1.67245
 20
104.088
 11
4.94426
 21
104.783
  0
LINE
  8
0
 10
4.94426
 20
104.783
 11
7.99998
 21
106.144
  0
LINE
  8
0
 10
7.99998
 20
106.144
 11
10.7061
 21
108.11
  0
LINE
  8
0
 10
10.7061
 20
108.11
 11
12.9443
 21
110.595
  0
LINE
  8
0
 10
12.9443
 20
110.595
 11
14.6167
 21
113.492
  0
LINE
  8
0
 10
-1.14981
 20
109.06
 11
-3.39919
 21
109.538
  0
LINE
  8
0
 10
-3.39919
 20
109.538
 11
-5.5
 21
110.474
  0
LINE
  8
0
 10
-5.5
 20
110.474
 11
-7.36043
 21
111.825
  0
LINE
  8
0
 10
-7.36043
 20
111.825
 11
-8.89919
 21
113.534
  0
LINE
  8
0
 10
-8.89919
 20
113.534
 11
-10.049
 21
115.526
  0
LINE
  8
0
 10
-10.049
 20
115.526
 11
-10.7596
 21
117.713
  0
LINE
  8
0
 10
-10.7596
 20
117.713
 11
-11
 21
120
  0
LINE
  8
0
 10
-11
 20
120
 11
-10.7596
 21
122.287
  0
LINE
  8
0
 10
-10.7596
 20
122.287
 11
-10.049
 21
124.474
  0
LINE
  8
0
 10
-10.049
 20
124.474
 11
-8.89919
 21
126.466
  0
LINE
  8
0
 10
-8.89919
 20
126.466
 11
-7.36043
 21
128.175
  0
LINE
  8
0
 10
-7.36043
 20
128.175
 11
-5.5
 21
129.526
  0
LINE
  8
0
 10
-5.5
 20
129.526
 11
-3.39919
 21
130.462
  0
LINE
  8
0
 10
-3.39919
 20
130.462
 11
-1.14981
 21
130.94
  0
LINE
  8
0
 10
-1.14981
 20
130.94
 11
1.14981
 21
130.94
  0
LINE
  8
0
 10
1.14981
 20
130.94
 11
3.39919
 21
130.462
  0
LINE
  8
0
 10
3.39919
 20
130.462
 11
5.5
 21
129.526
  0
LINE
  8
0
 10
5.5
 20
129.526
 11
7.36043
 21
128.175
  0
LINE
  8
0
 10
7.36043
 20
128.175
 11
8.89919
 21
126.466
  0
LINE
  8
0
 10
8.89919
 20
126.466
 11
10.049
 21
124.474
  0
LINE
  8
0
 10
10.049
 20
124.474
 11
10.7596
 21
122.287
  0
LINE
  8
0
 10
10.7596
 20
122.287
 11
11
 21
120
  0
LINE
  8
0
 10
11
 20
120
 11
10.7596
 21
117.713
  0
LINE
  8
0
 10
10.7596
 20
117.713
 11
10.049
 21
115.526
  0
LINE
  8
0
 10
10.049
 20
115.526
 11
8.89919
 21
113.534
  0
LINE
  8
0
 10
8.89919
 20
113.534
 11
7.36043
 21
111.825
  0
LINE
  8
0
 10
7.36043
 20
111.825
 11
5.49998
 21
110.474
  0
LINE
  8
0
 10
5.49998
 20
110.474
 11
3.39919
 21
109.538
  0
LINE
  8
0
 10
3.39919
 20
109.538
 11
1.14981
 21
109.06
  0
LINE
  8
0
 10
1.14981
 20
109.06
 11
-1.14981
 21
109.06
  0
ENDSEC
  0
SECTION
  2
OBJECTS
  0
DICTIONARY
  0
ENDSEC
  0
EOF
