solid OpenSCAD_Model
  facet normal 0.970942 0.239316 0
    outer loop
      vertex 74 0 25
      vertex 73.5418 1.85889 0
      vertex 73.5418 1.85889 25
    endloop
  endfacet
  facet normal 0.970942 0.239316 0
    outer loop
      vertex 73.5418 1.85889 0
      vertex 74 0 25
      vertex 74 0 0
    endloop
  endfacet
  facet normal -1 0 0
    outer loop
      vertex 66.1162 -0.957262 0
      vertex 66.1162 0.957262 25
      vertex 66.1162 0.957262 0
    endloop
  endfacet
  facet normal -1 -0 0
    outer loop
      vertex 66.1162 0.957262 25
      vertex 66.1162 -0.957262 0
      vertex 66.1162 -0.957262 25
    endloop
  endfacet
  facet normal -0.120536 0.992709 0
    outer loop
      vertex 70.4821 3.97083 0
      vertex 68.5816 3.74006 25
      vertex 70.4821 3.97083 25
    endloop
  endfacet
  facet normal -0.120536 0.992709 0
    outer loop
      vertex 68.5816 3.74006 25
      vertex 70.4821 3.97083 0
      vertex 68.5816 3.74006 0
    endloop
  endfacet
  facet normal 0.748512 0.663122 0
    outer loop
      vertex 73.5418 1.85889 25
      vertex 72.2723 3.29193 0
      vertex 72.2723 3.29193 25
    endloop
  endfacet
  facet normal 0.748512 0.663122 0
    outer loop
      vertex 72.2723 3.29193 0
      vertex 73.5418 1.85889 25
      vertex 73.5418 1.85889 0
    endloop
  endfacet
  facet normal -0.568065 0.822984 0
    outer loop
      vertex 68.5816 3.74006 0
      vertex 67.006 2.65249 25
      vertex 68.5816 3.74006 25
    endloop
  endfacet
  facet normal -0.568065 0.822984 0
    outer loop
      vertex 67.006 2.65249 25
      vertex 68.5816 3.74006 0
      vertex 67.006 2.65249 0
    endloop
  endfacet
  facet normal 0.354604 -0.935016 0
    outer loop
      vertex 70.4821 -3.97083 0
      vertex 72.2723 -3.29193 25
      vertex 70.4821 -3.97083 25
    endloop
  endfacet
  facet normal 0.354604 -0.935016 0
    outer loop
      vertex 72.2723 -3.29193 25
      vertex 70.4821 -3.97083 0
      vertex 72.2723 -3.29193 0
    endloop
  endfacet
  facet normal 0.354604 0.935016 -0
    outer loop
      vertex 72.2723 3.29193 0
      vertex 70.4821 3.97083 25
      vertex 72.2723 3.29193 25
    endloop
  endfacet
  facet normal 0.354604 0.935016 0
    outer loop
      vertex 70.4821 3.97083 25
      vertex 72.2723 3.29193 0
      vertex 70.4821 3.97083 0
    endloop
  endfacet
  facet normal -0.885456 0.464723 0
    outer loop
      vertex 66.1162 0.957262 0
      vertex 67.006 2.65249 25
      vertex 67.006 2.65249 0
    endloop
  endfacet
  facet normal -0.885456 0.464723 0
    outer loop
      vertex 67.006 2.65249 25
      vertex 66.1162 0.957262 0
      vertex 66.1162 0.957262 25
    endloop
  endfacet
  facet normal 0 0 1
    outer loop
      vertex 73.5418 1.85889 25
      vertex 73.5418 -1.85889 25
      vertex 74 0 25
    endloop
  endfacet
  facet normal 0 0 1
    outer loop
      vertex 72.2723 3.29193 25
      vertex 73.5418 -1.85889 25
      vertex 73.5418 1.85889 25
    endloop
  endfacet
  facet normal 0 0 1
    outer loop
      vertex 72.2723 3.29193 25
      vertex 72.2723 -3.29193 25
      vertex 73.5418 -1.85889 25
    endloop
  endfacet
  facet normal 0 0 1
    outer loop
      vertex 70.4821 3.97083 25
      vertex 72.2723 -3.29193 25
      vertex 72.2723 3.29193 25
    endloop
  endfacet
  facet normal 0 0 1
    outer loop
      vertex 70.4821 3.97083 25
      vertex 70.4821 -3.97083 25
      vertex 72.2723 -3.29193 25
    endloop
  endfacet
  facet normal -0 0 1
    outer loop
      vertex 68.5816 3.74006 25
      vertex 70.4821 -3.97083 25
      vertex 70.4821 3.97083 25
    endloop
  endfacet
  facet normal 0 0 1
    outer loop
      vertex 68.5816 3.74006 25
      vertex 68.5816 -3.74006 25
      vertex 70.4821 -3.97083 25
    endloop
  endfacet
  facet normal -0 0 1
    outer loop
      vertex 67.006 2.65249 25
      vertex 68.5816 -3.74006 25
      vertex 68.5816 3.74006 25
    endloop
  endfacet
  facet normal 0 0 1
    outer loop
      vertex 67.006 2.65249 25
      vertex 67.006 -2.65249 25
      vertex 68.5816 -3.74006 25
    endloop
  endfacet
  facet normal -0 0 1
    outer loop
      vertex 66.1162 0.957262 25
      vertex 67.006 -2.65249 25
      vertex 67.006 2.65249 25
    endloop
  endfacet
  facet normal 0 0 1
    outer loop
      vertex 67.006 -2.65249 25
      vertex 66.1162 0.957262 25
      vertex 66.1162 -0.957262 25
    endloop
  endfacet
  facet normal -0.885456 -0.464723 0
    outer loop
      vertex 67.006 -2.65249 0
      vertex 66.1162 -0.957262 25
      vertex 66.1162 -0.957262 0
    endloop
  endfacet
  facet normal -0.885456 -0.464723 0
    outer loop
      vertex 66.1162 -0.957262 25
      vertex 67.006 -2.65249 0
      vertex 67.006 -2.65249 25
    endloop
  endfacet
  facet normal 0.748512 -0.663122 0
    outer loop
      vertex 72.2723 -3.29193 25
      vertex 73.5418 -1.85889 0
      vertex 73.5418 -1.85889 25
    endloop
  endfacet
  facet normal 0.748512 -0.663122 0
    outer loop
      vertex 73.5418 -1.85889 0
      vertex 72.2723 -3.29193 25
      vertex 72.2723 -3.29193 0
    endloop
  endfacet
  facet normal 0 0 -1
    outer loop
      vertex 73.5418 -1.85889 0
      vertex 73.5418 1.85889 0
      vertex 74 0 0
    endloop
  endfacet
  facet normal 0 0 -1
    outer loop
      vertex 72.2723 -3.29193 0
      vertex 73.5418 1.85889 0
      vertex 73.5418 -1.85889 0
    endloop
  endfacet
  facet normal 0 0 -1
    outer loop
      vertex 72.2723 -3.29193 0
      vertex 72.2723 3.29193 0
      vertex 73.5418 1.85889 0
    endloop
  endfacet
  facet normal 0 0 -1
    outer loop
      vertex 70.4821 -3.97083 0
      vertex 72.2723 3.29193 0
      vertex 72.2723 -3.29193 0
    endloop
  endfacet
  facet normal 0 0 -1
    outer loop
      vertex 70.4821 -3.97083 0
      vertex 70.4821 3.97083 0
      vertex 72.2723 3.29193 0
    endloop
  endfacet
  facet normal 0 0 -1
    outer loop
      vertex 68.5816 -3.74006 0
      vertex 70.4821 3.97083 0
      vertex 70.4821 -3.97083 0
    endloop
  endfacet
  facet normal 0 0 -1
    outer loop
      vertex 68.5816 -3.74006 0
      vertex 68.5816 3.74006 0
      vertex 70.4821 3.97083 0
    endloop
  endfacet
  facet normal 0 0 -1
    outer loop
      vertex 67.006 -2.65249 0
      vertex 68.5816 3.74006 0
      vertex 68.5816 -3.74006 0
    endloop
  endfacet
  facet normal 0 0 -1
    outer loop
      vertex 67.006 -2.65249 0
      vertex 67.006 2.65249 0
      vertex 68.5816 3.74006 0
    endloop
  endfacet
  facet normal 0 0 -1
    outer loop
      vertex 66.1162 -0.957262 0
      vertex 67.006 2.65249 0
      vertex 67.006 -2.65249 0
    endloop
  endfacet
  facet normal 0 0 -1
    outer loop
      vertex 67.006 2.65249 0
      vertex 66.1162 -0.957262 0
      vertex 66.1162 0.957262 0
    endloop
  endfacet
  facet normal 0.970942 -0.239316 0
    outer loop
      vertex 73.5418 -1.85889 25
      vertex 74 0 0
      vertex 74 0 25
    endloop
  endfacet
  facet normal 0.970942 -0.239316 0
    outer loop
      vertex 74 0 0
      vertex 73.5418 -1.85889 25
      vertex 73.5418 -1.85889 0
    endloop
  endfacet
  facet normal -0.120536 -0.992709 0
    outer loop
      vertex 68.5816 -3.74006 0
      vertex 70.4821 -3.97083 25
      vertex 68.5816 -3.74006 25
    endloop
  endfacet
  facet normal -0.120536 -0.992709 -0
    outer loop
      vertex 70.4821 -3.97083 25
      vertex 68.5816 -3.74006 0
      vertex 70.4821 -3.97083 0
    endloop
  endfacet
  facet normal -0.568065 -0.822984 0
    outer loop
      vertex 67.006 -2.65249 0
      vertex 68.5816 -3.74006 25
      vertex 67.006 -2.65249 25
    endloop
  endfacet
  facet normal -0.568065 -0.822984 -0
    outer loop
      vertex 68.5816 -3.74006 25
      vertex 67.006 -2.65249 0
      vertex 68.5816 -3.74006 0
    endloop
  endfacet
  facet normal 0.970942 0.239316 0
    outer loop
      vertex 74 20 25
      vertex 73.5418 21.8589 0
      vertex 73.5418 21.8589 25
    endloop
  endfacet
  facet normal 0.970942 0.239316 0
    outer loop
      vertex 73.5418 21.8589 0
      vertex 74 20 25
      vertex 74 20 0
    endloop
  endfacet
  facet normal -1 0 0
    outer loop
      vertex 66.1162 19.0427 0
      vertex 66.1162 20.9573 25
      vertex 66.1162 20.9573 0
    endloop
  endfacet
  facet normal -1 -0 0
    outer loop
      vertex 66.1162 20.9573 25
      vertex 66.1162 19.0427 0
      vertex 66.1162 19.0427 25
    endloop
  endfacet
  facet normal -0.120536 0.992709 0
    outer loop
      vertex 70.4821 23.9708 0
      vertex 68.5816 23.7401 25
      vertex 70.4821 23.9708 25
    endloop
  endfacet
  facet normal -0.120536 0.992709 0
    outer loop
      vertex 68.5816 23.7401 25
      vertex 70.4821 23.9708 0
      vertex 68.5816 23.7401 0
    endloop
  endfacet
  facet normal 0.748512 0.663122 0
    outer loop
      vertex 73.5418 21.8589 25
      vertex 72.2723 23.2919 0
      vertex 72.2723 23.2919 25
    endloop
  endfacet
  facet normal 0.748512 0.663122 0
    outer loop
      vertex 72.2723 23.2919 0
      vertex 73.5418 21.8589 25
      vertex 73.5418 21.8589 0
    endloop
  endfacet
  facet normal -0.568065 0.822984 0
    outer loop
      vertex 68.5816 23.7401 0
      vertex 67.006 22.6525 25
      vertex 68.5816 23.7401 25
    endloop
  endfacet
  facet normal -0.568065 0.822984 0
    outer loop
      vertex 67.006 22.6525 25
      vertex 68.5816 23.7401 0
      vertex 67.006 22.6525 0
    endloop
  endfacet
  facet normal 0.354605 -0.935016 0
    outer loop
      vertex 70.4821 16.0292 0
      vertex 72.2723 16.7081 25
      vertex 70.4821 16.0292 25
    endloop
  endfacet
  facet normal 0.354605 -0.935016 0
    outer loop
      vertex 72.2723 16.7081 25
      vertex 70.4821 16.0292 0
      vertex 72.2723 16.7081 0
    endloop
  endfacet
  facet normal 0.354604 0.935016 -0
    outer loop
      vertex 72.2723 23.2919 0
      vertex 70.4821 23.9708 25
      vertex 72.2723 23.2919 25
    endloop
  endfacet
  facet normal 0.354604 0.935016 0
    outer loop
      vertex 70.4821 23.9708 25
      vertex 72.2723 23.2919 0
      vertex 70.4821 23.9708 0
    endloop
  endfacet
  facet normal -0.885456 0.464723 0
    outer loop
      vertex 66.1162 20.9573 0
      vertex 67.006 22.6525 25
      vertex 67.006 22.6525 0
    endloop
  endfacet
  facet normal -0.885456 0.464723 0
    outer loop
      vertex 67.006 22.6525 25
      vertex 66.1162 20.9573 0
      vertex 66.1162 20.9573 25
    endloop
  endfacet
  facet normal 0 0 1
    outer loop
      vertex 73.5418 21.8589 25
      vertex 73.5418 18.1411 25
      vertex 74 20 25
    endloop
  endfacet
  facet normal 0 0 1
    outer loop
      vertex 72.2723 23.2919 25
      vertex 73.5418 18.1411 25
      vertex 73.5418 21.8589 25
    endloop
  endfacet
  facet normal 0 0 1
    outer loop
      vertex 72.2723 23.2919 25
      vertex 72.2723 16.7081 25
      vertex 73.5418 18.1411 25
    endloop
  endfacet
  facet normal 0 0 1
    outer loop
      vertex 70.4821 23.9708 25
      vertex 72.2723 16.7081 25
      vertex 72.2723 23.2919 25
    endloop
  endfacet
  facet normal 0 0 1
    outer loop
      vertex 70.4821 23.9708 25
      vertex 70.4821 16.0292 25
      vertex 72.2723 16.7081 25
    endloop
  endfacet
  facet normal -0 0 1
    outer loop
      vertex 68.5816 23.7401 25
      vertex 70.4821 16.0292 25
      vertex 70.4821 23.9708 25
    endloop
  endfacet
  facet normal 0 0 1
    outer loop
      vertex 68.5816 23.7401 25
      vertex 68.5816 16.2599 25
      vertex 70.4821 16.0292 25
    endloop
  endfacet
  facet normal -0 0 1
    outer loop
      vertex 67.006 22.6525 25
      vertex 68.5816 16.2599 25
      vertex 68.5816 23.7401 25
    endloop
  endfacet
  facet normal 0 0 1
    outer loop
      vertex 67.006 22.6525 25
      vertex 67.006 17.3475 25
      vertex 68.5816 16.2599 25
    endloop
  endfacet
  facet normal -0 0 1
    outer loop
      vertex 66.1162 20.9573 25
      vertex 67.006 17.3475 25
      vertex 67.006 22.6525 25
    endloop
  endfacet
  facet normal 0 0 1
    outer loop
      vertex 67.006 17.3475 25
      vertex 66.1162 20.9573 25
      vertex 66.1162 19.0427 25
    endloop
  endfacet
  facet normal 0.970942 -0.239315 0
    outer loop
      vertex 73.5418 18.1411 25
      vertex 74 20 0
      vertex 74 20 25
    endloop
  endfacet
  facet normal 0.970942 -0.239315 0
    outer loop
      vertex 74 20 0
      vertex 73.5418 18.1411 25
      vertex 73.5418 18.1411 0
    endloop
  endfacet
  facet normal 0.748511 -0.663122 0
    outer loop
      vertex 72.2723 16.7081 25
      vertex 73.5418 18.1411 0
      vertex 73.5418 18.1411 25
    endloop
  endfacet
  facet normal 0.748511 -0.663122 0
    outer loop
      vertex 73.5418 18.1411 0
      vertex 72.2723 16.7081 25
      vertex 72.2723 16.7081 0
    endloop
  endfacet
  facet normal 0 0 -1
    outer loop
      vertex 73.5418 18.1411 0
      vertex 73.5418 21.8589 0
      vertex 74 20 0
    endloop
  endfacet
  facet normal 0 0 -1
    outer loop
      vertex 72.2723 16.7081 0
      vertex 73.5418 21.8589 0
      vertex 73.5418 18.1411 0
    endloop
  endfacet
  facet normal 0 0 -1
    outer loop
      vertex 72.2723 16.7081 0
      vertex 72.2723 23.2919 0
      vertex 73.5418 21.8589 0
    endloop
  endfacet
  facet normal 0 0 -1
    outer loop
      vertex 70.4821 16.0292 0
      vertex 72.2723 23.2919 0
      vertex 72.2723 16.7081 0
    endloop
  endfacet
  facet normal 0 0 -1
    outer loop
      vertex 70.4821 16.0292 0
      vertex 70.4821 23.9708 0
      vertex 72.2723 23.2919 0
    endloop
  endfacet
  facet normal 0 0 -1
    outer loop
      vertex 68.5816 16.2599 0
      vertex 70.4821 23.9708 0
      vertex 70.4821 16.0292 0
    endloop
  endfacet
  facet normal 0 0 -1
    outer loop
      vertex 68.5816 16.2599 0
      vertex 68.5816 23.7401 0
      vertex 70.4821 23.9708 0
    endloop
  endfacet
  facet normal 0 0 -1
    outer loop
      vertex 67.006 17.3475 0
      vertex 68.5816 23.7401 0
      vertex 68.5816 16.2599 0
    endloop
  endfacet
  facet normal 0 0 -1
    outer loop
      vertex 67.006 17.3475 0
      vertex 67.006 22.6525 0
      vertex 68.5816 23.7401 0
    endloop
  endfacet
  facet normal 0 0 -1
    outer loop
      vertex 66.1162 19.0427 0
      vertex 67.006 22.6525 0
      vertex 67.006 17.3475 0
    endloop
  endfacet
  facet normal 0 0 -1
    outer loop
      vertex 67.006 22.6525 0
      vertex 66.1162 19.0427 0
      vertex 66.1162 20.9573 0
    endloop
  endfacet
  facet normal -0.120536 -0.992709 0
    outer loop
      vertex 68.5816 16.2599 0
      vertex 70.4821 16.0292 25
      vertex 68.5816 16.2599 25
    endloop
  endfacet
  facet normal -0.120536 -0.992709 -0
    outer loop
      vertex 70.4821 16.0292 25
      vertex 68.5816 16.2599 0
      vertex 70.4821 16.0292 0
    endloop
  endfacet
  facet normal -0.568065 -0.822984 0
    outer loop
      vertex 67.006 17.3475 0
      vertex 68.5816 16.2599 25
      vertex 67.006 17.3475 25
    endloop
  endfacet
  facet normal -0.568065 -0.822984 -0
    outer loop
      vertex 68.5816 16.2599 25
      vertex 67.006 17.3475 0
      vertex 68.5816 16.2599 0
    endloop
  endfacet
  facet normal -0.885456 -0.464723 0
    outer loop
      vertex 67.006 17.3475 0
      vertex 66.1162 19.0427 25
      vertex 66.1162 19.0427 0
    endloop
  endfacet
  facet normal -0.885456 -0.464723 0
    outer loop
      vertex 66.1162 19.0427 25
      vertex 67.006 17.3475 0
      vertex 67.006 17.3475 25
    endloop
  endfacet
  facet normal 0.970942 0.239315 0
    outer loop
      vertex 74 40 21.5
      vertex 73.5418 41.8589 0
      vertex 73.5418 41.8589 21.5
    endloop
  endfacet
  facet normal 0.970942 0.239315 0
    outer loop
      vertex 73.5418 41.8589 0
      vertex 74 40 21.5
      vertex 74 40 0
    endloop
  endfacet
  facet normal -1 0 0
    outer loop
      vertex 66.1162 39.0427 0
      vertex 66.1162 40.9573 21.5
      vertex 66.1162 40.9573 0
    endloop
  endfacet
  facet normal -1 -0 0
    outer loop
      vertex 66.1162 40.9573 21.5
      vertex 66.1162 39.0427 0
      vertex 66.1162 39.0427 21.5
    endloop
  endfacet
  facet normal -0.120535 0.992709 0
    outer loop
      vertex 70.4821 43.9708 0
      vertex 68.5816 43.7401 21.5
      vertex 70.4821 43.9708 21.5
    endloop
  endfacet
  facet normal -0.120535 0.992709 0
    outer loop
      vertex 68.5816 43.7401 21.5
      vertex 70.4821 43.9708 0
      vertex 68.5816 43.7401 0
    endloop
  endfacet
  facet normal 0.748511 0.663122 0
    outer loop
      vertex 73.5418 41.8589 21.5
      vertex 72.2723 43.2919 0
      vertex 72.2723 43.2919 21.5
    endloop
  endfacet
  facet normal 0.748511 0.663122 0
    outer loop
      vertex 72.2723 43.2919 0
      vertex 73.5418 41.8589 21.5
      vertex 73.5418 41.8589 0
    endloop
  endfacet
  facet normal -0.568066 0.822983 0
    outer loop
      vertex 68.5816 43.7401 0
      vertex 67.006 42.6525 21.5
      vertex 68.5816 43.7401 21.5
    endloop
  endfacet
  facet normal -0.568066 0.822983 0
    outer loop
      vertex 67.006 42.6525 21.5
      vertex 68.5816 43.7401 0
      vertex 67.006 42.6525 0
    endloop
  endfacet
  facet normal 0.354605 -0.935016 0
    outer loop
      vertex 70.4821 36.0292 0
      vertex 72.2723 36.7081 21.5
      vertex 70.4821 36.0292 21.5
    endloop
  endfacet
  facet normal 0.354605 -0.935016 0
    outer loop
      vertex 72.2723 36.7081 21.5
      vertex 70.4821 36.0292 0
      vertex 72.2723 36.7081 0
    endloop
  endfacet
  facet normal 0.354603 0.935017 -0
    outer loop
      vertex 72.2723 43.2919 0
      vertex 70.4821 43.9708 21.5
      vertex 72.2723 43.2919 21.5
    endloop
  endfacet
  facet normal 0.354603 0.935017 0
    outer loop
      vertex 70.4821 43.9708 21.5
      vertex 72.2723 43.2919 0
      vertex 70.4821 43.9708 0
    endloop
  endfacet
  facet normal -0.885456 0.464723 0
    outer loop
      vertex 66.1162 40.9573 0
      vertex 67.006 42.6525 21.5
      vertex 67.006 42.6525 0
    endloop
  endfacet
  facet normal -0.885456 0.464723 0
    outer loop
      vertex 67.006 42.6525 21.5
      vertex 66.1162 40.9573 0
      vertex 66.1162 40.9573 21.5
    endloop
  endfacet
  facet normal 0 0 1
    outer loop
      vertex 73.5418 41.8589 21.5
      vertex 73.9375 40 21.5
      vertex 74 40 21.5
    endloop
  endfacet
  facet normal 0 0 1
    outer loop
      vertex 73.5418 41.8589 21.5
      vertex 73.4865 41.8298 21.5
      vertex 73.9375 40 21.5
    endloop
  endfacet
  facet normal 0 0 1
    outer loop
      vertex 72.2723 43.2919 21.5
      vertex 73.4865 41.8298 21.5
      vertex 73.5418 41.8589 21.5
    endloop
  endfacet
  facet normal 0 0 1
    outer loop
      vertex 72.2723 43.2919 21.5
      vertex 72.2368 43.2405 21.5
      vertex 73.4865 41.8298 21.5
    endloop
  endfacet
  facet normal 0 0 1
    outer loop
      vertex 70.4821 43.9708 21.5
      vertex 72.2368 43.2405 21.5
      vertex 72.2723 43.2919 21.5
    endloop
  endfacet
  facet normal 0 0 1
    outer loop
      vertex 70.4821 43.9708 21.5
      vertex 70.4746 43.9088 21.5
      vertex 72.2368 43.2405 21.5
    endloop
  endfacet
  facet normal 0 0 1
    outer loop
      vertex 70.4821 43.9708 21.5
      vertex 68.6037 43.6816 21.5
      vertex 70.4746 43.9088 21.5
    endloop
  endfacet
  facet normal -0 0 1
    outer loop
      vertex 68.5816 43.7401 21.5
      vertex 68.6037 43.6816 21.5
      vertex 70.4821 43.9708 21.5
    endloop
  endfacet
  facet normal 0 0 1
    outer loop
      vertex 68.5816 43.7401 21.5
      vertex 67.0527 42.611 21.5
      vertex 68.6037 43.6816 21.5
    endloop
  endfacet
  facet normal -0 0 1
    outer loop
      vertex 67.006 42.6525 21.5
      vertex 67.0527 42.611 21.5
      vertex 68.5816 43.7401 21.5
    endloop
  endfacet
  facet normal 0 0 1
    outer loop
      vertex 67.006 42.6525 21.5
      vertex 66.1769 40.9423 21.5
      vertex 67.0527 42.611 21.5
    endloop
  endfacet
  facet normal 0 0 1
    outer loop
      vertex 66.1769 40.9423 21.5
      vertex 66.1162 40.9573 21.5
      vertex 66.1769 39.0577 21.5
    endloop
  endfacet
  facet normal -0 0 1
    outer loop
      vertex 66.1162 40.9573 21.5
      vertex 66.1769 40.9423 21.5
      vertex 67.006 42.6525 21.5
    endloop
  endfacet
  facet normal -0 0 1
    outer loop
      vertex 73.9375 40 21.5
      vertex 73.5418 38.1411 21.5
      vertex 74 40 21.5
    endloop
  endfacet
  facet normal -0 0 1
    outer loop
      vertex 73.4865 38.1702 21.5
      vertex 73.5418 38.1411 21.5
      vertex 73.9375 40 21.5
    endloop
  endfacet
  facet normal 0 0 1
    outer loop
      vertex 73.4865 38.1702 21.5
      vertex 72.2723 36.7081 21.5
      vertex 73.5418 38.1411 21.5
    endloop
  endfacet
  facet normal -0 0 1
    outer loop
      vertex 72.2368 36.7595 21.5
      vertex 72.2723 36.7081 21.5
      vertex 73.4865 38.1702 21.5
    endloop
  endfacet
  facet normal 0 0 1
    outer loop
      vertex 72.2368 36.7595 21.5
      vertex 70.4821 36.0292 21.5
      vertex 72.2723 36.7081 21.5
    endloop
  endfacet
  facet normal -0 0 1
    outer loop
      vertex 70.4746 36.0912 21.5
      vertex 70.4821 36.0292 21.5
      vertex 72.2368 36.7595 21.5
    endloop
  endfacet
  facet normal 0 0 1
    outer loop
      vertex 68.6037 36.3184 21.5
      vertex 70.4821 36.0292 21.5
      vertex 70.4746 36.0912 21.5
    endloop
  endfacet
  facet normal 0 0 1
    outer loop
      vertex 68.6037 36.3184 21.5
      vertex 68.5816 36.2599 21.5
      vertex 70.4821 36.0292 21.5
    endloop
  endfacet
  facet normal 0 0 1
    outer loop
      vertex 67.0527 37.389 21.5
      vertex 68.5816 36.2599 21.5
      vertex 68.6037 36.3184 21.5
    endloop
  endfacet
  facet normal 0 0 1
    outer loop
      vertex 67.0527 37.389 21.5
      vertex 67.006 37.3475 21.5
      vertex 68.5816 36.2599 21.5
    endloop
  endfacet
  facet normal 0 0 1
    outer loop
      vertex 66.1769 39.0577 21.5
      vertex 67.006 37.3475 21.5
      vertex 67.0527 37.389 21.5
    endloop
  endfacet
  facet normal 0 0 1
    outer loop
      vertex 66.1769 39.0577 21.5
      vertex 66.1162 39.0427 21.5
      vertex 67.006 37.3475 21.5
    endloop
  endfacet
  facet normal 0 0 1
    outer loop
      vertex 66.1162 39.0427 21.5
      vertex 66.1769 39.0577 21.5
      vertex 66.1162 40.9573 21.5
    endloop
  endfacet
  facet normal -0.885456 -0.464723 0
    outer loop
      vertex 67.006 37.3475 0
      vertex 66.1162 39.0427 21.5
      vertex 66.1162 39.0427 0
    endloop
  endfacet
  facet normal -0.885456 -0.464723 0
    outer loop
      vertex 66.1162 39.0427 21.5
      vertex 67.006 37.3475 0
      vertex 67.006 37.3475 21.5
    endloop
  endfacet
  facet normal 0.748511 -0.663122 0
    outer loop
      vertex 72.2723 36.7081 21.5
      vertex 73.5418 38.1411 0
      vertex 73.5418 38.1411 21.5
    endloop
  endfacet
  facet normal 0.748511 -0.663122 0
    outer loop
      vertex 73.5418 38.1411 0
      vertex 72.2723 36.7081 21.5
      vertex 72.2723 36.7081 0
    endloop
  endfacet
  facet normal 0 0 -1
    outer loop
      vertex 73.5418 38.1411 0
      vertex 73.5418 41.8589 0
      vertex 74 40 0
    endloop
  endfacet
  facet normal 0 0 -1
    outer loop
      vertex 72.2723 36.7081 0
      vertex 73.5418 41.8589 0
      vertex 73.5418 38.1411 0
    endloop
  endfacet
  facet normal 0 0 -1
    outer loop
      vertex 72.2723 36.7081 0
      vertex 72.2723 43.2919 0
      vertex 73.5418 41.8589 0
    endloop
  endfacet
  facet normal 0 0 -1
    outer loop
      vertex 70.4821 36.0292 0
      vertex 72.2723 43.2919 0
      vertex 72.2723 36.7081 0
    endloop
  endfacet
  facet normal 0 0 -1
    outer loop
      vertex 70.4821 36.0292 0
      vertex 70.4821 43.9708 0
      vertex 72.2723 43.2919 0
    endloop
  endfacet
  facet normal 0 0 -1
    outer loop
      vertex 68.5816 36.2599 0
      vertex 70.4821 43.9708 0
      vertex 70.4821 36.0292 0
    endloop
  endfacet
  facet normal 0 0 -1
    outer loop
      vertex 68.5816 36.2599 0
      vertex 68.5816 43.7401 0
      vertex 70.4821 43.9708 0
    endloop
  endfacet
  facet normal 0 0 -1
    outer loop
      vertex 67.006 37.3475 0
      vertex 68.5816 43.7401 0
      vertex 68.5816 36.2599 0
    endloop
  endfacet
  facet normal 0 0 -1
    outer loop
      vertex 67.006 37.3475 0
      vertex 67.006 42.6525 0
      vertex 68.5816 43.7401 0
    endloop
  endfacet
  facet normal 0 0 -1
    outer loop
      vertex 66.1162 39.0427 0
      vertex 67.006 42.6525 0
      vertex 67.006 37.3475 0
    endloop
  endfacet
  facet normal 0 0 -1
    outer loop
      vertex 67.006 42.6525 0
      vertex 66.1162 39.0427 0
      vertex 66.1162 40.9573 0
    endloop
  endfacet
  facet normal 0.970942 -0.239315 0
    outer loop
      vertex 73.5418 38.1411 21.5
      vertex 74 40 0
      vertex 74 40 21.5
    endloop
  endfacet
  facet normal 0.970942 -0.239315 0
    outer loop
      vertex 74 40 0
      vertex 73.5418 38.1411 21.5
      vertex 73.5418 38.1411 0
    endloop
  endfacet
  facet normal -0.120536 -0.992709 0
    outer loop
      vertex 68.5816 36.2599 0
      vertex 70.4821 36.0292 21.5
      vertex 68.5816 36.2599 21.5
    endloop
  endfacet
  facet normal -0.120536 -0.992709 -0
    outer loop
      vertex 70.4821 36.0292 21.5
      vertex 68.5816 36.2599 0
      vertex 70.4821 36.0292 0
    endloop
  endfacet
  facet normal -0.568065 -0.822984 0
    outer loop
      vertex 67.006 37.3475 0
      vertex 68.5816 36.2599 21.5
      vertex 67.006 37.3475 21.5
    endloop
  endfacet
  facet normal -0.568065 -0.822984 -0
    outer loop
      vertex 68.5816 36.2599 21.5
      vertex 67.006 37.3475 0
      vertex 68.5816 36.2599 0
    endloop
  endfacet
  facet normal 0.970942 0.239317 0
    outer loop
      vertex 73.9375 40 25
      vertex 73.4865 41.8298 21.5
      vertex 73.4865 41.8298 25
    endloop
  endfacet
  facet normal 0.970942 0.239317 0
    outer loop
      vertex 73.4865 41.8298 21.5
      vertex 73.9375 40 25
      vertex 73.9375 40 21.5
    endloop
  endfacet
  facet normal -1 0 0
    outer loop
      vertex 66.1769 39.0577 21.5
      vertex 66.1769 40.9423 25
      vertex 66.1769 40.9423 21.5
    endloop
  endfacet
  facet normal -1 -0 0
    outer loop
      vertex 66.1769 40.9423 25
      vertex 66.1769 39.0577 21.5
      vertex 66.1769 39.0577 25
    endloop
  endfacet
  facet normal -0.120537 0.992709 0
    outer loop
      vertex 70.4746 43.9088 21.5
      vertex 68.6037 43.6816 25
      vertex 70.4746 43.9088 25
    endloop
  endfacet
  facet normal -0.120537 0.992709 0
    outer loop
      vertex 68.6037 43.6816 25
      vertex 70.4746 43.9088 21.5
      vertex 68.6037 43.6816 21.5
    endloop
  endfacet
  facet normal 0.748511 0.663123 0
    outer loop
      vertex 73.4865 41.8298 25
      vertex 72.2368 43.2405 21.5
      vertex 72.2368 43.2405 25
    endloop
  endfacet
  facet normal 0.748511 0.663123 0
    outer loop
      vertex 72.2368 43.2405 21.5
      vertex 73.4865 41.8298 25
      vertex 73.4865 41.8298 21.5
    endloop
  endfacet
  facet normal -0.568063 0.822985 0
    outer loop
      vertex 68.6037 43.6816 21.5
      vertex 67.0527 42.611 25
      vertex 68.6037 43.6816 25
    endloop
  endfacet
  facet normal -0.568063 0.822985 0
    outer loop
      vertex 67.0527 42.611 25
      vertex 68.6037 43.6816 21.5
      vertex 67.0527 42.611 21.5
    endloop
  endfacet
  facet normal 0.354603 -0.935017 0
    outer loop
      vertex 70.4746 36.0912 21.5
      vertex 72.2368 36.7595 25
      vertex 70.4746 36.0912 25
    endloop
  endfacet
  facet normal 0.354603 -0.935017 0
    outer loop
      vertex 72.2368 36.7595 25
      vertex 70.4746 36.0912 21.5
      vertex 72.2368 36.7595 21.5
    endloop
  endfacet
  facet normal 0.748512 -0.663122 0
    outer loop
      vertex 72.2368 36.7595 25
      vertex 73.4865 38.1702 21.5
      vertex 73.4865 38.1702 25
    endloop
  endfacet
  facet normal 0.748512 -0.663122 0
    outer loop
      vertex 73.4865 38.1702 21.5
      vertex 72.2368 36.7595 25
      vertex 72.2368 36.7595 21.5
    endloop
  endfacet
  facet normal 0.354605 0.935016 -0
    outer loop
      vertex 72.2368 43.2405 21.5
      vertex 70.4746 43.9088 25
      vertex 72.2368 43.2405 25
    endloop
  endfacet
  facet normal 0.354605 0.935016 0
    outer loop
      vertex 70.4746 43.9088 25
      vertex 72.2368 43.2405 21.5
      vertex 70.4746 43.9088 21.5
    endloop
  endfacet
  facet normal -0.885457 0.464721 0
    outer loop
      vertex 66.1769 40.9423 21.5
      vertex 67.0527 42.611 25
      vertex 67.0527 42.611 21.5
    endloop
  endfacet
  facet normal -0.885457 0.464721 0
    outer loop
      vertex 67.0527 42.611 25
      vertex 66.1769 40.9423 21.5
      vertex 66.1769 40.9423 25
    endloop
  endfacet
  facet normal 0 0 1
    outer loop
      vertex 73.4865 41.8298 25
      vertex 73.4865 38.1702 25
      vertex 73.9375 40 25
    endloop
  endfacet
  facet normal 0 0 1
    outer loop
      vertex 72.2368 43.2405 25
      vertex 73.4865 38.1702 25
      vertex 73.4865 41.8298 25
    endloop
  endfacet
  facet normal 0 0 1
    outer loop
      vertex 72.2368 43.2405 25
      vertex 72.2368 36.7595 25
      vertex 73.4865 38.1702 25
    endloop
  endfacet
  facet normal 0 0 1
    outer loop
      vertex 70.4746 43.9088 25
      vertex 72.2368 36.7595 25
      vertex 72.2368 43.2405 25
    endloop
  endfacet
  facet normal 0 0 1
    outer loop
      vertex 70.4746 43.9088 25
      vertex 70.4746 36.0912 25
      vertex 72.2368 36.7595 25
    endloop
  endfacet
  facet normal -0 0 1
    outer loop
      vertex 68.6037 43.6816 25
      vertex 70.4746 36.0912 25
      vertex 70.4746 43.9088 25
    endloop
  endfacet
  facet normal 0 0 1
    outer loop
      vertex 68.6037 43.6816 25
      vertex 68.6037 36.3184 25
      vertex 70.4746 36.0912 25
    endloop
  endfacet
  facet normal -0 0 1
    outer loop
      vertex 67.0527 42.611 25
      vertex 68.6037 36.3184 25
      vertex 68.6037 43.6816 25
    endloop
  endfacet
  facet normal 0 0 1
    outer loop
      vertex 67.0527 42.611 25
      vertex 67.0527 37.389 25
      vertex 68.6037 36.3184 25
    endloop
  endfacet
  facet normal -0 0 1
    outer loop
      vertex 66.1769 40.9423 25
      vertex 67.0527 37.389 25
      vertex 67.0527 42.611 25
    endloop
  endfacet
  facet normal 0 0 1
    outer loop
      vertex 67.0527 37.389 25
      vertex 66.1769 40.9423 25
      vertex 66.1769 39.0577 25
    endloop
  endfacet
  facet normal 0.970942 -0.239317 0
    outer loop
      vertex 73.4865 38.1702 25
      vertex 73.9375 40 21.5
      vertex 73.9375 40 25
    endloop
  endfacet
  facet normal 0.970942 -0.239317 0
    outer loop
      vertex 73.9375 40 21.5
      vertex 73.4865 38.1702 25
      vertex 73.4865 38.1702 21.5
    endloop
  endfacet
  facet normal -0.120537 -0.992709 0
    outer loop
      vertex 68.6037 36.3184 21.5
      vertex 70.4746 36.0912 25
      vertex 68.6037 36.3184 25
    endloop
  endfacet
  facet normal -0.120537 -0.992709 -0
    outer loop
      vertex 70.4746 36.0912 25
      vertex 68.6037 36.3184 21.5
      vertex 70.4746 36.0912 21.5
    endloop
  endfacet
  facet normal -0.885457 -0.464721 0
    outer loop
      vertex 67.0527 37.389 21.5
      vertex 66.1769 39.0577 25
      vertex 66.1769 39.0577 21.5
    endloop
  endfacet
  facet normal -0.885457 -0.464721 0
    outer loop
      vertex 66.1769 39.0577 25
      vertex 67.0527 37.389 21.5
      vertex 67.0527 37.389 25
    endloop
  endfacet
  facet normal -0.568063 -0.822985 0
    outer loop
      vertex 67.0527 37.389 21.5
      vertex 68.6037 36.3184 25
      vertex 67.0527 37.389 25
    endloop
  endfacet
  facet normal -0.568063 -0.822985 -0
    outer loop
      vertex 68.6037 36.3184 25
      vertex 67.0527 37.389 21.5
      vertex 68.6037 36.3184 21.5
    endloop
  endfacet
  facet normal 0.970942 0.239315 0
    outer loop
      vertex 74 60 21.5
      vertex 73.5418 61.8589 0
      vertex 73.5418 61.8589 21.5
    endloop
  endfacet
  facet normal 0.970942 0.239315 0
    outer loop
      vertex 73.5418 61.8589 0
      vertex 74 60 21.5
      vertex 74 60 0
    endloop
  endfacet
  facet normal -1 0 0
    outer loop
      vertex 66.1162 59.0427 0
      vertex 66.1162 60.9573 21.5
      vertex 66.1162 60.9573 0
    endloop
  endfacet
  facet normal -1 -0 0
    outer loop
      vertex 66.1162 60.9573 21.5
      vertex 66.1162 59.0427 0
      vertex 66.1162 59.0427 21.5
    endloop
  endfacet
  facet normal -0.120535 0.992709 0
    outer loop
      vertex 70.4821 63.9708 0
      vertex 68.5816 63.7401 21.5
      vertex 70.4821 63.9708 21.5
    endloop
  endfacet
  facet normal -0.120535 0.992709 0
    outer loop
      vertex 68.5816 63.7401 21.5
      vertex 70.4821 63.9708 0
      vertex 68.5816 63.7401 0
    endloop
  endfacet
  facet normal 0.748511 0.663122 0
    outer loop
      vertex 73.5418 61.8589 21.5
      vertex 72.2723 63.2919 0
      vertex 72.2723 63.2919 21.5
    endloop
  endfacet
  facet normal 0.748511 0.663122 0
    outer loop
      vertex 72.2723 63.2919 0
      vertex 73.5418 61.8589 21.5
      vertex 73.5418 61.8589 0
    endloop
  endfacet
  facet normal -0.568066 0.822983 0
    outer loop
      vertex 68.5816 63.7401 0
      vertex 67.006 62.6525 21.5
      vertex 68.5816 63.7401 21.5
    endloop
  endfacet
  facet normal -0.568066 0.822983 0
    outer loop
      vertex 67.006 62.6525 21.5
      vertex 68.5816 63.7401 0
      vertex 67.006 62.6525 0
    endloop
  endfacet
  facet normal 0.354605 -0.935016 0
    outer loop
      vertex 70.4821 56.0292 0
      vertex 72.2723 56.7081 21.5
      vertex 70.4821 56.0292 21.5
    endloop
  endfacet
  facet normal 0.354605 -0.935016 0
    outer loop
      vertex 72.2723 56.7081 21.5
      vertex 70.4821 56.0292 0
      vertex 72.2723 56.7081 0
    endloop
  endfacet
  facet normal 0.354603 0.935017 -0
    outer loop
      vertex 72.2723 63.2919 0
      vertex 70.4821 63.9708 21.5
      vertex 72.2723 63.2919 21.5
    endloop
  endfacet
  facet normal 0.354603 0.935017 0
    outer loop
      vertex 70.4821 63.9708 21.5
      vertex 72.2723 63.2919 0
      vertex 70.4821 63.9708 0
    endloop
  endfacet
  facet normal -0.885456 0.464723 0
    outer loop
      vertex 66.1162 60.9573 0
      vertex 67.006 62.6525 21.5
      vertex 67.006 62.6525 0
    endloop
  endfacet
  facet normal -0.885456 0.464723 0
    outer loop
      vertex 67.006 62.6525 21.5
      vertex 66.1162 60.9573 0
      vertex 66.1162 60.9573 21.5
    endloop
  endfacet
  facet normal 0 0 1
    outer loop
      vertex 73.5418 61.8589 21.5
      vertex 73.875 60 21.5
      vertex 74 60 21.5
    endloop
  endfacet
  facet normal 0 0 1
    outer loop
      vertex 73.5418 61.8589 21.5
      vertex 73.4311 61.8008 21.5
      vertex 73.875 60 21.5
    endloop
  endfacet
  facet normal 0 0 1
    outer loop
      vertex 72.2723 63.2919 21.5
      vertex 73.4311 61.8008 21.5
      vertex 73.5418 61.8589 21.5
    endloop
  endfacet
  facet normal 0 0 1
    outer loop
      vertex 72.2723 63.2919 21.5
      vertex 72.2012 63.1891 21.5
      vertex 73.4311 61.8008 21.5
    endloop
  endfacet
  facet normal 0 0 1
    outer loop
      vertex 70.4821 63.9708 21.5
      vertex 72.2012 63.1891 21.5
      vertex 72.2723 63.2919 21.5
    endloop
  endfacet
  facet normal 0 0 1
    outer loop
      vertex 70.4821 63.9708 21.5
      vertex 70.4671 63.8467 21.5
      vertex 72.2012 63.1891 21.5
    endloop
  endfacet
  facet normal 0 0 1
    outer loop
      vertex 70.4821 63.9708 21.5
      vertex 68.6259 63.6232 21.5
      vertex 70.4671 63.8467 21.5
    endloop
  endfacet
  facet normal -0 0 1
    outer loop
      vertex 68.5816 63.7401 21.5
      vertex 68.6259 63.6232 21.5
      vertex 70.4821 63.9708 21.5
    endloop
  endfacet
  facet normal 0 0 1
    outer loop
      vertex 68.5816 63.7401 21.5
      vertex 67.0995 62.5696 21.5
      vertex 68.6259 63.6232 21.5
    endloop
  endfacet
  facet normal -0 0 1
    outer loop
      vertex 67.006 62.6525 21.5
      vertex 67.0995 62.5696 21.5
      vertex 68.5816 63.7401 21.5
    endloop
  endfacet
  facet normal 0 0 1
    outer loop
      vertex 67.006 62.6525 21.5
      vertex 66.2376 60.9273 21.5
      vertex 67.0995 62.5696 21.5
    endloop
  endfacet
  facet normal 0 0 1
    outer loop
      vertex 66.2376 60.9273 21.5
      vertex 66.1162 60.9573 21.5
      vertex 66.2376 59.0727 21.5
    endloop
  endfacet
  facet normal -0 0 1
    outer loop
      vertex 66.1162 60.9573 21.5
      vertex 66.2376 60.9273 21.5
      vertex 67.006 62.6525 21.5
    endloop
  endfacet
  facet normal -0 0 1
    outer loop
      vertex 73.875 60 21.5
      vertex 73.5418 58.1411 21.5
      vertex 74 60 21.5
    endloop
  endfacet
  facet normal -0 0 1
    outer loop
      vertex 73.4311 58.1992 21.5
      vertex 73.5418 58.1411 21.5
      vertex 73.875 60 21.5
    endloop
  endfacet
  facet normal 0 0 1
    outer loop
      vertex 73.4311 58.1992 21.5
      vertex 72.2723 56.7081 21.5
      vertex 73.5418 58.1411 21.5
    endloop
  endfacet
  facet normal -0 0 1
    outer loop
      vertex 72.2012 56.8109 21.5
      vertex 72.2723 56.7081 21.5
      vertex 73.4311 58.1992 21.5
    endloop
  endfacet
  facet normal 0 0 1
    outer loop
      vertex 72.2012 56.8109 21.5
      vertex 70.4821 56.0292 21.5
      vertex 72.2723 56.7081 21.5
    endloop
  endfacet
  facet normal -0 0 1
    outer loop
      vertex 70.4671 56.1533 21.5
      vertex 70.4821 56.0292 21.5
      vertex 72.2012 56.8109 21.5
    endloop
  endfacet
  facet normal 0 0 1
    outer loop
      vertex 68.6259 56.3768 21.5
      vertex 70.4821 56.0292 21.5
      vertex 70.4671 56.1533 21.5
    endloop
  endfacet
  facet normal 0 0 1
    outer loop
      vertex 68.6259 56.3768 21.5
      vertex 68.5816 56.2599 21.5
      vertex 70.4821 56.0292 21.5
    endloop
  endfacet
  facet normal 0 0 1
    outer loop
      vertex 67.0995 57.4304 21.5
      vertex 68.5816 56.2599 21.5
      vertex 68.6259 56.3768 21.5
    endloop
  endfacet
  facet normal 0 0 1
    outer loop
      vertex 67.0995 57.4304 21.5
      vertex 67.006 57.3475 21.5
      vertex 68.5816 56.2599 21.5
    endloop
  endfacet
  facet normal 0 0 1
    outer loop
      vertex 66.2376 59.0727 21.5
      vertex 67.006 57.3475 21.5
      vertex 67.0995 57.4304 21.5
    endloop
  endfacet
  facet normal 0 0 1
    outer loop
      vertex 66.2376 59.0727 21.5
      vertex 66.1162 59.0427 21.5
      vertex 67.006 57.3475 21.5
    endloop
  endfacet
  facet normal 0 0 1
    outer loop
      vertex 66.1162 59.0427 21.5
      vertex 66.2376 59.0727 21.5
      vertex 66.1162 60.9573 21.5
    endloop
  endfacet
  facet normal 0.970942 -0.239315 0
    outer loop
      vertex 73.5418 58.1411 21.5
      vertex 74 60 0
      vertex 74 60 21.5
    endloop
  endfacet
  facet normal 0.970942 -0.239315 0
    outer loop
      vertex 74 60 0
      vertex 73.5418 58.1411 21.5
      vertex 73.5418 58.1411 0
    endloop
  endfacet
  facet normal 0.748511 -0.663122 0
    outer loop
      vertex 72.2723 56.7081 21.5
      vertex 73.5418 58.1411 0
      vertex 73.5418 58.1411 21.5
    endloop
  endfacet
  facet normal 0.748511 -0.663122 0
    outer loop
      vertex 73.5418 58.1411 0
      vertex 72.2723 56.7081 21.5
      vertex 72.2723 56.7081 0
    endloop
  endfacet
  facet normal 0 0 -1
    outer loop
      vertex 73.5418 58.1411 0
      vertex 73.5418 61.8589 0
      vertex 74 60 0
    endloop
  endfacet
  facet normal 0 0 -1
    outer loop
      vertex 72.2723 56.7081 0
      vertex 73.5418 61.8589 0
      vertex 73.5418 58.1411 0
    endloop
  endfacet
  facet normal 0 0 -1
    outer loop
      vertex 72.2723 56.7081 0
      vertex 72.2723 63.2919 0
      vertex 73.5418 61.8589 0
    endloop
  endfacet
  facet normal 0 0 -1
    outer loop
      vertex 70.4821 56.0292 0
      vertex 72.2723 63.2919 0
      vertex 72.2723 56.7081 0
    endloop
  endfacet
  facet normal 0 0 -1
    outer loop
      vertex 70.4821 56.0292 0
      vertex 70.4821 63.9708 0
      vertex 72.2723 63.2919 0
    endloop
  endfacet
  facet normal 0 0 -1
    outer loop
      vertex 68.5816 56.2599 0
      vertex 70.4821 63.9708 0
      vertex 70.4821 56.0292 0
    endloop
  endfacet
  facet normal 0 0 -1
    outer loop
      vertex 68.5816 56.2599 0
      vertex 68.5816 63.7401 0
      vertex 70.4821 63.9708 0
    endloop
  endfacet
  facet normal 0 0 -1
    outer loop
      vertex 67.006 57.3475 0
      vertex 68.5816 63.7401 0
      vertex 68.5816 56.2599 0
    endloop
  endfacet
  facet normal 0 0 -1
    outer loop
      vertex 67.006 57.3475 0
      vertex 67.006 62.6525 0
      vertex 68.5816 63.7401 0
    endloop
  endfacet
  facet normal 0 0 -1
    outer loop
      vertex 66.1162 59.0427 0
      vertex 67.006 62.6525 0
      vertex 67.006 57.3475 0
    endloop
  endfacet
  facet normal 0 0 -1
    outer loop
      vertex 67.006 62.6525 0
      vertex 66.1162 59.0427 0
      vertex 66.1162 60.9573 0
    endloop
  endfacet
  facet normal -0.120536 -0.992709 0
    outer loop
      vertex 68.5816 56.2599 0
      vertex 70.4821 56.0292 21.5
      vertex 68.5816 56.2599 21.5
    endloop
  endfacet
  facet normal -0.120536 -0.992709 -0
    outer loop
      vertex 70.4821 56.0292 21.5
      vertex 68.5816 56.2599 0
      vertex 70.4821 56.0292 0
    endloop
  endfacet
  facet normal -0.568065 -0.822984 0
    outer loop
      vertex 67.006 57.3475 0
      vertex 68.5816 56.2599 21.5
      vertex 67.006 57.3475 21.5
    endloop
  endfacet
  facet normal -0.568065 -0.822984 -0
    outer loop
      vertex 68.5816 56.2599 21.5
      vertex 67.006 57.3475 0
      vertex 68.5816 56.2599 0
    endloop
  endfacet
  facet normal -0.885456 -0.464723 0
    outer loop
      vertex 67.006 57.3475 0
      vertex 66.1162 59.0427 21.5
      vertex 66.1162 59.0427 0
    endloop
  endfacet
  facet normal -0.885456 -0.464723 0
    outer loop
      vertex 66.1162 59.0427 21.5
      vertex 67.006 57.3475 0
      vertex 67.006 57.3475 21.5
    endloop
  endfacet
  facet normal 0.970942 0.239314 0
    outer loop
      vertex 73.875 60 25
      vertex 73.4311 61.8008 21.5
      vertex 73.4311 61.8008 25
    endloop
  endfacet
  facet normal 0.970942 0.239314 0
    outer loop
      vertex 73.4311 61.8008 21.5
      vertex 73.875 60 25
      vertex 73.875 60 21.5
    endloop
  endfacet
  facet normal -1 0 0
    outer loop
      vertex 66.2376 59.0727 21.5
      vertex 66.2376 60.9273 25
      vertex 66.2376 60.9273 21.5
    endloop
  endfacet
  facet normal -1 -0 0
    outer loop
      vertex 66.2376 60.9273 25
      vertex 66.2376 59.0727 21.5
      vertex 66.2376 59.0727 25
    endloop
  endfacet
  facet normal -0.120538 0.992709 0
    outer loop
      vertex 70.4671 63.8467 21.5
      vertex 68.6259 63.6232 25
      vertex 70.4671 63.8467 25
    endloop
  endfacet
  facet normal -0.120538 0.992709 0
    outer loop
      vertex 68.6259 63.6232 25
      vertex 70.4671 63.8467 21.5
      vertex 68.6259 63.6232 21.5
    endloop
  endfacet
  facet normal 0 0 1
    outer loop
      vertex 73.4311 61.8008 25
      vertex 73.4311 58.1992 25
      vertex 73.875 60 25
    endloop
  endfacet
  facet normal 0 0 1
    outer loop
      vertex 72.2012 63.1891 25
      vertex 73.4311 58.1992 25
      vertex 73.4311 61.8008 25
    endloop
  endfacet
  facet normal 0 0 1
    outer loop
      vertex 72.2012 63.1891 25
      vertex 72.2012 56.8109 25
      vertex 73.4311 58.1992 25
    endloop
  endfacet
  facet normal 0 0 1
    outer loop
      vertex 70.4671 63.8467 25
      vertex 72.2012 56.8109 25
      vertex 72.2012 63.1891 25
    endloop
  endfacet
  facet normal 0 0 1
    outer loop
      vertex 70.4671 63.8467 25
      vertex 70.4671 56.1533 25
      vertex 72.2012 56.8109 25
    endloop
  endfacet
  facet normal -0 0 1
    outer loop
      vertex 68.6259 63.6232 25
      vertex 70.4671 56.1533 25
      vertex 70.4671 63.8467 25
    endloop
  endfacet
  facet normal 0 0 1
    outer loop
      vertex 68.6259 63.6232 25
      vertex 68.6259 56.3768 25
      vertex 70.4671 56.1533 25
    endloop
  endfacet
  facet normal -0 0 1
    outer loop
      vertex 67.0995 62.5696 25
      vertex 68.6259 56.3768 25
      vertex 68.6259 63.6232 25
    endloop
  endfacet
  facet normal 0 0 1
    outer loop
      vertex 67.0995 62.5696 25
      vertex 67.0995 57.4304 25
      vertex 68.6259 56.3768 25
    endloop
  endfacet
  facet normal -0 0 1
    outer loop
      vertex 66.2376 60.9273 25
      vertex 67.0995 57.4304 25
      vertex 67.0995 62.5696 25
    endloop
  endfacet
  facet normal 0 0 1
    outer loop
      vertex 67.0995 57.4304 25
      vertex 66.2376 60.9273 25
      vertex 66.2376 59.0727 25
    endloop
  endfacet
  facet normal 0.354605 -0.935016 0
    outer loop
      vertex 70.4671 56.1533 21.5
      vertex 72.2012 56.8109 25
      vertex 70.4671 56.1533 25
    endloop
  endfacet
  facet normal 0.354605 -0.935016 0
    outer loop
      vertex 72.2012 56.8109 25
      vertex 70.4671 56.1533 21.5
      vertex 72.2012 56.8109 21.5
    endloop
  endfacet
  facet normal 0.354605 0.935016 -0
    outer loop
      vertex 72.2012 63.1891 21.5
      vertex 70.4671 63.8467 25
      vertex 72.2012 63.1891 25
    endloop
  endfacet
  facet normal 0.354605 0.935016 0
    outer loop
      vertex 70.4671 63.8467 25
      vertex 72.2012 63.1891 21.5
      vertex 70.4671 63.8467 21.5
    endloop
  endfacet
  facet normal 0.748509 0.663124 0
    outer loop
      vertex 73.4311 61.8008 25
      vertex 72.2012 63.1891 21.5
      vertex 72.2012 63.1891 25
    endloop
  endfacet
  facet normal 0.748509 0.663124 0
    outer loop
      vertex 72.2012 63.1891 21.5
      vertex 73.4311 61.8008 25
      vertex 73.4311 61.8008 21.5
    endloop
  endfacet
  facet normal -0.885457 0.464722 0
    outer loop
      vertex 66.2376 60.9273 21.5
      vertex 67.0995 62.5696 25
      vertex 67.0995 62.5696 21.5
    endloop
  endfacet
  facet normal -0.885457 0.464722 0
    outer loop
      vertex 67.0995 62.5696 25
      vertex 66.2376 60.9273 21.5
      vertex 66.2376 60.9273 25
    endloop
  endfacet
  facet normal -0.568064 0.822984 0
    outer loop
      vertex 68.6259 63.6232 21.5
      vertex 67.0995 62.5696 25
      vertex 68.6259 63.6232 25
    endloop
  endfacet
  facet normal -0.568064 0.822984 0
    outer loop
      vertex 67.0995 62.5696 25
      vertex 68.6259 63.6232 21.5
      vertex 67.0995 62.5696 21.5
    endloop
  endfacet
  facet normal 0.970942 -0.239314 0
    outer loop
      vertex 73.4311 58.1992 25
      vertex 73.875 60 21.5
      vertex 73.875 60 25
    endloop
  endfacet
  facet normal 0.970942 -0.239314 0
    outer loop
      vertex 73.875 60 21.5
      vertex 73.4311 58.1992 25
      vertex 73.4311 58.1992 21.5
    endloop
  endfacet
  facet normal 0.748509 -0.663124 0
    outer loop
      vertex 72.2012 56.8109 25
      vertex 73.4311 58.1992 21.5
      vertex 73.4311 58.1992 25
    endloop
  endfacet
  facet normal 0.748509 -0.663124 0
    outer loop
      vertex 73.4311 58.1992 21.5
      vertex 72.2012 56.8109 25
      vertex 72.2012 56.8109 21.5
    endloop
  endfacet
  facet normal -0.120538 -0.992709 0
    outer loop
      vertex 68.6259 56.3768 21.5
      vertex 70.4671 56.1533 25
      vertex 68.6259 56.3768 25
    endloop
  endfacet
  facet normal -0.120538 -0.992709 -0
    outer loop
      vertex 70.4671 56.1533 25
      vertex 68.6259 56.3768 21.5
      vertex 70.4671 56.1533 21.5
    endloop
  endfacet
  facet normal -0.568063 -0.822985 0
    outer loop
      vertex 67.0995 57.4304 21.5
      vertex 68.6259 56.3768 25
      vertex 67.0995 57.4304 25
    endloop
  endfacet
  facet normal -0.568063 -0.822985 -0
    outer loop
      vertex 68.6259 56.3768 25
      vertex 67.0995 57.4304 21.5
      vertex 68.6259 56.3768 21.5
    endloop
  endfacet
  facet normal -0.885457 -0.464721 0
    outer loop
      vertex 67.0995 57.4304 21.5
      vertex 66.2376 59.0727 25
      vertex 66.2376 59.0727 21.5
    endloop
  endfacet
  facet normal -0.885457 -0.464721 0
    outer loop
      vertex 66.2376 59.0727 25
      vertex 67.0995 57.4304 21.5
      vertex 67.0995 57.4304 25
    endloop
  endfacet
  facet normal 0.970942 0.239315 0
    outer loop
      vertex 74 80 21.5
      vertex 73.5418 81.8589 0
      vertex 73.5418 81.8589 21.5
    endloop
  endfacet
  facet normal 0.970942 0.239315 0
    outer loop
      vertex 73.5418 81.8589 0
      vertex 74 80 21.5
      vertex 74 80 0
    endloop
  endfacet
  facet normal -1 0 0
    outer loop
      vertex 66.1162 79.0427 0
      vertex 66.1162 80.9573 21.5
      vertex 66.1162 80.9573 0
    endloop
  endfacet
  facet normal -1 -0 0
    outer loop
      vertex 66.1162 80.9573 21.5
      vertex 66.1162 79.0427 0
      vertex 66.1162 79.0427 21.5
    endloop
  endfacet
  facet normal -0.120535 0.992709 0
    outer loop
      vertex 70.4821 83.9708 0
      vertex 68.5816 83.7401 21.5
      vertex 70.4821 83.9708 21.5
    endloop
  endfacet
  facet normal -0.120535 0.992709 0
    outer loop
      vertex 68.5816 83.7401 21.5
      vertex 70.4821 83.9708 0
      vertex 68.5816 83.7401 0
    endloop
  endfacet
  facet normal 0.74851 0.663123 0
    outer loop
      vertex 73.5418 81.8589 21.5
      vertex 72.2723 83.2919 0
      vertex 72.2723 83.2919 21.5
    endloop
  endfacet
  facet normal 0.74851 0.663123 0
    outer loop
      vertex 72.2723 83.2919 0
      vertex 73.5418 81.8589 21.5
      vertex 73.5418 81.8589 0
    endloop
  endfacet
  facet normal -0.568066 0.822983 0
    outer loop
      vertex 68.5816 83.7401 0
      vertex 67.006 82.6525 21.5
      vertex 68.5816 83.7401 21.5
    endloop
  endfacet
  facet normal -0.568066 0.822983 0
    outer loop
      vertex 67.006 82.6525 21.5
      vertex 68.5816 83.7401 0
      vertex 67.006 82.6525 0
    endloop
  endfacet
  facet normal 0.354602 -0.935017 0
    outer loop
      vertex 70.4821 76.0292 0
      vertex 72.2723 76.7081 21.5
      vertex 70.4821 76.0292 21.5
    endloop
  endfacet
  facet normal 0.354602 -0.935017 0
    outer loop
      vertex 72.2723 76.7081 21.5
      vertex 70.4821 76.0292 0
      vertex 72.2723 76.7081 0
    endloop
  endfacet
  facet normal 0.354605 0.935016 -0
    outer loop
      vertex 72.2723 83.2919 0
      vertex 70.4821 83.9708 21.5
      vertex 72.2723 83.2919 21.5
    endloop
  endfacet
  facet normal 0.354605 0.935016 0
    outer loop
      vertex 70.4821 83.9708 21.5
      vertex 72.2723 83.2919 0
      vertex 70.4821 83.9708 0
    endloop
  endfacet
  facet normal -0.885456 0.464723 0
    outer loop
      vertex 66.1162 80.9573 0
      vertex 67.006 82.6525 21.5
      vertex 67.006 82.6525 0
    endloop
  endfacet
  facet normal -0.885456 0.464723 0
    outer loop
      vertex 67.006 82.6525 21.5
      vertex 66.1162 80.9573 0
      vertex 66.1162 80.9573 21.5
    endloop
  endfacet
  facet normal 0 0 1
    outer loop
      vertex 73.5418 81.8589 21.5
      vertex 73.75 80 21.5
      vertex 74 80 21.5
    endloop
  endfacet
  facet normal 0 0 1
    outer loop
      vertex 73.5418 81.8589 21.5
      vertex 73.2476 81.875 21.5
      vertex 73.75 80 21.5
    endloop
  endfacet
  facet normal 0 0 1
    outer loop
      vertex 72.2723 83.2919 21.5
      vertex 73.2476 81.875 21.5
      vertex 73.5418 81.8589 21.5
    endloop
  endfacet
  facet normal 0 0 1
    outer loop
      vertex 72.2723 83.2919 21.5
      vertex 71.875 83.2476 21.5
      vertex 73.2476 81.875 21.5
    endloop
  endfacet
  facet normal 0 0 1
    outer loop
      vertex 70.4821 83.9708 21.5
      vertex 71.875 83.2476 21.5
      vertex 72.2723 83.2919 21.5
    endloop
  endfacet
  facet normal 0 0 1
    outer loop
      vertex 70.4821 83.9708 21.5
      vertex 70 83.75 21.5
      vertex 71.875 83.2476 21.5
    endloop
  endfacet
  facet normal 0 0 1
    outer loop
      vertex 68.5816 83.7401 21.5
      vertex 70 83.75 21.5
      vertex 70.4821 83.9708 21.5
    endloop
  endfacet
  facet normal -0 0 1
    outer loop
      vertex 68.5816 83.7401 21.5
      vertex 68.125 83.2476 21.5
      vertex 70 83.75 21.5
    endloop
  endfacet
  facet normal 0 0 1
    outer loop
      vertex 67.006 82.6525 21.5
      vertex 68.125 83.2476 21.5
      vertex 68.5816 83.7401 21.5
    endloop
  endfacet
  facet normal -0 0 1
    outer loop
      vertex 67.006 82.6525 21.5
      vertex 66.7524 81.875 21.5
      vertex 68.125 83.2476 21.5
    endloop
  endfacet
  facet normal 0 0 1
    outer loop
      vertex 66.7524 81.875 21.5
      vertex 66.1162 80.9573 21.5
      vertex 66.25 80 21.5
    endloop
  endfacet
  facet normal 0 0 1
    outer loop
      vertex 66.1162 80.9573 21.5
      vertex 66.7524 81.875 21.5
      vertex 67.006 82.6525 21.5
    endloop
  endfacet
  facet normal -0 0 1
    outer loop
      vertex 73.75 80 21.5
      vertex 73.5418 78.1411 21.5
      vertex 74 80 21.5
    endloop
  endfacet
  facet normal 0 0 1
    outer loop
      vertex 73.2476 78.125 21.5
      vertex 73.5418 78.1411 21.5
      vertex 73.75 80 21.5
    endloop
  endfacet
  facet normal -0 0 1
    outer loop
      vertex 73.2476 78.125 21.5
      vertex 72.2723 76.7081 21.5
      vertex 73.5418 78.1411 21.5
    endloop
  endfacet
  facet normal -0 0 1
    outer loop
      vertex 71.875 76.7524 21.5
      vertex 72.2723 76.7081 21.5
      vertex 73.2476 78.125 21.5
    endloop
  endfacet
  facet normal 0 0 1
    outer loop
      vertex 71.875 76.7524 21.5
      vertex 70.4821 76.0292 21.5
      vertex 72.2723 76.7081 21.5
    endloop
  endfacet
  facet normal -0 0 1
    outer loop
      vertex 70 76.25 21.5
      vertex 70.4821 76.0292 21.5
      vertex 71.875 76.7524 21.5
    endloop
  endfacet
  facet normal 0 0 1
    outer loop
      vertex 70 76.25 21.5
      vertex 68.5816 76.2599 21.5
      vertex 70.4821 76.0292 21.5
    endloop
  endfacet
  facet normal 0 0 1
    outer loop
      vertex 68.125 76.7524 21.5
      vertex 68.5816 76.2599 21.5
      vertex 70 76.25 21.5
    endloop
  endfacet
  facet normal 0 0 1
    outer loop
      vertex 68.125 76.7524 21.5
      vertex 67.006 77.3475 21.5
      vertex 68.5816 76.2599 21.5
    endloop
  endfacet
  facet normal 0 0 1
    outer loop
      vertex 66.7524 78.125 21.5
      vertex 67.006 77.3475 21.5
      vertex 68.125 76.7524 21.5
    endloop
  endfacet
  facet normal 0 0 1
    outer loop
      vertex 66.7524 78.125 21.5
      vertex 66.1162 79.0427 21.5
      vertex 67.006 77.3475 21.5
    endloop
  endfacet
  facet normal 0 0 1
    outer loop
      vertex 66.25 80 21.5
      vertex 66.1162 79.0427 21.5
      vertex 66.7524 78.125 21.5
    endloop
  endfacet
  facet normal 0 0 1
    outer loop
      vertex 66.1162 79.0427 21.5
      vertex 66.25 80 21.5
      vertex 66.1162 80.9573 21.5
    endloop
  endfacet
  facet normal -0.885456 -0.464723 0
    outer loop
      vertex 67.006 77.3475 0
      vertex 66.1162 79.0427 21.5
      vertex 66.1162 79.0427 0
    endloop
  endfacet
  facet normal -0.885456 -0.464723 0
    outer loop
      vertex 66.1162 79.0427 21.5
      vertex 67.006 77.3475 0
      vertex 67.006 77.3475 21.5
    endloop
  endfacet
  facet normal 0.748512 -0.663121 0
    outer loop
      vertex 72.2723 76.7081 21.5
      vertex 73.5418 78.1411 0
      vertex 73.5418 78.1411 21.5
    endloop
  endfacet
  facet normal 0.748512 -0.663121 0
    outer loop
      vertex 73.5418 78.1411 0
      vertex 72.2723 76.7081 21.5
      vertex 72.2723 76.7081 0
    endloop
  endfacet
  facet normal 0 0 -1
    outer loop
      vertex 73.5418 78.1411 0
      vertex 73.5418 81.8589 0
      vertex 74 80 0
    endloop
  endfacet
  facet normal 0 0 -1
    outer loop
      vertex 72.2723 76.7081 0
      vertex 73.5418 81.8589 0
      vertex 73.5418 78.1411 0
    endloop
  endfacet
  facet normal 0 0 -1
    outer loop
      vertex 72.2723 76.7081 0
      vertex 72.2723 83.2919 0
      vertex 73.5418 81.8589 0
    endloop
  endfacet
  facet normal 0 0 -1
    outer loop
      vertex 70.4821 76.0292 0
      vertex 72.2723 83.2919 0
      vertex 72.2723 76.7081 0
    endloop
  endfacet
  facet normal 0 0 -1
    outer loop
      vertex 70.4821 76.0292 0
      vertex 70.4821 83.9708 0
      vertex 72.2723 83.2919 0
    endloop
  endfacet
  facet normal 0 0 -1
    outer loop
      vertex 68.5816 76.2599 0
      vertex 70.4821 83.9708 0
      vertex 70.4821 76.0292 0
    endloop
  endfacet
  facet normal 0 0 -1
    outer loop
      vertex 68.5816 76.2599 0
      vertex 68.5816 83.7401 0
      vertex 70.4821 83.9708 0
    endloop
  endfacet
  facet normal 0 0 -1
    outer loop
      vertex 67.006 77.3475 0
      vertex 68.5816 83.7401 0
      vertex 68.5816 76.2599 0
    endloop
  endfacet
  facet normal 0 0 -1
    outer loop
      vertex 67.006 77.3475 0
      vertex 67.006 82.6525 0
      vertex 68.5816 83.7401 0
    endloop
  endfacet
  facet normal 0 0 -1
    outer loop
      vertex 66.1162 79.0427 0
      vertex 67.006 82.6525 0
      vertex 67.006 77.3475 0
    endloop
  endfacet
  facet normal 0 0 -1
    outer loop
      vertex 67.006 82.6525 0
      vertex 66.1162 79.0427 0
      vertex 66.1162 80.9573 0
    endloop
  endfacet
  facet normal 0.970942 -0.239315 0
    outer loop
      vertex 73.5418 78.1411 21.5
      vertex 74 80 0
      vertex 74 80 21.5
    endloop
  endfacet
  facet normal 0.970942 -0.239315 0
    outer loop
      vertex 74 80 0
      vertex 73.5418 78.1411 21.5
      vertex 73.5418 78.1411 0
    endloop
  endfacet
  facet normal -0.120535 -0.992709 0
    outer loop
      vertex 68.5816 76.2599 0
      vertex 70.4821 76.0292 21.5
      vertex 68.5816 76.2599 21.5
    endloop
  endfacet
  facet normal -0.120535 -0.992709 -0
    outer loop
      vertex 70.4821 76.0292 21.5
      vertex 68.5816 76.2599 0
      vertex 70.4821 76.0292 0
    endloop
  endfacet
  facet normal -0.568066 -0.822983 0
    outer loop
      vertex 67.006 77.3475 0
      vertex 68.5816 76.2599 21.5
      vertex 67.006 77.3475 21.5
    endloop
  endfacet
  facet normal -0.568066 -0.822983 -0
    outer loop
      vertex 68.5816 76.2599 21.5
      vertex 67.006 77.3475 0
      vertex 68.5816 76.2599 0
    endloop
  endfacet
  facet normal 0.965926 0.258818 0
    outer loop
      vertex 73.75 80 25
      vertex 73.2476 81.875 21.5
      vertex 73.2476 81.875 25
    endloop
  endfacet
  facet normal 0.965926 0.258818 0
    outer loop
      vertex 73.2476 81.875 21.5
      vertex 73.75 80 25
      vertex 73.75 80 21.5
    endloop
  endfacet
  facet normal -0.965926 -0.258818 0
    outer loop
      vertex 66.7524 78.125 21.5
      vertex 66.25 80 25
      vertex 66.25 80 21.5
    endloop
  endfacet
  facet normal -0.965926 -0.258818 0
    outer loop
      vertex 66.25 80 25
      vertex 66.7524 78.125 21.5
      vertex 66.7524 78.125 25
    endloop
  endfacet
  facet normal -0.258818 0.965926 0
    outer loop
      vertex 70 83.75 21.5
      vertex 68.125 83.2476 25
      vertex 70 83.75 25
    endloop
  endfacet
  facet normal -0.258818 0.965926 0
    outer loop
      vertex 68.125 83.2476 25
      vertex 70 83.75 21.5
      vertex 68.125 83.2476 21.5
    endloop
  endfacet
  facet normal -0.707107 0.707107 0
    outer loop
      vertex 66.7524 81.875 21.5
      vertex 68.125 83.2476 25
      vertex 68.125 83.2476 21.5
    endloop
  endfacet
  facet normal -0.707107 0.707107 0
    outer loop
      vertex 68.125 83.2476 25
      vertex 66.7524 81.875 21.5
      vertex 66.7524 81.875 25
    endloop
  endfacet
  facet normal 0.707107 -0.707107 0
    outer loop
      vertex 71.875 76.7524 25
      vertex 73.2476 78.125 21.5
      vertex 73.2476 78.125 25
    endloop
  endfacet
  facet normal 0.707107 -0.707107 0
    outer loop
      vertex 73.2476 78.125 21.5
      vertex 71.875 76.7524 25
      vertex 71.875 76.7524 21.5
    endloop
  endfacet
  facet normal -0.707107 -0.707107 0
    outer loop
      vertex 68.125 76.7524 21.5
      vertex 66.7524 78.125 25
      vertex 66.7524 78.125 21.5
    endloop
  endfacet
  facet normal -0.707107 -0.707107 0
    outer loop
      vertex 66.7524 78.125 25
      vertex 68.125 76.7524 21.5
      vertex 68.125 76.7524 25
    endloop
  endfacet
  facet normal 0.258818 0.965926 -0
    outer loop
      vertex 71.875 83.2476 21.5
      vertex 70 83.75 25
      vertex 71.875 83.2476 25
    endloop
  endfacet
  facet normal 0.258818 0.965926 0
    outer loop
      vertex 70 83.75 25
      vertex 71.875 83.2476 21.5
      vertex 70 83.75 21.5
    endloop
  endfacet
  facet normal 0.707107 0.707107 0
    outer loop
      vertex 73.2476 81.875 25
      vertex 71.875 83.2476 21.5
      vertex 71.875 83.2476 25
    endloop
  endfacet
  facet normal 0.707107 0.707107 0
    outer loop
      vertex 71.875 83.2476 21.5
      vertex 73.2476 81.875 25
      vertex 73.2476 81.875 21.5
    endloop
  endfacet
  facet normal -0.965926 0.258818 0
    outer loop
      vertex 66.25 80 21.5
      vertex 66.7524 81.875 25
      vertex 66.7524 81.875 21.5
    endloop
  endfacet
  facet normal -0.965926 0.258818 0
    outer loop
      vertex 66.7524 81.875 25
      vertex 66.25 80 21.5
      vertex 66.25 80 25
    endloop
  endfacet
  facet normal 0 0 1
    outer loop
      vertex 73.2476 81.875 25
      vertex 73.2476 78.125 25
      vertex 73.75 80 25
    endloop
  endfacet
  facet normal 0 0 1
    outer loop
      vertex 71.875 83.2476 25
      vertex 73.2476 78.125 25
      vertex 73.2476 81.875 25
    endloop
  endfacet
  facet normal 0 0 1
    outer loop
      vertex 71.875 83.2476 25
      vertex 71.875 76.7524 25
      vertex 73.2476 78.125 25
    endloop
  endfacet
  facet normal 0 0 1
    outer loop
      vertex 70 83.75 25
      vertex 71.875 76.7524 25
      vertex 71.875 83.2476 25
    endloop
  endfacet
  facet normal 0 0 1
    outer loop
      vertex 70 83.75 25
      vertex 70 76.25 25
      vertex 71.875 76.7524 25
    endloop
  endfacet
  facet normal -0 0 1
    outer loop
      vertex 68.125 83.2476 25
      vertex 70 76.25 25
      vertex 70 83.75 25
    endloop
  endfacet
  facet normal 0 0 1
    outer loop
      vertex 68.125 83.2476 25
      vertex 68.125 76.7524 25
      vertex 70 76.25 25
    endloop
  endfacet
  facet normal -0 0 1
    outer loop
      vertex 66.7524 81.875 25
      vertex 68.125 76.7524 25
      vertex 68.125 83.2476 25
    endloop
  endfacet
  facet normal 0 0 1
    outer loop
      vertex 66.7524 81.875 25
      vertex 66.7524 78.125 25
      vertex 68.125 76.7524 25
    endloop
  endfacet
  facet normal 0 -0 1
    outer loop
      vertex 66.7524 78.125 25
      vertex 66.7524 81.875 25
      vertex 66.25 80 25
    endloop
  endfacet
  facet normal -0.258818 -0.965926 0
    outer loop
      vertex 68.125 76.7524 21.5
      vertex 70 76.25 25
      vertex 68.125 76.7524 25
    endloop
  endfacet
  facet normal -0.258818 -0.965926 -0
    outer loop
      vertex 70 76.25 25
      vertex 68.125 76.7524 21.5
      vertex 70 76.25 21.5
    endloop
  endfacet
  facet normal 0.965926 -0.258818 0
    outer loop
      vertex 73.2476 78.125 25
      vertex 73.75 80 21.5
      vertex 73.75 80 25
    endloop
  endfacet
  facet normal 0.965926 -0.258818 0
    outer loop
      vertex 73.75 80 21.5
      vertex 73.2476 78.125 25
      vertex 73.2476 78.125 21.5
    endloop
  endfacet
  facet normal 0.258818 -0.965926 0
    outer loop
      vertex 70 76.25 21.5
      vertex 71.875 76.7524 25
      vertex 70 76.25 25
    endloop
  endfacet
  facet normal 0.258818 -0.965926 0
    outer loop
      vertex 71.875 76.7524 25
      vertex 70 76.25 21.5
      vertex 71.875 76.7524 21.5
    endloop
  endfacet
  facet normal 0.970942 0.239315 0
    outer loop
      vertex 74 -20 21.5
      vertex 73.5418 -18.1411 0
      vertex 73.5418 -18.1411 21.5
    endloop
  endfacet
  facet normal 0.970942 0.239315 0
    outer loop
      vertex 73.5418 -18.1411 0
      vertex 74 -20 21.5
      vertex 74 -20 0
    endloop
  endfacet
  facet normal -1 0 0
    outer loop
      vertex 66.1162 -20.9573 0
      vertex 66.1162 -19.0427 21.5
      vertex 66.1162 -19.0427 0
    endloop
  endfacet
  facet normal -1 -0 0
    outer loop
      vertex 66.1162 -19.0427 21.5
      vertex 66.1162 -20.9573 0
      vertex 66.1162 -20.9573 21.5
    endloop
  endfacet
  facet normal -0.120536 0.992709 0
    outer loop
      vertex 70.4821 -16.0292 0
      vertex 68.5816 -16.2599 21.5
      vertex 70.4821 -16.0292 21.5
    endloop
  endfacet
  facet normal -0.120536 0.992709 0
    outer loop
      vertex 68.5816 -16.2599 21.5
      vertex 70.4821 -16.0292 0
      vertex 68.5816 -16.2599 0
    endloop
  endfacet
  facet normal 0.748511 0.663122 0
    outer loop
      vertex 73.5418 -18.1411 21.5
      vertex 72.2723 -16.7081 0
      vertex 72.2723 -16.7081 21.5
    endloop
  endfacet
  facet normal 0.748511 0.663122 0
    outer loop
      vertex 72.2723 -16.7081 0
      vertex 73.5418 -18.1411 21.5
      vertex 73.5418 -18.1411 0
    endloop
  endfacet
  facet normal -0.568065 0.822984 0
    outer loop
      vertex 68.5816 -16.2599 0
      vertex 67.006 -17.3475 21.5
      vertex 68.5816 -16.2599 21.5
    endloop
  endfacet
  facet normal -0.568065 0.822984 0
    outer loop
      vertex 67.006 -17.3475 21.5
      vertex 68.5816 -16.2599 0
      vertex 67.006 -17.3475 0
    endloop
  endfacet
  facet normal 0.354604 -0.935016 0
    outer loop
      vertex 70.4821 -23.9708 0
      vertex 72.2723 -23.2919 21.5
      vertex 70.4821 -23.9708 21.5
    endloop
  endfacet
  facet normal 0.354604 -0.935016 0
    outer loop
      vertex 72.2723 -23.2919 21.5
      vertex 70.4821 -23.9708 0
      vertex 72.2723 -23.2919 0
    endloop
  endfacet
  facet normal 0.354605 0.935016 -0
    outer loop
      vertex 72.2723 -16.7081 0
      vertex 70.4821 -16.0292 21.5
      vertex 72.2723 -16.7081 21.5
    endloop
  endfacet
  facet normal 0.354605 0.935016 0
    outer loop
      vertex 70.4821 -16.0292 21.5
      vertex 72.2723 -16.7081 0
      vertex 70.4821 -16.0292 0
    endloop
  endfacet
  facet normal -0.885456 0.464723 0
    outer loop
      vertex 66.1162 -19.0427 0
      vertex 67.006 -17.3475 21.5
      vertex 67.006 -17.3475 0
    endloop
  endfacet
  facet normal -0.885456 0.464723 0
    outer loop
      vertex 67.006 -17.3475 21.5
      vertex 66.1162 -19.0427 0
      vertex 66.1162 -19.0427 21.5
    endloop
  endfacet
  facet normal 0 0 1
    outer loop
      vertex 73.5 -20 21.5
      vertex 74 -20 21.5
      vertex 73.5418 -18.1411 21.5
    endloop
  endfacet
  facet normal 0 0 1
    outer loop
      vertex 74 -20 21.5
      vertex 73.5 -20 21.5
      vertex 73.5418 -21.8589 21.5
    endloop
  endfacet
  facet normal 0 0 1
    outer loop
      vertex 73.5418 -18.1411 21.5
      vertex 72.9444 -18.1078 21.5
      vertex 73.5 -20 21.5
    endloop
  endfacet
  facet normal 0 0 1
    outer loop
      vertex 72.2723 -16.7081 21.5
      vertex 72.9444 -18.1078 21.5
      vertex 73.5418 -18.1411 21.5
    endloop
  endfacet
  facet normal 0 0 1
    outer loop
      vertex 72.2723 -16.7081 21.5
      vertex 71.4539 -16.8163 21.5
      vertex 72.9444 -18.1078 21.5
    endloop
  endfacet
  facet normal 0 0 1
    outer loop
      vertex 70.4821 -16.0292 21.5
      vertex 71.4539 -16.8163 21.5
      vertex 72.2723 -16.7081 21.5
    endloop
  endfacet
  facet normal 0 0 1
    outer loop
      vertex 70.4821 -16.0292 21.5
      vertex 69.5019 -16.5356 21.5
      vertex 71.4539 -16.8163 21.5
    endloop
  endfacet
  facet normal -0 0 1
    outer loop
      vertex 68.5816 -16.2599 21.5
      vertex 69.5019 -16.5356 21.5
      vertex 70.4821 -16.0292 21.5
    endloop
  endfacet
  facet normal 0 0 1
    outer loop
      vertex 68.5816 -16.2599 21.5
      vertex 67.708 -17.3549 21.5
      vertex 69.5019 -16.5356 21.5
    endloop
  endfacet
  facet normal -0 0 1
    outer loop
      vertex 67.006 -17.3475 21.5
      vertex 67.708 -17.3549 21.5
      vertex 68.5816 -16.2599 21.5
    endloop
  endfacet
  facet normal 0 0 1
    outer loop
      vertex 67.006 -17.3475 21.5
      vertex 66.6418 -19.0139 21.5
      vertex 67.708 -17.3549 21.5
    endloop
  endfacet
  facet normal 0 0 1
    outer loop
      vertex 66.6418 -19.0139 21.5
      vertex 66.1162 -19.0427 21.5
      vertex 66.6418 -20.9861 21.5
    endloop
  endfacet
  facet normal 0 0 1
    outer loop
      vertex 66.1162 -19.0427 21.5
      vertex 66.6418 -19.0139 21.5
      vertex 67.006 -17.3475 21.5
    endloop
  endfacet
  facet normal 0 0 1
    outer loop
      vertex 72.9444 -21.8922 21.5
      vertex 73.5418 -21.8589 21.5
      vertex 73.5 -20 21.5
    endloop
  endfacet
  facet normal -0 0 1
    outer loop
      vertex 72.9444 -21.8922 21.5
      vertex 72.2723 -23.2919 21.5
      vertex 73.5418 -21.8589 21.5
    endloop
  endfacet
  facet normal -0 0 1
    outer loop
      vertex 71.4539 -23.1837 21.5
      vertex 72.2723 -23.2919 21.5
      vertex 72.9444 -21.8922 21.5
    endloop
  endfacet
  facet normal 0 0 1
    outer loop
      vertex 71.4539 -23.1837 21.5
      vertex 70.4821 -23.9708 21.5
      vertex 72.2723 -23.2919 21.5
    endloop
  endfacet
  facet normal -0 0 1
    outer loop
      vertex 69.5019 -23.4644 21.5
      vertex 70.4821 -23.9708 21.5
      vertex 71.4539 -23.1837 21.5
    endloop
  endfacet
  facet normal 0 0 1
    outer loop
      vertex 69.5019 -23.4644 21.5
      vertex 68.5816 -23.7401 21.5
      vertex 70.4821 -23.9708 21.5
    endloop
  endfacet
  facet normal 0 0 1
    outer loop
      vertex 67.708 -22.6451 21.5
      vertex 68.5816 -23.7401 21.5
      vertex 69.5019 -23.4644 21.5
    endloop
  endfacet
  facet normal 0 0 1
    outer loop
      vertex 67.708 -22.6451 21.5
      vertex 67.006 -22.6525 21.5
      vertex 68.5816 -23.7401 21.5
    endloop
  endfacet
  facet normal 0 0 1
    outer loop
      vertex 66.6418 -20.9861 21.5
      vertex 67.006 -22.6525 21.5
      vertex 67.708 -22.6451 21.5
    endloop
  endfacet
  facet normal -0 0 1
    outer loop
      vertex 66.1162 -20.9573 21.5
      vertex 66.6418 -20.9861 21.5
      vertex 66.1162 -19.0427 21.5
    endloop
  endfacet
  facet normal 0 0 1
    outer loop
      vertex 66.6418 -20.9861 21.5
      vertex 66.1162 -20.9573 21.5
      vertex 67.006 -22.6525 21.5
    endloop
  endfacet
  facet normal -0.885456 -0.464723 0
    outer loop
      vertex 67.006 -22.6525 0
      vertex 66.1162 -20.9573 21.5
      vertex 66.1162 -20.9573 0
    endloop
  endfacet
  facet normal -0.885456 -0.464723 0
    outer loop
      vertex 66.1162 -20.9573 21.5
      vertex 67.006 -22.6525 0
      vertex 67.006 -22.6525 21.5
    endloop
  endfacet
  facet normal 0.748512 -0.663122 0
    outer loop
      vertex 72.2723 -23.2919 21.5
      vertex 73.5418 -21.8589 0
      vertex 73.5418 -21.8589 21.5
    endloop
  endfacet
  facet normal 0.748512 -0.663122 0
    outer loop
      vertex 73.5418 -21.8589 0
      vertex 72.2723 -23.2919 21.5
      vertex 72.2723 -23.2919 0
    endloop
  endfacet
  facet normal 0 0 -1
    outer loop
      vertex 73.5418 -21.8589 0
      vertex 73.5418 -18.1411 0
      vertex 74 -20 0
    endloop
  endfacet
  facet normal 0 0 -1
    outer loop
      vertex 72.2723 -23.2919 0
      vertex 73.5418 -18.1411 0
      vertex 73.5418 -21.8589 0
    endloop
  endfacet
  facet normal 0 0 -1
    outer loop
      vertex 72.2723 -23.2919 0
      vertex 72.2723 -16.7081 0
      vertex 73.5418 -18.1411 0
    endloop
  endfacet
  facet normal 0 0 -1
    outer loop
      vertex 70.4821 -23.9708 0
      vertex 72.2723 -16.7081 0
      vertex 72.2723 -23.2919 0
    endloop
  endfacet
  facet normal 0 0 -1
    outer loop
      vertex 70.4821 -23.9708 0
      vertex 70.4821 -16.0292 0
      vertex 72.2723 -16.7081 0
    endloop
  endfacet
  facet normal 0 0 -1
    outer loop
      vertex 68.5816 -23.7401 0
      vertex 70.4821 -16.0292 0
      vertex 70.4821 -23.9708 0
    endloop
  endfacet
  facet normal 0 0 -1
    outer loop
      vertex 68.5816 -23.7401 0
      vertex 68.5816 -16.2599 0
      vertex 70.4821 -16.0292 0
    endloop
  endfacet
  facet normal 0 0 -1
    outer loop
      vertex 67.006 -22.6525 0
      vertex 68.5816 -16.2599 0
      vertex 68.5816 -23.7401 0
    endloop
  endfacet
  facet normal 0 0 -1
    outer loop
      vertex 67.006 -22.6525 0
      vertex 67.006 -17.3475 0
      vertex 68.5816 -16.2599 0
    endloop
  endfacet
  facet normal 0 0 -1
    outer loop
      vertex 66.1162 -20.9573 0
      vertex 67.006 -17.3475 0
      vertex 67.006 -22.6525 0
    endloop
  endfacet
  facet normal 0 0 -1
    outer loop
      vertex 67.006 -17.3475 0
      vertex 66.1162 -20.9573 0
      vertex 66.1162 -19.0427 0
    endloop
  endfacet
  facet normal 0.970942 -0.239316 0
    outer loop
      vertex 73.5418 -21.8589 21.5
      vertex 74 -20 0
      vertex 74 -20 21.5
    endloop
  endfacet
  facet normal 0.970942 -0.239316 0
    outer loop
      vertex 74 -20 0
      vertex 73.5418 -21.8589 21.5
      vertex 73.5418 -21.8589 0
    endloop
  endfacet
  facet normal -0.120536 -0.992709 0
    outer loop
      vertex 68.5816 -23.7401 0
      vertex 70.4821 -23.9708 21.5
      vertex 68.5816 -23.7401 21.5
    endloop
  endfacet
  facet normal -0.120536 -0.992709 -0
    outer loop
      vertex 70.4821 -23.9708 21.5
      vertex 68.5816 -23.7401 0
      vertex 70.4821 -23.9708 0
    endloop
  endfacet
  facet normal -0.568065 -0.822984 0
    outer loop
      vertex 67.006 -22.6525 0
      vertex 68.5816 -23.7401 21.5
      vertex 67.006 -22.6525 21.5
    endloop
  endfacet
  facet normal -0.568065 -0.822984 -0
    outer loop
      vertex 68.5816 -23.7401 21.5
      vertex 67.006 -22.6525 0
      vertex 68.5816 -23.7401 0
    endloop
  endfacet
  facet normal 0.959493 0.281732 0
    outer loop
      vertex 73.5 -20 25
      vertex 72.9444 -18.1078 21.5
      vertex 72.9444 -18.1078 25
    endloop
  endfacet
  facet normal 0.959493 0.281732 0
    outer loop
      vertex 72.9444 -18.1078 21.5
      vertex 73.5 -20 25
      vertex 73.5 -20 21.5
    endloop
  endfacet
  facet normal -1 0 0
    outer loop
      vertex 66.6418 -20.9861 21.5
      vertex 66.6418 -19.0139 25
      vertex 66.6418 -19.0139 21.5
    endloop
  endfacet
  facet normal -1 -0 0
    outer loop
      vertex 66.6418 -19.0139 25
      vertex 66.6418 -20.9861 21.5
      vertex 66.6418 -20.9861 25
    endloop
  endfacet
  facet normal -0.415414 0.909633 0
    outer loop
      vertex 69.5019 -16.5356 21.5
      vertex 67.708 -17.3549 25
      vertex 69.5019 -16.5356 25
    endloop
  endfacet
  facet normal -0.415414 0.909633 0
    outer loop
      vertex 67.708 -17.3549 25
      vertex 69.5019 -16.5356 21.5
      vertex 67.708 -17.3549 21.5
    endloop
  endfacet
  facet normal 0 0 1
    outer loop
      vertex 72.9444 -18.1078 25
      vertex 72.9444 -21.8922 25
      vertex 73.5 -20 25
    endloop
  endfacet
  facet normal 0 0 1
    outer loop
      vertex 71.4539 -16.8163 25
      vertex 72.9444 -21.8922 25
      vertex 72.9444 -18.1078 25
    endloop
  endfacet
  facet normal 0 0 1
    outer loop
      vertex 71.4539 -16.8163 25
      vertex 71.4539 -23.1837 25
      vertex 72.9444 -21.8922 25
    endloop
  endfacet
  facet normal 0 0 1
    outer loop
      vertex 69.5019 -16.5356 25
      vertex 71.4539 -23.1837 25
      vertex 71.4539 -16.8163 25
    endloop
  endfacet
  facet normal 0 0 1
    outer loop
      vertex 69.5019 -16.5356 25
      vertex 69.5019 -23.4644 25
      vertex 71.4539 -23.1837 25
    endloop
  endfacet
  facet normal -0 0 1
    outer loop
      vertex 67.708 -17.3549 25
      vertex 69.5019 -23.4644 25
      vertex 69.5019 -16.5356 25
    endloop
  endfacet
  facet normal 0 0 1
    outer loop
      vertex 67.708 -17.3549 25
      vertex 67.708 -22.6451 25
      vertex 69.5019 -23.4644 25
    endloop
  endfacet
  facet normal -0 0 1
    outer loop
      vertex 66.6418 -19.0139 25
      vertex 67.708 -22.6451 25
      vertex 67.708 -17.3549 25
    endloop
  endfacet
  facet normal 0 0 1
    outer loop
      vertex 67.708 -22.6451 25
      vertex 66.6418 -19.0139 25
      vertex 66.6418 -20.9861 25
    endloop
  endfacet
  facet normal -0.841255 0.540639 0
    outer loop
      vertex 66.6418 -19.0139 21.5
      vertex 67.708 -17.3549 25
      vertex 67.708 -17.3549 21.5
    endloop
  endfacet
  facet normal -0.841255 0.540639 0
    outer loop
      vertex 67.708 -17.3549 25
      vertex 66.6418 -19.0139 21.5
      vertex 66.6418 -19.0139 25
    endloop
  endfacet
  facet normal 0.142315 -0.989821 0
    outer loop
      vertex 69.5019 -23.4644 21.5
      vertex 71.4539 -23.1837 25
      vertex 69.5019 -23.4644 25
    endloop
  endfacet
  facet normal 0.142315 -0.989821 0
    outer loop
      vertex 71.4539 -23.1837 25
      vertex 69.5019 -23.4644 21.5
      vertex 71.4539 -23.1837 21.5
    endloop
  endfacet
  facet normal 0.654859 -0.755751 0
    outer loop
      vertex 71.4539 -23.1837 21.5
      vertex 72.9444 -21.8922 25
      vertex 71.4539 -23.1837 25
    endloop
  endfacet
  facet normal 0.654859 -0.755751 0
    outer loop
      vertex 72.9444 -21.8922 25
      vertex 71.4539 -23.1837 21.5
      vertex 72.9444 -21.8922 21.5
    endloop
  endfacet
  facet normal 0.142315 0.989821 -0
    outer loop
      vertex 71.4539 -16.8163 21.5
      vertex 69.5019 -16.5356 25
      vertex 71.4539 -16.8163 25
    endloop
  endfacet
  facet normal 0.142315 0.989821 0
    outer loop
      vertex 69.5019 -16.5356 25
      vertex 71.4539 -16.8163 21.5
      vertex 69.5019 -16.5356 21.5
    endloop
  endfacet
  facet normal 0.654859 0.755751 -0
    outer loop
      vertex 72.9444 -18.1078 21.5
      vertex 71.4539 -16.8163 25
      vertex 72.9444 -18.1078 25
    endloop
  endfacet
  facet normal 0.654859 0.755751 0
    outer loop
      vertex 71.4539 -16.8163 25
      vertex 72.9444 -18.1078 21.5
      vertex 71.4539 -16.8163 21.5
    endloop
  endfacet
  facet normal -0.841255 -0.540639 0
    outer loop
      vertex 67.708 -22.6451 21.5
      vertex 66.6418 -20.9861 25
      vertex 66.6418 -20.9861 21.5
    endloop
  endfacet
  facet normal -0.841255 -0.540639 0
    outer loop
      vertex 66.6418 -20.9861 25
      vertex 67.708 -22.6451 21.5
      vertex 67.708 -22.6451 25
    endloop
  endfacet
  facet normal 0.959493 -0.281732 0
    outer loop
      vertex 72.9444 -21.8922 25
      vertex 73.5 -20 21.5
      vertex 73.5 -20 25
    endloop
  endfacet
  facet normal 0.959493 -0.281732 0
    outer loop
      vertex 73.5 -20 21.5
      vertex 72.9444 -21.8922 25
      vertex 72.9444 -21.8922 21.5
    endloop
  endfacet
  facet normal -0.415414 -0.909632 0
    outer loop
      vertex 67.708 -22.6451 21.5
      vertex 69.5019 -23.4644 25
      vertex 67.708 -22.6451 25
    endloop
  endfacet
  facet normal -0.415414 -0.909632 -0
    outer loop
      vertex 69.5019 -23.4644 25
      vertex 67.708 -22.6451 21.5
      vertex 69.5019 -23.4644 21.5
    endloop
  endfacet
endsolid OpenSCAD_Model
